<?xml version="1.0" encoding="utf-8"?>
<!-- Generator: Adobe Illustrator 19.1.0, SVG Export Plug-In . SVG Version: 6.00 Build 0)  -->
<svg version="1.1" id="Layer_1" xmlns="http://www.w3.org/2000/svg" xmlns:xlink="http://www.w3.org/1999/xlink" x="0px" y="0px"
	 viewBox="0 0 243.3 45.7" style="enable-background:new 0 0 243.3 45.7;" xml:space="preserve">
<style type="text/css">
	.st0{fill:#FFFFFF;}
	.st1{fill:#104E2C;}
	.st2{fill:#A98967;}
</style>
<g>
	<path class="st0" d="M0,13.6c0.4-1.4,0.7-2.9,1.4-4.2c2.2-4.6,5.8-7,11-7.1c3.1-0.1,6,0.8,9,1.7c0.2,0.1,0.5,0.4,0.5,0.6
		c0,1.3-0.1,2.5-0.2,4.1c-0.4-0.4-0.6-0.5-0.7-0.8c-1.6-2.9-4.2-4.1-7.4-4.2c-1.1,0-2.2,0-3.2,0.2C8,4.2,6.3,5.5,5.2,7.5
		c-1.9,3.4-2.3,7-1.2,10.7c2,6.4,9.7,8.6,15.1,4.4c1-0.7,1.8-1.6,2.7-2.5c0.5,1.7,0.3,2.3-1,3.2C15.5,27.4,7.2,26.8,2.7,22
		c-1.2-1.3-1.9-2.8-2.3-4.5c-0.1-0.5-0.3-0.9-0.4-1.4C0,15.3,0,14.5,0,13.6z"/>
	<path class="st0" d="M171.8,3c-5.4,7-10.9,14-16.3,21.1c0.2,0.1,0.3,0.2,0.3,0.2c3.7-0.1,7.4-0.2,11-0.4c1.8-0.1,3.2-1,3.4-3.1
		c0-0.2,0.3-0.4,0.4-0.6c0.1,0,0.2,0,0.3,0.1c0,0.4,0.1,0.8,0.1,1.2c0,1.1,0,2.2,0,3.3c0,0.8-0.3,0.9-1,0.9c-5.5,0-11.1,0-16.6,0
		c-0.7,0-1.5,0-2.5-0.2c5.4-7,10.7-14.1,16.1-21.1c-0.2-0.1-0.2-0.2-0.3-0.2c-3.4,0-6.8,0-10.2,0.2c-2,0.1-3.6,0.9-3.8,3.3
		c0,0.1-0.3,0.4-0.4,0.4c-0.2-0.1-0.5-0.3-0.5-0.4c0-1.6,0-3.1,0-4.7c6.6,0,13.1,0,19.6,0C171.7,2.8,171.8,2.9,171.8,3z"/>
	<path class="st0" d="M70.3,25.2c0-0.1,0-0.2-0.1-0.2c-2.3-1.4-2.3-2.4-0.1-4c0.4-0.3,0.8-0.6,1.2-0.9c-0.2-0.2-0.4-0.4-0.6-0.5
		c-2-1.2-2.9-2.8-2.5-4.7c0.4-2.1,1.9-3.3,3.9-3.8c1-0.2,2.1-0.3,3-0.1c1.6,0.5,3.3,0.4,4.9,0.4c0.6,0,1.2,0,1.8,0
		c-0.3,0.7-0.5,1.3-1.4,1.3c-0.6,0-1.3,0-2,0c0.3,0.8,0.7,1.4,0.8,2.1c0.6,3-1.8,5.6-5.2,5.6c-0.9,0-1.8-0.1-2.4,0.6
		c-0.4,0.4-0.6,0.9-0.9,1.4c0.5,0.2,1,0.6,1.5,0.7c1.4,0.2,2.9,0.3,4.4,0.4c0.6,0.1,1.2,0.2,1.7,0.4c1.7,0.5,2.7,1.5,2.9,3.3
		c0.2,1.7-0.5,3.1-1.9,4c-2.1,1.3-4.5,1.6-6.9,1.2c-1.2-0.2-2.3-0.6-3.4-1.1c-1.2-0.6-1.7-1.6-1.7-3c0.1-1.3,0.8-2.2,1.9-2.7
		C69.7,25.5,70,25.4,70.3,25.2z M74.4,31.8c1.3-0.3,2.5-0.6,3.7-1.1c0.9-0.4,1.3-1.2,1.3-2.2c0-1-0.5-1.7-1.4-2.1
		c-2.3-1-4.8-1-7.2-0.2c-1,0.3-1.6,1.1-1.6,2.2c-0.1,1.1,0.5,2,1.4,2.3C71.9,31.2,73.1,31.4,74.4,31.8z M70.8,15.5
		c-0.1,0-0.2,0.1-0.2,0.1c0.4,1,0.7,2.1,1.3,3c0.7,1.1,1.9,1.2,3.1,0.9c1-0.2,1.7-0.9,1.9-1.9c0.4-1.4,0.3-2.7-0.3-4
		c-0.5-1.2-1.7-1.9-3-1.8C71.9,12,70.7,13.5,70.8,15.5z"/>
	<path class="st0" d="M208.2,25.6c-0.2-0.6-0.1-0.9,0.5-0.9c0.9,0,1.4-0.4,1.4-1.3c0-2.7,0.1-5.4-0.1-8.1c-0.1-1.6-1.8-2.9-3.5-2.5
		c-1.2,0.3-2.2,1.1-3.3,1.7c-0.2,0.1-0.2,0.5-0.2,0.8c0,2.6,0,5.3,0,7.9c0,1.2,0.2,1.3,1.4,1.5c0.2,0,0.5,0.3,0.7,0.5
		c-0.2,0.1-0.5,0.4-0.7,0.4c-2,0-4.1,0-6.2,0c-0.2-0.7,0-0.9,0.6-0.9c1.3-0.1,1.6-0.4,1.6-1.7c0-2.4,0-4.8,0-7.1c0-0.2,0-0.4,0-0.6
		c-0.2-1.6-0.6-1.9-2.4-1.4c0.1-0.4,0.2-0.8,0.4-0.9c1.4-0.7,2.8-1.3,4.3-2c0,0.9,0,1.6,0,2.7c0.5-0.3,0.7-0.5,1-0.7
		c1.4-1.2,3-2.3,5-1.8c2.2,0.5,3.7,2.1,3.8,4.4c0.1,2.5,0.1,5,0.2,7.5c0,1.5,0.1,1.6,1.6,1.8c0.3,0,0.5,0.3,0.7,0.5
		c-0.2,0.1-0.5,0.4-0.7,0.4C212.3,25.6,210.2,25.6,208.2,25.6z"/>
	<path class="st0" d="M91.2,25.8c-4.3,0-7.6-3.2-7.7-7.5c-0.1-4.1,3.1-7.3,7.2-7.4c4.6,0,8,3.2,8,7.8C98.8,22.6,95.4,25.8,91.2,25.8
		z M96.1,19.1c-0.2-2-0.7-4-2.1-5.5c-2.1-2.4-5.4-2.1-7,0.6c-1.6,2.7-0.7,7.6,1.8,9.6c2.4,1.9,5.8,1.1,6.8-1.7
		C95.8,21.1,95.9,20.1,96.1,19.1z"/>
	<path class="st0" d="M220.8,15.4c-0.2,0.1-0.4,0.3-0.7,0.4c-0.5,0.1-1,0.2-1.4,0.4c-0.1-0.7-0.3-1.3-0.4-2c0-0.2,0.1-0.4,0.2-0.5
		c1.3-1.9,5-3.2,7.2-2.4c1.7,0.6,2.6,2,2.6,4.2c0,2.1,0,4.2,0,6.3c0,2.2,0.1,2.3,2.4,2c-0.2,0.2-0.3,0.6-0.6,0.7
		c-0.8,0.4-1.6,0.8-2.4,1.1c-1.1,0.5-1.3,0.4-1.7-0.8c-0.1-0.2-0.1-0.4-0.2-0.7c-0.4,0.2-0.7,0.4-1,0.6c-1.3,0.8-2.6,1.3-4.2,1.1
		c-1.5-0.2-2.8-1.3-3.1-2.6c-0.3-1.6,0.2-2.9,1.8-3.6c1.8-0.8,3.7-1.5,5.5-2.2c0.6-0.2,1-0.5,0.8-1.2c-0.1-0.8-0.2-1.6-0.4-2.3
		c-0.3-1-1-1.6-2.1-1.7c-1-0.1-2,0.3-2.6,1.1c-0.3,0.5-0.2,1.3-0.3,2C220.7,15.3,220.7,15.3,220.8,15.4z M225.9,18
		c-1.7,0.7-3.2,1.3-4.6,2c-1.6,0.9-1.5,2.9,0.2,3.8c1.2,0.7,3.4,0.2,4.3-1c0.1-0.1,0.2-0.3,0.2-0.4C225.9,21.1,225.9,19.7,225.9,18z
		"/>
	<path class="st0" d="M177.4,15.5c-0.3,0.2-0.8,0.4-1.2,0.6c-0.2,0.1-0.4,0.1-0.5,0.1c-1-1.4-0.8-2.5,0.5-3.4
		c1.7-1.2,3.5-2.3,5.8-1.7c1.9,0.5,3.1,1.9,3.1,3.8c0,2,0,4,0,6.1c0,0.3,0,0.5,0,0.8c0.1,2.1,0.3,2.3,2.4,1.9
		c-0.2,0.3-0.3,0.6-0.5,0.7c-0.8,0.4-1.6,0.8-2.4,1.1c-1.1,0.5-1.3,0.4-1.7-0.7c-0.1-0.2-0.1-0.4-0.3-0.7c-0.3,0.2-0.6,0.4-0.9,0.5
		c-1.3,0.8-2.6,1.3-4.1,1.1c-1.6-0.2-2.8-1.2-3.1-2.7c-0.3-1.6,0.2-2.8,1.8-3.5c1.8-0.8,3.7-1.5,5.5-2.2c0.6-0.2,0.8-0.5,0.8-1.1
		c0-1.2-0.1-2.3-0.9-3.2c-1.1-1.3-3.5-1.1-4.2,0.4C177.2,13.9,177.4,14.7,177.4,15.5z M182.6,17.9c-1.8,0.8-3.4,1.4-4.8,2.2
		c-1.2,0.7-1.3,1.8-0.5,2.9c1.1,1.6,4.2,1.5,5.2-0.2c0.1-0.1,0.1-0.2,0.1-0.4C182.6,21.1,182.6,19.7,182.6,17.9z"/>
	<path class="st0" d="M65.5,23.7c-0.2,0.2-0.4,0.5-0.7,0.7c-0.7,0.4-1.5,0.8-2.3,1.1c-1.1,0.5-1.3,0.4-1.7-0.7
		c-0.1-0.2-0.1-0.4-0.2-0.7c-0.4,0.2-0.7,0.4-1,0.5c-1.3,0.8-2.6,1.3-4.1,1.2c-1.6-0.2-2.9-1.2-3.2-2.6c-0.3-1.7,0.2-2.9,1.9-3.7
		c1.8-0.8,3.6-1.5,5.4-2.2c0.5-0.2,0.8-0.5,0.8-1.1c-0.1-0.8-0.1-1.7-0.3-2.4c-0.8-2.1-3.3-2.5-4.6-0.7c-0.4,0.5-0.2,1.4-0.3,2.1
		c0.1,0,0.2,0.1,0.2,0.1c-0.2,0.1-0.4,0.3-0.7,0.4c-0.5,0.2-1,0.3-1.4,0.4c-0.1-0.7-0.3-1.4-0.4-2c0-0.2,0.1-0.4,0.3-0.5
		c1.3-1.9,5-3.1,7.1-2.3c1.6,0.6,2.6,1.9,2.6,3.8c0,2,0,3.9,0,5.9c0,0.3,0,0.7,0,1c0.1,2,0.2,2.1,2.2,1.7
		C65.3,23.6,65.4,23.7,65.5,23.7z M60.6,18c-1.7,0.7-3.1,1.3-4.5,1.9c-1.4,0.7-1.6,2-0.8,3.2c1.1,1.5,4.3,1.3,5.2-0.3
		c0-0.1,0.1-0.2,0.1-0.3C60.6,21.1,60.6,19.7,60.6,18z"/>
	<path class="st0" d="M38.2,23.7c-0.2,0.2-0.4,0.6-0.6,0.7c-0.7,0.4-1.5,0.8-2.3,1.1c-1.1,0.5-1.3,0.4-1.7-0.8
		c-0.1-0.2-0.1-0.4-0.2-0.6c-0.8,0.4-1.5,0.9-2.3,1.2C29.6,26,28,26.2,26.5,25c-1.9-1.5-1.8-4.3,0.4-5.4c1.8-0.9,3.7-1.6,5.6-2.3
		c0.7-0.2,1-0.6,0.9-1.3c-0.1-0.8-0.2-1.6-0.5-2.4c-0.3-1-1.1-1.6-2.1-1.6c-1-0.1-2,0.3-2.5,1.2c-0.3,0.5-0.1,1.3-0.1,1.9
		c0.1,0,0.2,0.1,0.3,0.1c-0.2,0.1-0.4,0.3-0.6,0.4c-0.5,0.1-1,0.2-1.6,0.3c-0.1-0.7-0.4-1.6-0.1-2.2c1.1-2.4,5.7-3.6,7.9-2.2
		c1.2,0.8,1.8,1.9,1.8,3.4c0,2,0,4,0,6.1c0,0.3,0,0.6,0,0.9c0.1,1.9,0.4,2.1,2.2,1.6C38.1,23.6,38.2,23.6,38.2,23.7z M33.4,18
		c-1.7,0.7-3.1,1.3-4.5,2c-1.2,0.6-1.6,1.7-1,2.8c0.5,1,1.3,1.5,2.4,1.5c1.2,0,2.2-0.6,3.1-1.4c0,0,0.1-0.1,0.1-0.2
		C33.4,21.1,33.4,19.7,33.4,18z"/>
	<path class="st0" d="M106,0c0,0.6,0,1.2,0,1.8c0,6.7,0,13.4,0,20.1c0,0.3,0,0.5,0,0.8c0.1,1.4,0.6,1.9,1.9,2c0.6,0,0.8,0.3,0.6,0.9
		c-2.5,0-5,0-7.6,0c-0.2-0.6-0.1-0.8,0.6-0.9c1.4-0.1,1.7-0.5,1.9-1.8c0-0.3,0.1-0.6,0.1-1c0-5.6,0-11.1,0-16.7c0-0.3,0-0.5,0-0.8
		c-0.2-1-0.8-1.4-1.8-1.2c-0.2,0.1-0.5,0.1-1,0.2c0.2-0.5,0.3-1,0.5-1.1C102.7,1.5,104.3,0.8,106,0z"/>
	<path class="st0" d="M39.5,14c0.2-0.4,0.3-0.8,0.5-0.9c1.4-0.7,2.8-1.4,4.3-2.2c0,1,0,1.9,0,2.8c0.1,0,0.2,0.1,0.3,0.1
		c0.2-0.3,0.4-0.6,0.6-0.9c1.3-1.7,2.9-2.3,4.8-1.8c0.2,0.1,0.6,0.3,0.6,0.5c0.1,0.9,0,1.7,0,2.6c-0.2,0-0.4,0-0.4,0
		c-0.9-1.2-2.2-1.3-3.5-0.8c-1.3,0.5-2.1,1.7-2.1,3c-0.1,2.4,0,4.8,0,7.2c0,0.8,0.5,1,1.2,1.1c0.3,0,0.6,0.3,0.9,0.5
		c-0.3,0.1-0.6,0.4-0.9,0.4c-1.8,0-3.6,0-5.4,0c-0.2,0-0.5-0.3-0.7-0.4c0.2-0.2,0.4-0.5,0.6-0.5c1.4-0.2,1.7-0.5,1.7-1.9
		c0-2.2,0-4.4,0-6.6C42.1,13.9,41.8,13.8,39.5,14z"/>
	<path class="st0" d="M188.9,14.1c0.2-0.4,0.2-0.8,0.4-0.9c1.5-0.8,3-1.5,4.6-2.3c0,0.4,0.1,0.8,0.1,1.1c0,3.2,0,6.4,0,9.6
		c0,0.5,0,0.9,0,1.4c0.1,1.1,0.6,1.6,1.8,1.7c0.8,0.1,0.8,0.1,0.7,0.9c-2.5,0-5,0-7.6,0c-0.1-0.8-0.1-0.8,0.6-0.9
		c1.3-0.1,1.7-0.4,1.8-1.7c0.1-2.6,0.2-5.2,0.1-7.8c0-1.2-0.5-1.5-1.8-1.2C189.5,14,189.3,14,188.9,14.1z"/>
	<path class="st1" d="M112.7,42.7c1-4.2,7.9-7.4,12-5.5C122.1,42.1,116.6,44,112.7,42.7z"/>
	<path class="st1" d="M125.3,45.7c-1.3-5.1,1.9-9.9,5.5-11.9C131.7,37.2,129.7,43.6,125.3,45.7z"/>
	<path class="st1" d="M113.7,22.7c4-0.1,7.2,3.1,7.8,7.8C117.9,30.7,113.5,26.3,113.7,22.7z"/>
	<path class="st0" d="M187,31.6c-0.4,2.2-0.8,4.2-1.2,6.3c0.1,0.1,0.2,0.1,0.3,0.2c0.3-0.2,0.7-0.4,1-0.6c-0.1,0.8-1.5,2.1-2.2,2
		c-0.2,0-0.5-0.5-0.5-0.7c0-0.6,0.1-1.2,0.1-2c-0.9,0.8-1.5,1.6-2.3,2.1c-0.5,0.3-1.3,0.7-1.7,0.5c-0.4-0.1-0.6-1-0.7-1.6
		c-0.3-3.4,2.8-6.5,6.1-6.3C186.5,31.5,186.8,31.6,187,31.6z M184.4,32c-0.6,0.4-1.4,0.7-1.8,1.3c-0.8,1-1.2,2.2-1.1,3.6
		c0,0.4,0.3,0.9,0.4,1.3c0.4-0.2,0.9-0.3,1.3-0.6c1.2-1.1,2-2.5,2.3-4.1C185.7,32.4,185.6,32.2,184.4,32z"/>
	<path class="st0" d="M225.9,31.7c-0.9,2.9-1.3,5.4-1,6.4c0.2-0.1,0.3-0.1,0.5-0.2c0.2-0.1,0.3-0.2,0.5-0.3c-0.2,0.9-1.3,2-2.1,1.9
		c-0.2,0-0.5-0.4-0.5-0.7c0-0.6,0.1-1.3-0.1-2c-0.6,0.6-1.1,1.3-1.8,1.9c-0.6,0.5-1.3,1.3-2,0.7c-0.5-0.4-0.7-1.4-0.7-2.1
		c0.1-3.4,2.9-6,6.1-5.8C225.2,31.5,225.5,31.6,225.9,31.7z M224.3,32.5c-1.1-0.5-2.2-0.4-2.9,0.5c-1.1,1.3-1.4,2.8-1.2,4.5
		c0.1,0.7,0.5,0.8,1.1,0.5c0.4-0.2,0.7-0.5,1-0.8C223.5,35.9,224.1,34.3,224.3,32.5z"/>
	<path class="st0" d="M200.1,36.9c0-2.6,1.2-4.5,3.5-5.2c1.8-0.6,2.8,0,3,1.9c0.2,2.4-1.1,4.7-3.2,5.5
		C201.3,40,200.1,39.2,200.1,36.9z M205.4,34.6c-0.1,0-0.1,0-0.2-0.1c0-0.1,0-0.3,0-0.4c-0.1-0.8-0.1-1.6-1.1-1.9
		c-1-0.2-1.5,0.4-1.9,1.2c-0.6,1.2-0.9,2.5-0.6,3.9c0.1,0.5,0.5,1.2,1,1.4c0.7,0.3,1.4-0.2,1.7-0.8C204.7,36.8,205,35.6,205.4,34.6z
		"/>
	<path class="st0" d="M231,37.2c-0.4,1.2-1.3,1.9-2.5,2.2c-0.7,0.2-1.1-0.3-1-1.2c0.1-0.9,0.3-1.9,0.5-2.8c0.2-0.9,0.3-1.8,0.5-2.8
		c-0.5-0.1-0.8-0.1-1.4-0.3c0.4-0.3,0.6-0.6,0.8-0.6c1,0,1-0.7,1.1-1.3c0.2-1,0.8-1.6,1.7-2c-0.3,1.1-0.5,2-0.8,3.1
		c0.8,0,1.5,0,2.2,0c0,0.1,0,0.2,0.1,0.3c-0.6,0.2-1.1,0.3-1.6,0.5c-0.3,0.1-0.8,0.4-0.8,0.7c-0.3,1.3-0.5,2.7-0.7,4
		c0,0.3,0.1,0.7,0.2,1c0.3-0.1,0.7-0.2,1-0.3C230.5,37.6,230.7,37.4,231,37.2z"/>
	<path class="st0" d="M237.3,37.4c-0.3,1.2-2.9,2.6-4.1,1.9c-0.4-0.2-0.7-0.6-0.8-1c-0.9-2.7,0.7-5.8,3.4-6.7
		c0.6-0.2,1.3-0.3,1.7,0.3c0.4,0.7,0.3,1.4-0.3,1.8c-0.9,0.6-1.8,1.2-2.8,1.6c-0.9,0.3-1,0.8-0.8,1.6c0.2,0.8,0.5,1.5,1.5,1.3
		C235.9,38.1,236.6,37.7,237.3,37.4z M233.6,34.8c0.1,0.1,0.3,0.3,0.4,0.4c0.7-0.4,1.5-0.7,2.1-1.2c0.5-0.4,0.6-1.1,0-1.5
		c-0.3-0.2-1.1,0-1.3,0.3C234.2,33.3,233.9,34.1,233.6,34.8z"/>
	<path class="st0" d="M192.8,33c-1.3-0.9-1.9-1-2.3-0.4c-0.5,0.6-0.2,1.3,0.8,2.1c0.2,0.1,0.4,0.3,0.5,0.4c1.2,1,1.5,1.8,0.7,2.8
		c-0.9,1.3-2.9,1.9-4,1.3c-0.7-0.4-0.7-0.8-0.1-1.6c0.6,0.4,1.2,0.8,1.9,1c0.3,0.1,1.1-0.2,1.2-0.5c0.2-0.4,0-1-0.3-1.4
		c-0.3-0.5-0.9-0.8-1.4-1.2c-0.9-0.9-1.1-1.9-0.2-2.7c0.6-0.6,1.5-1,2.3-1.3c0.3-0.1,0.8,0.2,1.1,0.3C193.1,32.2,193,32.6,192.8,33z
		"/>
	<path class="st0" d="M238.5,37.7c0.8,0.4,1.5,0.8,2.2,1c0.3,0.1,0.9-0.3,1-0.6c0.1-0.3,0-0.9-0.2-1.2c-0.3-0.5-0.8-0.8-1.3-1.2
		c-1.2-1.1-1.2-2.4,0.1-3.4c0.5-0.4,1.3-0.7,1.9-0.8c0.3-0.1,0.7,0.2,1.1,0.3c-0.1,0.4-0.3,0.7-0.4,1.1c-0.2,0-0.3,0-0.3-0.1
		c-1-0.7-1.6-0.8-2-0.1c-0.6,0.9,0,1.4,0.6,1.9c0.5,0.4,1.1,0.8,1.4,1.3c0.3,0.5,0.4,1.3,0.2,1.8c-0.6,1.3-1.8,1.9-3.2,1.8
		C238.1,39.5,237.8,38.7,238.5,37.7z"/>
	<path class="st0" d="M194,37.7c0.8,0.4,1.4,0.8,2.2,1c0.3,0.1,0.9-0.3,1.1-0.6c0.2-0.3,0-0.9-0.2-1.2c-0.4-0.5-0.9-0.9-1.4-1.3
		c-0.9-0.9-1-1.7-0.3-2.7c0.7-1,2.5-1.8,3.2-1.3c0.9,0.5,0.1,0.9-0.2,1.4c-0.7-0.5-1.3-1.2-2.1-0.3c-0.5,0.6-0.2,1.3,0.8,2.2
		c0.1,0.1,0.2,0.2,0.3,0.2c1.8,1.5,1.7,3-0.5,4c-0.5,0.3-1.1,0.4-1.7,0.4c-0.5,0-1.1-0.3-1.3-0.6C193.7,38.5,194,37.9,194,37.7z"/>
	<path class="st0" d="M213.1,37.2c-0.4,1.3-2.6,2.7-3.8,2.2c-0.5-0.2-1-0.8-1.1-1.2c-0.5-2.6,0.3-5.3,3.2-6.5c0.5-0.2,1-0.2,1.5-0.2
		c0.2,0,0.6,0.3,0.6,0.5c0,0.3-0.2,0.6-0.4,0.8c-0.1,0.1-0.5,0-0.7-0.1c-1.3-0.7-1.9-0.6-2.3,0.7c-0.4,1.2-0.6,2.5-0.6,3.7
		c0,1.1,1,1.5,2,1.1C212.1,38,212.6,37.6,213.1,37.2z"/>
	<path class="st0" d="M215.7,32.9c-0.5,0.2-0.8,0.3-1,0.4c0.2-0.8,1.3-1.6,2.6-1.8c-0.4,2.2-0.8,4.3-1.2,6.5
		c0.1,0.1,0.2,0.1,0.2,0.2c0.3-0.2,0.7-0.4,1-0.6c-0.1,0.8-1.5,2-2.2,1.9c-0.7-0.1-0.6-0.6-0.5-1c0.2-1.4,0.6-2.8,0.8-4.2
		C215.5,33.9,215.6,33.5,215.7,32.9z"/>
	<path class="st0" d="M191.1,6c0-0.9,0.7-1.5,1.6-1.5c0.9,0,1.6,0.7,1.6,1.6c0,0.9-0.8,1.6-1.7,1.6C191.7,7.6,191.1,6.9,191.1,6z"/>
	<path class="st0" d="M217,30c-0.3-0.5-0.7-0.9-0.6-1c0.2-0.3,0.5-0.6,0.8-0.7c0.1-0.1,0.7,0.4,0.6,0.4
		C217.6,29.1,217.4,29.4,217,30z"/>
	<path class="st2" d="M144.5,3.3c-3-2.4-6,0.9-6,0.9s-8.8,8.6-9.4,8.9s-2.8-3.6-2.4-3.8c0.4-0.2,6.4-3.8,4.2-5.8
		c-2.2-2-5.4,0.7-5.4,0.7s-2.5,1.8-1.8,6.1c-3.3,1.2-6,3.5-6,3.5s-5.3,4.1-1,5.5c4.9,0.5,9.1-3.2,9.1-3.2s0.2-0.3,0.7-0.3
		c2.6,1.9,3.4,8.6,2.3,12.2c-1.1,3.6-3.7,4.6-7.2,5.3c-3.5,0.7-4.5-1.9-4.5-1.9s-0.2-0.5,0.3,0.8c0.5,1.4,4.9,2.7,9.8,0.4
		c4.9-2.3,5.4-7.5,5.6-10.3c0.2-2.8-1.5-6.2-2.5-7.3c-1.1-1.1-1-1.5-1-1.5s9-9.1,10.4-9.7c1.4-0.7,2.6,0.1,2,1.7s1,1.7,1,1.7
		S146.5,5.8,144.5,3.3z M119.9,17.5c-2.4-1.1,0.4-5.1,4.3-6.7l2.1,4.3C126.3,15.1,122.2,18.6,119.9,17.5z M126.5,6.2
		c0,0,1.2-3,3.2-2.6c2.1,1-0.6,3.5-1,3.8c-0.4,0.4-1.8,1.4-2,1.4S125.6,9.3,126.5,6.2z"/>
</g>
</svg>
