<?xml version="1.0" encoding="utf-8"?>
<!-- Generator: Adobe Illustrator 19.1.0, SVG Export Plug-In . SVG Version: 6.00 Build 0)  -->
<svg version="1.1" id="Layer_1" xmlns="http://www.w3.org/2000/svg" xmlns:xlink="http://www.w3.org/1999/xlink" x="0px" y="0px"
	 viewBox="0 0 53.4 51.9" style="enable-background:new 0 0 53.4 51.9;" xml:space="preserve">
<style type="text/css">
	.st0{fill:url(#SVGID_1_);}
	.st1{fill:#4F2C74;}
</style>
<linearGradient id="SVGID_1_" gradientUnits="userSpaceOnUse" x1="15.0845" y1="17.4678" x2="53.3777" y2="17.4678">
	<stop  offset="0" style="stop-color:#FFFF00"/>
	<stop  offset="0.6107" style="stop-color:#AFAE04"/>
	<stop  offset="1" style="stop-color:#4F2C74"/>
</linearGradient>
<path class="st0" d="M52.3,34.4c1-5.2-1.3-8.6-6.6-8.6c-4.5,0.1-9,1-13.6,1.3c-3.2,0.3-6.4,0.6-9.5,0.2c-5.9-0.7-8.9-5.7-7-11.4
	c0.3-0.9,0.6-1.7,1.1-2.5C21.1,6.9,27,2.4,34.7,0.3c1.6-0.4,3.5-0.7,4.4,1.1c0.9,1.7-0.2,3.2-1.4,4.4c-1,1-2.2,1.7-3.4,2.7
	C35.7,6.9,37,5.6,37.9,4c1-1.8,0.1-3.2-1.9-2.8c-2.3,0.4-4.6,1.2-6.7,2.2c-4.1,1.9-7.7,4.5-10.4,8.1c-1.2,1.7-2.3,3.7-2.7,5.8
	c-0.8,3.8,1.3,6.6,5.1,7c3.2,0.3,6.5,0.1,9.7,0c4-0.2,7.9-0.6,11.9-0.8c1.2-0.1,2.5,0.2,3.7,0.4c5,1,7.5,4.8,6.5,9.8
	c-0.1,0.3-0.3,0.7-0.5,1c-0.1,0.1-0.2,0.2-0.3,0.1C52.2,34.9,52.2,34.7,52.3,34.4z"/>
<g>
	<path class="st1" d="M0.4,44.4c1.5-0.3,3.5-1.1,3.5-2.4c0-0.8-0.5-1.2-1.6-1.8C0.9,39.5,0,38.9,0,37.8c0-1.7,2.3-3.2,4.5-3.7
		l0.3,1.2c-1,0.2-3.3,0.9-3.3,2.2c0,0.8,1.1,1.3,1.8,1.7c1.2,0.7,2.1,1.2,2.1,2.5c0,1.5-1.6,3.2-4.6,3.9L0.4,44.4z"/>
	<path class="st1" d="M7.1,44.8c0.9-1.5,5.4-10.4,5.7-11h0c1.4,2.2,5.1,9.3,6.2,10.9l-1.3,0.9c-0.3-0.6-2-3.8-2.1-4.1l-5.4,0.2
		c-0.2,0.3-1.5,3.3-1.7,3.9L7.1,44.8z M15.1,40.5c-0.2-0.3-2.1-4-2.3-4.2c-0.2,0.3-2,4.2-2.2,4.4L15.1,40.5z"/>
	<path class="st1" d="M29,45.4c-0.5,0.1-1.2,0.2-2.1,0.2c-5.3,0-6.7-3.2-6.7-4.6c0-2.6,2.4-5.8,7.9-6.8l0.2,1.3
		c-3.6,0.4-6.5,2.6-6.5,5.2c0,1.9,1.5,3.7,5.2,3.7c0.6,0,1.3-0.1,1.8-0.2L29,45.4z"/>
	<path class="st1" d="M31.9,45.3c0-0.7,0-4.4,0-4.8v-1.7c0-0.3,0-4.1-0.1-4.5h1.6c0,0.3-0.1,3.5-0.1,3.8v1.2l7-0.3v-1.3
		c0-0.3,0-3.1-0.1-3.4h1.6c0,0.4-0.1,4.6-0.1,5v1.6c0,0.2,0,4.1,0.1,4.4h-1.6c0-0.5,0.1-3.3,0.1-3.6v-1.6l-7,0.3v1
		c0,0.7,0,3.6,0.1,3.9H31.9z"/>
	<path class="st1" d="M51.7,45.5c-0.3,0-5-0.2-5.3-0.2c0-0.8,0-4.2,0-4.5v-2.1c0-0.3,0-4,0-4.3c0.4,0,4.5-0.2,5-0.3l0.1,1.2
		c-0.5,0-3.3,0.1-3.6,0.1v3.9c0.3,0,2.3-0.1,3.1-0.2l0,1.2c-0.3,0-2.8-0.1-3.1-0.1v3.8c0.4,0,2.5,0,3.8,0L51.7,45.5z"/>
	<path class="st1" d="M0.8,49.2c0-0.2,0-1.1,0-1.2c0.3,0,0.6,0,0.8,0c1.1,0.1,1.2,0.5,1.2,0.8c0,0.2-0.1,0.6-0.7,0.8v0
		c0.4,0.1,0.9,0.4,0.9,0.8c0,0.6-0.8,1.3-2.1,1.3h0c0-0.3,0-1.9,0-2V49.2z M1.2,49.7c0.6,0,1-0.4,1-0.7c0-0.5-0.6-0.6-1-0.6V49.7z
		 M1.2,51.5c0.6-0.1,1.1-0.3,1.1-0.9c0-0.4-0.4-0.6-1.1-0.6V51.5z"/>
	<path class="st1" d="M5.9,51.9c-0.2,0-1.6,0-1.7,0c0-0.2,0-1.2,0-1.3v-0.6c0-0.1,0-1.2,0-1.3c0.1,0,1.4-0.1,1.6-0.1l0,0.4
		c-0.2,0-1.1,0-1.2,0V50c0.1,0,0.7,0,1,0l0,0.4c-0.2,0-0.9,0-1,0v1.1c0.1,0,0.8,0,1.2,0L5.9,51.9z"/>
	<path class="st1" d="M6.4,51.7c0.3-0.5,1.7-3.1,1.8-3.2h0c0.4,0.7,1.6,2.7,1.9,3.2l-0.4,0.3C9.5,51.7,9,50.8,9,50.7l-1.7,0.1
		c-0.1,0.1-0.4,0.9-0.5,1.1L6.4,51.7z M8.8,50.4c-0.1-0.1-0.6-1.1-0.7-1.2c-0.1,0.1-0.6,1.2-0.7,1.3L8.8,50.4z"/>
	<path class="st1" d="M11,49.7c0,0.7,0,1.1,0.2,1.4c0.2,0.3,0.5,0.4,0.8,0.4c0.4,0,0.7-0.2,0.8-0.4c0.2-0.3,0.2-0.9,0.2-1.6v-0.2
		c0-0.3,0-0.6,0-0.8h0.5c0,0.1,0,0.4,0,0.8v0.2c0,0.9-0.1,1.4-0.4,1.9c-0.3,0.3-0.6,0.5-1.2,0.5c-0.3,0-0.8,0-1.1-0.6
		c-0.2-0.3-0.3-0.7-0.3-1.8v-0.2c0-0.2,0-0.5,0-0.7H11c0,0.1,0,0.3,0,0.8V49.7z"/>
	<path class="st1" d="M15.3,51.8c0-0.1,0-1.5,0-2.2V49c-0.6,0-1.3,0-1.3,0v-0.4c0.1,0,1.3,0.1,1.4,0.1h0.4c0.1,0,1.2,0,1.3-0.1V49
		c0,0-0.9,0-1.3,0v0.7c0,0.9,0,2,0.1,2.1H15.3z"/>
	<path class="st1" d="M18.5,51.8c0-0.1,0-0.6,0-0.7v-0.3c0-0.6-0.3-1.1-0.6-1.4c-0.2-0.2-0.5-0.4-0.7-0.5l0.2-0.4
		c0.3,0.1,0.6,0.4,0.7,0.5c0.2,0.2,0.5,0.6,0.6,1h0c0.1-0.4,0.3-0.7,0.6-0.9c0.2-0.2,0.6-0.5,0.9-0.6l0.1,0.4
		c-0.3,0.1-0.6,0.3-0.9,0.6c-0.3,0.4-0.6,0.8-0.6,1.3v0.4c0,0.1,0,0.5,0,0.6H18.5z"/>
	<path class="st1" d="M22.6,51.5c0.5-0.1,1.1-0.3,1.1-0.7c0-0.2-0.2-0.4-0.5-0.5c-0.4-0.2-0.7-0.4-0.7-0.7c0-0.5,0.8-1,1.5-1.1
		l0.1,0.4c-0.3,0-1.1,0.2-1.1,0.6c0,0.2,0.4,0.4,0.6,0.5c0.4,0.2,0.7,0.4,0.7,0.7c0,0.5-0.5,1-1.5,1.2L22.6,51.5z"/>
	<path class="st1" d="M25.9,51.8c0-0.1,0-1.5,0-2.2V49c-0.6,0-1.3,0-1.3,0v-0.4c0.1,0,1.3,0.1,1.4,0.1h0.4c0.1,0,1.2,0,1.3-0.1V49
		c0,0-0.9,0-1.3,0v0.7c0,0.9,0,2,0.1,2.1H25.9z"/>
	<path class="st1" d="M28.6,49.7c0,0.7,0,1.1,0.2,1.4c0.2,0.3,0.5,0.4,0.8,0.4c0.4,0,0.7-0.2,0.8-0.4c0.2-0.3,0.2-0.9,0.2-1.6v-0.2
		c0-0.3,0-0.6,0-0.8h0.5c0,0.1,0,0.4,0,0.8v0.2c0,0.9-0.1,1.4-0.4,1.9c-0.3,0.3-0.6,0.5-1.2,0.5c-0.3,0-0.8,0-1.1-0.6
		c-0.2-0.3-0.3-0.7-0.3-1.8v-0.2c0-0.2,0-0.5,0-0.7h0.5c0,0.1,0,0.3,0,0.8V49.7z"/>
	<path class="st1" d="M32.4,49.8c0-0.1,0-1.1,0-1.2c0.3,0,0.8,0,1.2,0c1.6,0.1,1.8,0.9,1.8,1.2c0,1.5-1.7,2-3,2c0-0.2,0-1.4,0-1.5
		V49.8z M32.8,51.4c1.3-0.1,2-0.8,2-1.5c0-0.7-0.7-1-2-1V51.4z"/>
	<path class="st1" d="M36.7,50.4c0,0.5,0,1.3,0,1.4h-0.5c0-0.2,0-1.3,0-1.4v-0.5c0-0.1,0-1.2,0-1.3h0.5c0,0.1,0,0.8,0,1.3V50.4z"/>
	<path class="st1" d="M37.7,50.4c0-1,0.8-1.9,1.9-1.9c1,0,1.7,0.6,1.7,1.6c0,0.7-0.5,1.8-1.9,1.8C38.3,51.9,37.7,51.2,37.7,50.4z
		 M40.8,50.1c0-0.8-0.6-1.2-1.2-1.2c-0.9,0-1.4,0.6-1.4,1.4c0,0.7,0.5,1.2,1.2,1.2C40.1,51.5,40.8,51,40.8,50.1z"/>
	<path class="st1" d="M44.4,48.6c0,0.1,0,1,0,1.6v1.3c0.1,0,0.7,0,1.2,0v0.4c-0.2,0-1.6,0-1.7,0c0-0.2,0-1.2,0-1.3v-0.6
		c0-0.1,0-1.2,0-1.3H44.4z"/>
	<path class="st1" d="M47.1,48.6c0,0.1,0,1,0,1.6v1.3c0.1,0,0.7,0,1.2,0v0.4c-0.2,0-1.6,0-1.7,0c0-0.2,0-1.2,0-1.3v-0.6
		c0-0.1,0-1.2,0-1.3H47.1z"/>
	<path class="st1" d="M51.5,51.9c-0.1,0-0.3,0-0.6,0c-1.7,0-2.1-0.9-2.1-1.4c0-0.8,0.7-1.7,2.4-2l0.1,0.4c-1.1,0.1-2,0.7-2,1.5
		c0,0.5,0.5,1.1,1.6,1.1c0.2,0,0.4,0,0.5-0.1L51.5,51.9z"/>
</g>
</svg>
