<?xml version="1.0" encoding="utf-8"?>
<!-- Generator: Adobe Illustrator 19.1.0, SVG Export Plug-In . SVG Version: 6.00 Build 0)  -->
<svg version="1.1" id="Layer_1" xmlns="http://www.w3.org/2000/svg" xmlns:xlink="http://www.w3.org/1999/xlink" x="0px" y="0px"
	 viewBox="-417.5 708.5 153 70.2" style="enable-background:new -417.5 708.5 153 70.2;" xml:space="preserve">
<style type="text/css">
	.st0{enable-background:new    ;}
	.st1{fill:#EB7263;}
	.st2{fill:#D8A31F;}
</style>
<g class="st0">
	<path class="st1" d="M-364.1,760.2c0-0.6-0.2-1.1-0.5-1.5c-0.4-0.4-0.8-0.7-1.4-1c-0.5-0.3-1.1-0.6-1.8-0.8
		c-0.6-0.3-1.2-0.6-1.8-0.9s-1-0.8-1.4-1.4c-0.4-0.5-0.5-1.2-0.5-2.1c0-1.2,0.4-2.1,1.2-2.8c0.8-0.7,2-1,3.5-1
		c0.9,0,1.7,0.1,2.4,0.2c0.7,0.1,1.3,0.3,1.7,0.5l-0.5,1.6c-0.3-0.2-0.8-0.3-1.5-0.5c-0.6-0.1-1.4-0.2-2.2-0.2c-1,0-1.7,0.2-2.1,0.6
		c-0.5,0.4-0.7,0.9-0.7,1.5s0.2,1,0.5,1.4c0.4,0.4,0.8,0.7,1.4,1c0.5,0.3,1.1,0.6,1.8,0.9c0.6,0.3,1.2,0.6,1.8,1s1,0.8,1.4,1.4
		c0.4,0.5,0.5,1.2,0.5,2c0,0.6-0.1,1.2-0.3,1.8c-0.2,0.5-0.6,1-1,1.3c-0.4,0.4-1,0.7-1.6,0.9c-0.6,0.2-1.4,0.3-2.2,0.3
		c-1.1,0-2-0.1-2.7-0.2c-0.7-0.2-1.3-0.3-1.6-0.6l0.6-1.6c0.3,0.2,0.8,0.4,1.5,0.5c0.6,0.2,1.4,0.3,2.2,0.3c0.5,0,0.9,0,1.3-0.1
		c0.4-0.1,0.8-0.2,1.1-0.5c0.3-0.2,0.5-0.5,0.7-0.8C-364.2,761-364.1,760.6-364.1,760.2z"/>
	<path class="st1" d="M-360.1,756.5c0-2.5,0.5-4.5,1.6-5.8c1.1-1.3,2.6-2,4.6-2c1.1,0,2,0.2,2.8,0.6c0.8,0.4,1.4,0.9,1.9,1.6
		s0.9,1.5,1.1,2.5c0.2,1,0.4,2,0.4,3.2c0,2.5-0.5,4.5-1.6,5.8s-2.6,2-4.6,2c-1.1,0-2-0.2-2.7-0.6c-0.8-0.4-1.4-0.9-1.9-1.6
		s-0.9-1.5-1.1-2.5C-360,758.7-360.1,757.7-360.1,756.5z M-358.2,756.5c0,0.8,0.1,1.6,0.2,2.4c0.2,0.7,0.4,1.4,0.8,2
		c0.4,0.6,0.8,1,1.3,1.4c0.5,0.3,1.2,0.5,1.9,0.5c1.3,0,2.4-0.5,3.2-1.5c0.8-1,1.1-2.6,1.1-4.7c0-0.8-0.1-1.6-0.2-2.4
		c-0.2-0.8-0.4-1.4-0.8-2c-0.4-0.6-0.8-1-1.3-1.4s-1.2-0.5-1.9-0.5c-1.3,0-2.4,0.5-3.1,1.5C-357.8,752.8-358.2,754.4-358.2,756.5z"
		/>
	<path class="st1" d="M-344.7,749.1c0.5-0.1,1.2-0.2,1.9-0.2s1.4-0.1,2-0.1c0.7,0,1.3,0.1,1.9,0.2c0.6,0.1,1.1,0.4,1.6,0.7
		c0.5,0.3,0.8,0.8,1.1,1.3s0.4,1.2,0.4,1.9c0,1.2-0.3,2.1-1,2.9c-0.6,0.7-1.5,1.2-2.5,1.5l1,0.8l3.8,6h-2.1l-4.2-6.5l-2.1-0.3v6.8
		h-1.8C-344.7,764.1-344.7,749.1-344.7,749.1z M-340.8,750.3c-0.2,0-0.4,0-0.6,0c-0.2,0-0.4,0-0.6,0c-0.2,0-0.4,0-0.5,0
		c-0.2,0-0.3,0-0.4,0.1v5.6h1.7c1,0,1.8-0.2,2.5-0.7c0.7-0.5,1-1.3,1-2.3c0-0.8-0.3-1.4-0.8-1.9
		C-339.1,750.6-339.9,750.3-340.8,750.3z"/>
	<path class="st1" d="M-331.8,749.1c0.5-0.1,1.2-0.2,1.9-0.2s1.4-0.1,2-0.1c0.7,0,1.3,0.1,1.9,0.2c0.6,0.1,1.1,0.4,1.6,0.7
		c0.5,0.3,0.8,0.8,1.1,1.3s0.4,1.2,0.4,1.9c0,1.2-0.3,2.1-1,2.9c-0.6,0.7-1.5,1.2-2.5,1.5l1,0.8l3.8,6h-2.1l-4.2-6.5l-2.1-0.3v6.8
		h-1.8C-331.8,764.1-331.8,749.1-331.8,749.1z M-328,750.3c-0.2,0-0.4,0-0.6,0c-0.2,0-0.4,0-0.6,0c-0.2,0-0.4,0-0.5,0
		c-0.2,0-0.3,0-0.4,0.1v5.6h1.7c1,0,1.8-0.2,2.5-0.7c0.7-0.5,1-1.3,1-2.3c0-0.8-0.3-1.4-0.8-1.9C-326.3,750.6-327,750.3-328,750.3z"
		/>
	<path class="st1" d="M-317,758.1l-5-9.1h2.1l3.5,6.6l0.4,1.3l0,0l0.4-1.4l3.4-6.6h1.9l-4.9,9.1v6h-1.8V758.1z"/>
</g>
<path class="st1" d="M-341,708.5c-9.8,0-17.8,8-17.8,17.7s8,17.7,17.8,17.7c9.8,0,17.7-8,17.7-17.7
	C-323.3,716.4-331.2,708.5-341,708.5z M-341,740.4c-7.8,0-14.2-6.4-14.2-14.2c0-3.2,1.1-6.3,3-8.7l19.9,19.9
	C-334.7,739.3-337.7,740.4-341,740.4z M-329.8,734.9l-19.9-19.9c2.4-1.9,5.4-3,8.7-3c7.8,0,14.2,6.4,14.2,14.2
	C-326.7,729.5-327.9,732.5-329.8,734.9z"/>
<g>
	<path class="st2" d="M-417.5,771.6c0.3-0.1,0.5-0.1,0.8-0.1s0.6,0,0.9,0c0.3,0,0.6,0,0.9,0.1c0.3,0.1,0.6,0.2,0.9,0.3
		c0.3,0.2,0.5,0.4,0.6,0.7c0.2,0.3,0.2,0.6,0.2,1.1c0,0.4-0.1,0.8-0.2,1.1c-0.2,0.3-0.4,0.5-0.6,0.7s-0.5,0.3-0.9,0.4
		s-0.7,0.1-1,0.1c0,0-0.1,0-0.2,0s-0.2,0-0.2,0c-0.1,0-0.2,0-0.2,0s-0.1,0-0.2,0v2.7h-0.8V771.6z M-415.8,772.2c-0.2,0-0.3,0-0.5,0
		c-0.2,0-0.3,0-0.4,0.1v2.9c0,0,0.1,0,0.2,0s0.2,0,0.2,0c0.1,0,0.2,0,0.2,0s0.1,0,0.2,0c0.2,0,0.5,0,0.7-0.1c0.2,0,0.4-0.1,0.6-0.2
		c0.2-0.1,0.3-0.3,0.4-0.5c0.1-0.2,0.2-0.5,0.2-0.8c0-0.3-0.1-0.5-0.2-0.7c-0.1-0.2-0.2-0.3-0.4-0.4c-0.2-0.1-0.4-0.2-0.6-0.2
		C-415.4,772.2-415.6,772.2-415.8,772.2z"/>
	<path class="st2" d="M-407.8,778.6h-4.1v-7h0.8v6.3h3.3V778.6z"/>
	<path class="st2" d="M-406.8,771.6h3.8v0.7h-3v2.3h2.7v0.7h-2.7v2.5h3v0.7h-3.9V771.6z"/>
	<path class="st2" d="M-398.1,776.6h-2.6l-0.7,1.9h-0.8l2.6-7.1h0.4l2.7,7.1h-0.9L-398.1,776.6z M-400.4,775.9h2l-0.8-2.1l-0.2-1.1
		h0l-0.2,1.1L-400.4,775.9z"/>
	<path class="st2" d="M-392.4,776.8c0-0.3-0.1-0.5-0.2-0.7c-0.2-0.2-0.4-0.3-0.6-0.5s-0.5-0.3-0.8-0.4c-0.3-0.1-0.6-0.3-0.8-0.4
		s-0.5-0.4-0.6-0.6s-0.2-0.6-0.2-1c0-0.5,0.2-1,0.6-1.3c0.4-0.3,0.9-0.5,1.6-0.5c0.4,0,0.8,0,1.1,0.1c0.3,0.1,0.6,0.1,0.8,0.2
		l-0.2,0.7c-0.2-0.1-0.4-0.1-0.7-0.2c-0.3-0.1-0.6-0.1-1-0.1c-0.4,0-0.8,0.1-1,0.3c-0.2,0.2-0.3,0.4-0.3,0.7c0,0.3,0.1,0.5,0.2,0.6
		c0.2,0.2,0.4,0.3,0.6,0.5s0.5,0.3,0.8,0.4c0.3,0.1,0.6,0.3,0.8,0.5c0.2,0.2,0.5,0.4,0.6,0.6c0.2,0.2,0.2,0.6,0.2,0.9
		c0,0.3-0.1,0.6-0.2,0.8c-0.1,0.2-0.3,0.4-0.5,0.6s-0.5,0.3-0.8,0.4c-0.3,0.1-0.6,0.1-1,0.1c-0.5,0-0.9,0-1.2-0.1
		c-0.3-0.1-0.6-0.2-0.8-0.3l0.3-0.7c0.2,0.1,0.4,0.2,0.7,0.2c0.3,0.1,0.6,0.1,1,0.1c0.2,0,0.4,0,0.6-0.1c0.2,0,0.4-0.1,0.5-0.2
		c0.1-0.1,0.3-0.2,0.3-0.4C-392.4,777.2-392.4,777-392.4,776.8z"/>
	<path class="st2" d="M-390.2,771.6h3.8v0.7h-3v2.3h2.7v0.7h-2.7v2.5h3v0.7h-3.9V771.6z"/>
	<path class="st2" d="M-382.2,771.6h3.8v0.7h-3v2.4h2.8v0.7h-2.8v3.1h-0.8V771.6z"/>
	<path class="st2" d="M-376.9,771.6h0.8v7h-0.8V771.6z"/>
	<path class="st2" d="M-370,778.6h-4.1v-7h0.8v6.3h3.3V778.6z"/>
	<path class="st2" d="M-364.8,778.6h-4.1v-7h0.8v6.3h3.3V778.6z"/>
	<path class="st2" d="M-361.8,775.1c0-1.2,0.2-2.1,0.7-2.7s1.2-0.9,2.1-0.9c0.5,0,0.9,0.1,1.3,0.3c0.4,0.2,0.7,0.4,0.9,0.7
		c0.2,0.3,0.4,0.7,0.5,1.1c0.1,0.4,0.2,0.9,0.2,1.5c0,1.2-0.2,2.1-0.7,2.7c-0.5,0.6-1.2,0.9-2.1,0.9c-0.5,0-0.9-0.1-1.3-0.3
		c-0.4-0.2-0.7-0.4-0.9-0.7s-0.4-0.7-0.5-1.1C-361.8,776.1-361.8,775.6-361.8,775.1z M-361,775.1c0,0.4,0,0.8,0.1,1.1
		c0.1,0.3,0.2,0.7,0.4,0.9c0.2,0.3,0.4,0.5,0.6,0.6c0.2,0.2,0.5,0.2,0.9,0.2c0.6,0,1.1-0.2,1.5-0.7s0.5-1.2,0.5-2.2
		c0-0.4,0-0.7-0.1-1.1c-0.1-0.3-0.2-0.7-0.4-0.9s-0.4-0.5-0.6-0.6c-0.2-0.2-0.5-0.2-0.9-0.2c-0.6,0-1.1,0.2-1.4,0.7
		C-360.8,773.4-361,774.1-361,775.1z"/>
	<path class="st2" d="M-350.7,771.6h0.8v4.7c0,0.4-0.1,0.8-0.2,1.1s-0.3,0.6-0.5,0.8c-0.2,0.2-0.4,0.3-0.7,0.4
		c-0.3,0.1-0.6,0.1-1,0.1c-0.8,0-1.4-0.2-1.9-0.6c-0.4-0.4-0.6-0.9-0.6-1.7v-4.8h0.8v4.4c0,0.4,0,0.7,0.1,0.9s0.2,0.4,0.3,0.6
		c0.1,0.2,0.3,0.3,0.5,0.3s0.5,0.1,0.7,0.1c0.5,0,0.9-0.1,1.2-0.4s0.4-0.8,0.4-1.5V771.6z"/>
	<path class="st2" d="M-343.7,772.3h-2.2v6.3h-0.8v-6.3h-2.2v-0.7h5.2V772.3z"/>
	<path class="st2" d="M-337.4,776.6h-2.6l-0.7,1.9h-0.8l2.7-7.1h0.4l2.7,7.1h-0.9L-337.4,776.6z M-339.7,775.9h2l-0.8-2.1l-0.2-1.1
		h0l-0.2,1.1L-339.7,775.9z"/>
	<path class="st2" d="M-330.7,778.6h-4.1v-7h0.8v6.3h3.3V778.6z"/>
	<path class="st2" d="M-325.5,778.6h-4.1v-7h0.8v6.3h3.3V778.6z"/>
	<path class="st2" d="M-322.2,771.6h3.8v0.7h-3v2.4h2.8v0.7h-2.8v3.1h-0.8V771.6z"/>
	<path class="st2" d="M-317.4,775.1c0-1.2,0.2-2.1,0.7-2.7s1.2-0.9,2.1-0.9c0.5,0,0.9,0.1,1.3,0.3c0.4,0.2,0.7,0.4,0.9,0.7
		c0.2,0.3,0.4,0.7,0.5,1.1c0.1,0.4,0.2,0.9,0.2,1.5c0,1.2-0.2,2.1-0.7,2.7c-0.5,0.6-1.2,0.9-2.1,0.9c-0.5,0-0.9-0.1-1.3-0.3
		c-0.4-0.2-0.7-0.4-0.9-0.7s-0.4-0.7-0.5-1.1C-317.3,776.1-317.4,775.6-317.4,775.1z M-316.5,775.1c0,0.4,0,0.8,0.1,1.1
		c0.1,0.3,0.2,0.7,0.4,0.9c0.2,0.3,0.4,0.5,0.6,0.6c0.2,0.2,0.5,0.2,0.9,0.2c0.6,0,1.1-0.2,1.5-0.7s0.5-1.2,0.5-2.2
		c0-0.4,0-0.7-0.1-1.1c-0.1-0.3-0.2-0.7-0.4-0.9s-0.4-0.5-0.6-0.6c-0.2-0.2-0.5-0.2-0.9-0.2c-0.6,0-1.1,0.2-1.4,0.7
		C-316.3,773.4-316.5,774.1-316.5,775.1z"/>
	<path class="st2" d="M-310.2,771.6c0.3,0,0.5-0.1,0.9-0.1c0.3,0,0.6,0,0.9,0c0.3,0,0.6,0,0.9,0.1s0.5,0.2,0.7,0.3
		c0.2,0.2,0.4,0.4,0.5,0.6c0.1,0.2,0.2,0.5,0.2,0.9c0,0.5-0.1,1-0.4,1.3c-0.3,0.3-0.7,0.6-1.1,0.7l0.5,0.4l1.7,2.8h-1l-1.9-3l-1-0.1
		v3.2h-0.8V771.6z M-308.4,772.2c-0.1,0-0.2,0-0.3,0s-0.2,0-0.3,0c-0.1,0-0.2,0-0.2,0c-0.1,0-0.1,0-0.2,0v2.6h0.8
		c0.5,0,0.8-0.1,1.1-0.3c0.3-0.2,0.5-0.6,0.5-1.1c0-0.4-0.1-0.7-0.4-0.9C-307.7,772.3-308,772.2-308.4,772.2z"/>
	<path class="st2" d="M-298.9,773.9l0.1-1h0l-0.4,1l-1.8,3.2h-0.2l-1.9-3.2l-0.4-1h0l0.1,1v4.7h-0.8v-7h0.6l2.2,3.6l0.3,0.8h0
		l0.3-0.8l2.1-3.6h0.6v7h-0.8V773.9z"/>
	<path class="st2" d="M-293.7,771.6h3.8v0.7h-3v2.4h2.8v0.7h-2.8v3.1h-0.8V771.6z"/>
	<path class="st2" d="M-288.3,771.6h0.8v7h-0.8V771.6z"/>
	<path class="st2" d="M-285.6,771.6h3.8v0.7h-3v2.3h2.7v0.7h-2.7v2.5h3v0.7h-3.9V771.6z"/>
	<path class="st2" d="M-276.1,778.6h-4.1v-7h0.8v6.3h3.3V778.6z"/>
	<path class="st2" d="M-275.1,771.6c0.1,0,0.3,0,0.4,0c0.2,0,0.3,0,0.5,0c0.2,0,0.3,0,0.5,0c0.2,0,0.3,0,0.5,0c0.6,0,1,0.1,1.5,0.3
		c0.4,0.2,0.7,0.4,1,0.7c0.3,0.3,0.5,0.7,0.6,1.1s0.2,0.9,0.2,1.4c0,0.5-0.1,0.9-0.2,1.4s-0.3,0.8-0.6,1.2c-0.3,0.3-0.6,0.6-1,0.8
		s-0.9,0.3-1.5,0.3c-0.1,0-0.2,0-0.4,0s-0.3,0-0.5,0c-0.2,0-0.3,0-0.5,0s-0.3,0-0.3,0V771.6z M-273.2,772.2c-0.1,0-0.2,0-0.3,0
		s-0.2,0-0.3,0c-0.1,0-0.2,0-0.3,0c-0.1,0-0.1,0-0.2,0v5.6c0,0,0.1,0,0.2,0c0.1,0,0.2,0,0.3,0c0.1,0,0.2,0,0.3,0c0.1,0,0.2,0,0.2,0
		c0.5,0,0.9-0.1,1.2-0.2c0.3-0.2,0.6-0.4,0.8-0.6c0.2-0.3,0.3-0.6,0.4-0.9c0.1-0.4,0.1-0.7,0.1-1.1c0-0.3,0-0.7-0.1-1
		s-0.2-0.6-0.4-0.9c-0.2-0.3-0.4-0.5-0.7-0.7C-272.4,772.3-272.7,772.2-273.2,772.2z"/>
	<path class="st2" d="M-265.4,776.8c0-0.3-0.1-0.5-0.2-0.7c-0.2-0.2-0.4-0.3-0.6-0.5s-0.5-0.3-0.8-0.4c-0.3-0.1-0.6-0.3-0.8-0.4
		s-0.5-0.4-0.6-0.6s-0.2-0.6-0.2-1c0-0.5,0.2-1,0.6-1.3s0.9-0.5,1.6-0.5c0.4,0,0.8,0,1.1,0.1c0.3,0.1,0.6,0.1,0.8,0.2l-0.2,0.7
		c-0.2-0.1-0.4-0.1-0.7-0.2c-0.3-0.1-0.6-0.1-1-0.1c-0.4,0-0.8,0.1-1,0.3s-0.3,0.4-0.3,0.7c0,0.3,0.1,0.5,0.2,0.6
		c0.2,0.2,0.4,0.3,0.6,0.5s0.5,0.3,0.8,0.4c0.3,0.1,0.6,0.3,0.8,0.5c0.2,0.2,0.5,0.4,0.6,0.6c0.2,0.2,0.2,0.6,0.2,0.9
		c0,0.3-0.1,0.6-0.2,0.8s-0.3,0.4-0.5,0.6s-0.5,0.3-0.8,0.4c-0.3,0.1-0.6,0.1-1,0.1c-0.5,0-0.9,0-1.2-0.1c-0.3-0.1-0.6-0.2-0.8-0.3
		l0.3-0.7c0.2,0.1,0.4,0.2,0.7,0.2c0.3,0.1,0.6,0.1,1,0.1c0.2,0,0.4,0,0.6-0.1c0.2,0,0.4-0.1,0.5-0.2c0.1-0.1,0.3-0.2,0.3-0.4
		C-265.4,777.2-265.4,777-265.4,776.8z"/>
</g>
</svg>
