<?xml version="1.0" encoding="utf-8"?>
<!-- Generator: Adobe Illustrator 19.1.0, SVG Export Plug-In . SVG Version: 6.00 Build 0)  -->
<svg version="1.1" id="Layer_1" xmlns="http://www.w3.org/2000/svg" xmlns:xlink="http://www.w3.org/1999/xlink" x="0px" y="0px"
	 viewBox="-177.6 347.7 140.2 73.2" style="enable-background:new -177.6 347.7 140.2 73.2;" xml:space="preserve">
<style type="text/css">
	.st0{enable-background:new    ;}
	.st1{fill:#EB7263;}
	.st2{fill:#010002;}
</style>
<g class="st0">
	<path class="st1" d="M-130.6,399.4c0-0.6-0.2-1.1-0.5-1.5c-0.4-0.4-0.8-0.7-1.4-1c-0.5-0.3-1.1-0.6-1.8-0.8
		c-0.6-0.3-1.2-0.6-1.8-0.9s-1-0.8-1.4-1.4c-0.4-0.5-0.5-1.2-0.5-2.1c0-1.2,0.4-2.1,1.2-2.8c0.8-0.7,2-1,3.5-1
		c0.9,0,1.7,0.1,2.4,0.2c0.7,0.1,1.3,0.3,1.7,0.5l-0.5,1.6c-0.3-0.2-0.8-0.3-1.5-0.5c-0.6-0.1-1.4-0.2-2.2-0.2c-1,0-1.7,0.2-2.1,0.6
		c-0.5,0.4-0.7,0.9-0.7,1.5c0,0.6,0.2,1,0.5,1.4c0.4,0.4,0.8,0.7,1.4,1c0.5,0.3,1.1,0.6,1.8,0.9c0.6,0.3,1.2,0.6,1.8,1
		s1,0.8,1.4,1.4c0.4,0.5,0.5,1.2,0.5,2c0,0.6-0.1,1.2-0.3,1.8c-0.2,0.5-0.6,1-1,1.3c-0.4,0.4-1,0.7-1.6,0.9
		c-0.6,0.2-1.4,0.3-2.2,0.3c-1.1,0-2-0.1-2.7-0.2c-0.7-0.2-1.3-0.3-1.6-0.6l0.6-1.6c0.3,0.2,0.8,0.4,1.5,0.5
		c0.6,0.2,1.4,0.3,2.2,0.3c0.5,0,0.9,0,1.3-0.1c0.4-0.1,0.8-0.2,1.1-0.5c0.3-0.2,0.5-0.5,0.7-0.8
		C-130.7,400.2-130.6,399.8-130.6,399.4z"/>
	<path class="st1" d="M-126.6,395.7c0-2.5,0.5-4.5,1.6-5.8c1.1-1.3,2.6-2,4.6-2c1.1,0,2,0.2,2.8,0.6s1.4,0.9,1.9,1.6
		c0.5,0.7,0.9,1.5,1.1,2.5c0.2,1,0.4,2,0.4,3.2c0,2.5-0.5,4.5-1.6,5.8c-1.1,1.3-2.6,2-4.6,2c-1.1,0-2-0.2-2.7-0.6
		c-0.8-0.4-1.4-0.9-1.9-1.6c-0.5-0.7-0.9-1.5-1.1-2.5C-126.5,397.9-126.6,396.9-126.6,395.7z M-124.7,395.7c0,0.8,0.1,1.6,0.2,2.4
		c0.2,0.7,0.4,1.4,0.8,2s0.8,1,1.3,1.4c0.5,0.3,1.2,0.5,1.9,0.5c1.3,0,2.4-0.5,3.2-1.5c0.8-1,1.1-2.6,1.1-4.7c0-0.8-0.1-1.6-0.2-2.4
		c-0.2-0.8-0.4-1.4-0.8-2c-0.4-0.6-0.8-1-1.3-1.4s-1.2-0.5-1.9-0.5c-1.3,0-2.4,0.5-3.1,1.5C-124.3,392-124.7,393.6-124.7,395.7z"/>
	<path class="st1" d="M-111.2,388.3c0.5-0.1,1.2-0.2,1.9-0.2s1.4-0.1,2-0.1c0.7,0,1.3,0.1,1.9,0.2c0.6,0.1,1.1,0.4,1.6,0.7
		c0.5,0.3,0.8,0.8,1.1,1.3c0.3,0.5,0.4,1.2,0.4,1.9c0,1.2-0.3,2.1-1,2.9c-0.6,0.7-1.5,1.2-2.5,1.5l1,0.8l3.8,6h-2.1l-4.2-6.5
		l-2.1-0.3v6.8h-1.8V388.3z M-107.3,389.5c-0.2,0-0.4,0-0.6,0s-0.4,0-0.6,0c-0.2,0-0.4,0-0.5,0c-0.2,0-0.3,0-0.4,0.1v5.6h1.7
		c1,0,1.8-0.2,2.5-0.7s1-1.3,1-2.3c0-0.8-0.3-1.4-0.8-1.9C-105.6,389.8-106.4,389.5-107.3,389.5z"/>
	<path class="st1" d="M-98.3,388.3c0.5-0.1,1.2-0.2,1.9-0.2s1.4-0.1,2-0.1c0.7,0,1.3,0.1,1.9,0.2c0.6,0.1,1.1,0.4,1.6,0.7
		c0.5,0.3,0.8,0.8,1.1,1.3c0.3,0.5,0.4,1.2,0.4,1.9c0,1.2-0.3,2.1-1,2.9c-0.6,0.7-1.5,1.2-2.5,1.5l1,0.8l3.8,6h-2.1l-4.2-6.5
		l-2.1-0.3v6.8h-1.8V388.3z M-94.5,389.5c-0.2,0-0.4,0-0.6,0s-0.4,0-0.6,0c-0.2,0-0.4,0-0.5,0c-0.2,0-0.3,0-0.4,0.1v5.6h1.7
		c1,0,1.8-0.2,2.5-0.7s1-1.3,1-2.3c0-0.8-0.3-1.4-0.8-1.9C-92.8,389.8-93.5,389.5-94.5,389.5z"/>
	<path class="st1" d="M-83.5,397.3l-5-9.1h2.1l3.5,6.6l0.4,1.3h0l0.4-1.4l3.4-6.6h1.9l-4.9,9.1v6h-1.8V397.3z"/>
</g>
<g class="st0">
	<path class="st2" d="M-176.9,412.2v1.2h0c0.2-0.4,0.5-0.8,0.9-1c0.4-0.2,0.9-0.4,1.4-0.4c0.5,0,0.9,0.1,1.3,0.3
		c0.4,0.2,0.7,0.4,0.9,0.7s0.4,0.7,0.5,1.1c0.1,0.4,0.2,0.8,0.2,1.3c0,0.5-0.1,0.9-0.2,1.3c-0.1,0.4-0.3,0.8-0.5,1.1
		s-0.5,0.6-0.9,0.7c-0.4,0.2-0.8,0.3-1.3,0.3c-0.2,0-0.5,0-0.7-0.1s-0.4-0.1-0.6-0.3c-0.2-0.1-0.4-0.3-0.5-0.4s-0.3-0.4-0.4-0.6h0
		v3.6h-0.8v-8.7H-176.9z M-172.6,414.4c-0.1-0.3-0.2-0.6-0.4-0.9c-0.2-0.3-0.4-0.5-0.6-0.6c-0.3-0.2-0.6-0.2-1-0.2
		c-0.4,0-0.8,0.1-1.1,0.2s-0.5,0.3-0.7,0.6c-0.2,0.2-0.3,0.5-0.4,0.9c-0.1,0.3-0.1,0.7-0.1,1c0,0.3,0,0.7,0.1,1s0.2,0.6,0.4,0.9
		c0.2,0.3,0.4,0.5,0.7,0.6c0.3,0.2,0.6,0.2,1,0.2c0.4,0,0.7-0.1,1-0.2c0.3-0.2,0.5-0.4,0.6-0.6c0.2-0.3,0.3-0.5,0.4-0.9
		c0.1-0.3,0.1-0.7,0.1-1S-172.5,414.7-172.6,414.4z"/>
	<path class="st2" d="M-169.7,409.7v8.8h-0.8v-8.8H-169.7z"/>
	<path class="st2" d="M-167.6,416.4c0.1,0.3,0.2,0.6,0.4,0.8c0.2,0.2,0.4,0.4,0.7,0.6c0.3,0.2,0.6,0.2,1,0.2c0.6,0,1-0.1,1.3-0.4
		c0.3-0.3,0.5-0.7,0.7-1.2h0.8c-0.2,0.7-0.5,1.3-0.9,1.7c-0.4,0.4-1.1,0.6-1.9,0.6c-0.5,0-0.9-0.1-1.3-0.3s-0.7-0.4-0.9-0.7
		s-0.4-0.7-0.5-1.1c-0.1-0.4-0.2-0.8-0.2-1.3c0-0.4,0.1-0.8,0.2-1.2c0.1-0.4,0.3-0.8,0.5-1.1c0.2-0.3,0.5-0.6,0.9-0.8
		s0.8-0.3,1.3-0.3c0.5,0,0.9,0.1,1.3,0.3c0.4,0.2,0.7,0.5,0.9,0.8c0.2,0.3,0.4,0.7,0.5,1.1c0.1,0.4,0.1,0.9,0.1,1.3h-4.9
		C-167.8,415.8-167.7,416.1-167.6,416.4z M-163.8,414.1c-0.1-0.3-0.2-0.5-0.4-0.7s-0.4-0.4-0.6-0.5c-0.2-0.1-0.5-0.2-0.8-0.2
		c-0.3,0-0.6,0.1-0.9,0.2c-0.2,0.1-0.5,0.3-0.6,0.5s-0.3,0.5-0.4,0.7c-0.1,0.3-0.2,0.6-0.2,0.8h4.1
		C-163.6,414.6-163.7,414.3-163.8,414.1z"/>
	<path class="st2" d="M-161.6,413.2c0.1-0.3,0.3-0.5,0.5-0.7c0.2-0.2,0.5-0.3,0.8-0.4s0.6-0.1,1-0.1c0.3,0,0.6,0,0.8,0.1
		c0.3,0.1,0.5,0.2,0.8,0.3c0.2,0.1,0.4,0.4,0.5,0.6s0.2,0.6,0.2,1v3.4c0,0.3,0.2,0.5,0.5,0.5c0.1,0,0.2,0,0.2,0v0.7
		c-0.1,0-0.2,0-0.2,0c-0.1,0-0.2,0-0.3,0c-0.2,0-0.4,0-0.5-0.1s-0.2-0.1-0.3-0.2s-0.1-0.2-0.1-0.4s0-0.3,0-0.5h0
		c-0.1,0.2-0.3,0.4-0.4,0.5c-0.1,0.2-0.3,0.3-0.5,0.4c-0.2,0.1-0.4,0.2-0.6,0.2c-0.2,0.1-0.5,0.1-0.8,0.1c-0.3,0-0.6,0-0.8-0.1
		c-0.3-0.1-0.5-0.2-0.7-0.3s-0.3-0.3-0.5-0.6c-0.1-0.2-0.2-0.5-0.2-0.8c0-0.4,0.1-0.8,0.3-1c0.2-0.3,0.5-0.4,0.8-0.6
		s0.7-0.2,1.1-0.3c0.4-0.1,0.8-0.1,1.2-0.2c0.2,0,0.3,0,0.4-0.1s0.2-0.1,0.3-0.1c0.1-0.1,0.1-0.1,0.2-0.3c0-0.1,0.1-0.2,0.1-0.4
		c0-0.3,0-0.5-0.1-0.6s-0.2-0.3-0.4-0.4c-0.2-0.1-0.3-0.2-0.5-0.2s-0.4-0.1-0.6-0.1c-0.5,0-0.9,0.1-1.2,0.4
		c-0.3,0.2-0.5,0.6-0.5,1.1h-0.8C-161.9,413.7-161.8,413.4-161.6,413.2z M-157.8,415.1c0,0.1-0.1,0.2-0.3,0.2
		c-0.1,0-0.3,0.1-0.4,0.1c-0.3,0.1-0.7,0.1-1,0.2c-0.4,0-0.7,0.1-1,0.2c-0.3,0.1-0.5,0.2-0.7,0.4c-0.2,0.2-0.3,0.4-0.3,0.7
		c0,0.2,0,0.4,0.1,0.5c0.1,0.2,0.2,0.3,0.3,0.4c0.1,0.1,0.3,0.2,0.5,0.3s0.3,0.1,0.5,0.1c0.3,0,0.6,0,0.9-0.1
		c0.3-0.1,0.5-0.2,0.7-0.4c0.2-0.2,0.4-0.4,0.5-0.6c0.1-0.2,0.2-0.5,0.2-0.8L-157.8,415.1L-157.8,415.1z"/>
	<path class="st2" d="M-151.7,413.4c-0.1-0.2-0.2-0.3-0.4-0.4s-0.3-0.2-0.5-0.3c-0.2-0.1-0.4-0.1-0.6-0.1c-0.2,0-0.3,0-0.5,0.1
		c-0.2,0-0.3,0.1-0.5,0.2c-0.1,0.1-0.3,0.2-0.4,0.3c-0.1,0.1-0.1,0.3-0.1,0.5c0,0.2,0,0.3,0.1,0.4c0.1,0.1,0.2,0.2,0.3,0.3
		s0.3,0.2,0.4,0.2c0.2,0.1,0.3,0.1,0.4,0.1l1,0.2c0.2,0,0.4,0.1,0.7,0.2c0.2,0.1,0.4,0.2,0.6,0.3c0.2,0.1,0.3,0.3,0.4,0.5
		c0.1,0.2,0.2,0.4,0.2,0.7c0,0.3-0.1,0.6-0.2,0.9c-0.2,0.2-0.4,0.4-0.6,0.6c-0.2,0.2-0.5,0.3-0.8,0.3c-0.3,0.1-0.6,0.1-0.9,0.1
		c-0.7,0-1.4-0.2-1.8-0.5c-0.5-0.4-0.7-0.9-0.8-1.7h0.8c0,0.5,0.2,0.9,0.6,1.2s0.8,0.4,1.3,0.4c0.2,0,0.4,0,0.6-0.1
		c0.2,0,0.4-0.1,0.6-0.2c0.2-0.1,0.3-0.2,0.4-0.4c0.1-0.2,0.2-0.3,0.2-0.6c0-0.2,0-0.3-0.1-0.5c-0.1-0.1-0.2-0.2-0.3-0.3
		c-0.1-0.1-0.3-0.2-0.5-0.2c-0.2-0.1-0.3-0.1-0.5-0.1l-1-0.2c-0.3-0.1-0.5-0.1-0.7-0.2c-0.2-0.1-0.4-0.2-0.6-0.3
		c-0.2-0.1-0.3-0.3-0.4-0.5c-0.1-0.2-0.1-0.4-0.1-0.7c0-0.3,0.1-0.6,0.2-0.8c0.1-0.2,0.3-0.4,0.6-0.6c0.2-0.1,0.5-0.2,0.8-0.3
		c0.3-0.1,0.6-0.1,0.8-0.1c0.3,0,0.6,0,0.9,0.1c0.3,0.1,0.5,0.2,0.7,0.4c0.2,0.2,0.4,0.4,0.5,0.6s0.2,0.6,0.2,0.9h-0.8
		C-151.6,413.8-151.6,413.6-151.7,413.4z"/>
	<path class="st2" d="M-148.9,416.4c0.1,0.3,0.2,0.6,0.4,0.8c0.2,0.2,0.4,0.4,0.7,0.6c0.3,0.2,0.6,0.2,1,0.2c0.6,0,1-0.1,1.3-0.4
		c0.3-0.3,0.5-0.7,0.7-1.2h0.8c-0.2,0.7-0.5,1.3-0.9,1.7c-0.4,0.4-1.1,0.6-1.9,0.6c-0.5,0-0.9-0.1-1.3-0.3s-0.7-0.4-0.9-0.7
		s-0.4-0.7-0.5-1.1c-0.1-0.4-0.2-0.8-0.2-1.3c0-0.4,0.1-0.8,0.2-1.2c0.1-0.4,0.3-0.8,0.5-1.1c0.2-0.3,0.5-0.6,0.9-0.8
		s0.8-0.3,1.3-0.3c0.5,0,0.9,0.1,1.3,0.3c0.4,0.2,0.7,0.5,0.9,0.8c0.2,0.3,0.4,0.7,0.5,1.1c0.1,0.4,0.1,0.9,0.1,1.3h-4.9
		C-149,415.8-149,416.1-148.9,416.4z M-145,414.1c-0.1-0.3-0.2-0.5-0.4-0.7s-0.4-0.4-0.6-0.5c-0.2-0.1-0.5-0.2-0.8-0.2
		c-0.3,0-0.6,0.1-0.9,0.2c-0.2,0.1-0.5,0.3-0.6,0.5s-0.3,0.5-0.4,0.7c-0.1,0.3-0.2,0.6-0.2,0.8h4.1
		C-144.9,414.6-144.9,414.3-145,414.1z"/>
	<path class="st2" d="M-138.4,412.8v5.7h-0.8v-5.7h-1.1v-0.7h1.1v-0.6c0-0.3,0-0.5,0.1-0.8c0-0.2,0.1-0.4,0.2-0.6
		c0.1-0.2,0.3-0.3,0.5-0.4s0.5-0.1,0.8-0.1c0.1,0,0.2,0,0.3,0c0.1,0,0.2,0,0.3,0v0.7c-0.1,0-0.2,0-0.3,0c-0.1,0-0.2,0-0.3,0
		c-0.2,0-0.4,0-0.5,0.1c-0.1,0.1-0.2,0.2-0.3,0.3s-0.1,0.2-0.1,0.4c0,0.1,0,0.3,0,0.5v0.6h1.3v0.7H-138.4z"/>
	<path class="st2" d="M-135.6,409.7v1.2h-0.8v-1.2H-135.6z M-135.6,412.2v6.4h-0.8v-6.4H-135.6z"/>
	<path class="st2" d="M-133.4,409.7v8.8h-0.8v-8.8H-133.4z"/>
	<path class="st2" d="M-131.1,409.7v8.8h-0.8v-8.8H-131.1z"/>
	<path class="st2" d="M-122.2,412.3c0.4,0.2,0.7,0.4,0.9,0.7c0.3,0.3,0.4,0.7,0.6,1.1c0.1,0.4,0.2,0.8,0.2,1.3s-0.1,0.9-0.2,1.3
		c-0.1,0.4-0.3,0.8-0.6,1.1c-0.3,0.3-0.6,0.5-0.9,0.7c-0.4,0.2-0.8,0.3-1.3,0.3c-0.5,0-0.9-0.1-1.3-0.3c-0.4-0.2-0.7-0.4-0.9-0.7
		c-0.3-0.3-0.4-0.7-0.6-1.1s-0.2-0.8-0.2-1.3s0.1-0.9,0.2-1.3s0.3-0.8,0.6-1.1c0.3-0.3,0.6-0.5,0.9-0.7c0.4-0.2,0.8-0.3,1.3-0.3
		C-123,412-122.5,412.1-122.2,412.3z M-124.4,412.9c-0.3,0.2-0.5,0.4-0.7,0.6s-0.3,0.5-0.4,0.9s-0.1,0.7-0.1,1c0,0.3,0,0.7,0.1,1
		s0.2,0.6,0.4,0.9c0.2,0.3,0.4,0.5,0.7,0.6c0.3,0.2,0.6,0.2,1,0.2c0.4,0,0.7-0.1,1-0.2c0.3-0.2,0.5-0.4,0.7-0.6
		c0.2-0.3,0.3-0.5,0.4-0.9s0.1-0.7,0.1-1c0-0.3,0-0.7-0.1-1s-0.2-0.6-0.4-0.9c-0.2-0.3-0.4-0.5-0.7-0.6s-0.6-0.2-1-0.2
		C-123.8,412.6-124.2,412.7-124.4,412.9z"/>
	<path class="st2" d="M-114.8,418.5v-1.1h0c-0.2,0.4-0.5,0.8-0.9,1c-0.4,0.2-0.8,0.3-1.3,0.3c-0.4,0-0.7-0.1-1-0.2
		c-0.3-0.1-0.5-0.3-0.7-0.5c-0.2-0.2-0.3-0.5-0.4-0.8c-0.1-0.3-0.1-0.6-0.1-1v-4.1h0.8v4.1c0,0.6,0.2,1,0.4,1.3
		c0.3,0.3,0.7,0.4,1.3,0.4c0.3,0,0.6-0.1,0.9-0.2c0.2-0.1,0.4-0.3,0.6-0.6c0.2-0.2,0.3-0.5,0.3-0.8c0.1-0.3,0.1-0.6,0.1-0.9v-3.3
		h0.8v6.4H-114.8z"/>
	<path class="st2" d="M-110.1,412.2v0.7h-1.3v4.3c0,0.3,0,0.5,0.1,0.6c0.1,0.1,0.2,0.2,0.5,0.2c0.2,0,0.4,0,0.7,0v0.7
		c-0.1,0-0.2,0-0.3,0c-0.1,0-0.2,0-0.3,0c-0.5,0-0.9-0.1-1.1-0.3c-0.2-0.2-0.3-0.6-0.3-1.1v-4.4h-1.1v-0.7h1.1v-1.9h0.8v1.9H-110.1z
		"/>
	<path class="st2" d="M-105.4,413.2c0.1-0.3,0.3-0.5,0.5-0.7c0.2-0.2,0.5-0.3,0.8-0.4s0.6-0.1,1-0.1c0.3,0,0.6,0,0.8,0.1
		c0.3,0.1,0.5,0.2,0.8,0.3c0.2,0.1,0.4,0.4,0.5,0.6s0.2,0.6,0.2,1v3.4c0,0.3,0.2,0.5,0.5,0.5c0.1,0,0.2,0,0.2,0v0.7
		c-0.1,0-0.2,0-0.2,0c-0.1,0-0.2,0-0.3,0c-0.2,0-0.4,0-0.5-0.1s-0.2-0.1-0.3-0.2s-0.1-0.2-0.1-0.4s0-0.3,0-0.5h0
		c-0.1,0.2-0.3,0.4-0.4,0.5c-0.1,0.2-0.3,0.3-0.5,0.4c-0.2,0.1-0.4,0.2-0.6,0.2c-0.2,0.1-0.5,0.1-0.8,0.1c-0.3,0-0.6,0-0.8-0.1
		c-0.3-0.1-0.5-0.2-0.7-0.3s-0.3-0.3-0.5-0.6c-0.1-0.2-0.2-0.5-0.2-0.8c0-0.4,0.1-0.8,0.3-1c0.2-0.3,0.5-0.4,0.8-0.6
		s0.7-0.2,1.1-0.3c0.4-0.1,0.8-0.1,1.2-0.2c0.2,0,0.3,0,0.4-0.1s0.2-0.1,0.3-0.1c0.1-0.1,0.1-0.1,0.2-0.3c0-0.1,0.1-0.2,0.1-0.4
		c0-0.3,0-0.5-0.1-0.6s-0.2-0.3-0.4-0.4c-0.2-0.1-0.3-0.2-0.5-0.2s-0.4-0.1-0.6-0.1c-0.5,0-0.9,0.1-1.2,0.4
		c-0.3,0.2-0.5,0.6-0.5,1.1h-0.8C-105.6,413.7-105.5,413.4-105.4,413.2z M-101.5,415.1c0,0.1-0.1,0.2-0.3,0.2
		c-0.1,0-0.3,0.1-0.4,0.1c-0.3,0.1-0.7,0.1-1,0.2c-0.4,0-0.7,0.1-1,0.2c-0.3,0.1-0.5,0.2-0.7,0.4c-0.2,0.2-0.3,0.4-0.3,0.7
		c0,0.2,0,0.4,0.1,0.5c0.1,0.2,0.2,0.3,0.3,0.4c0.1,0.1,0.3,0.2,0.5,0.3s0.3,0.1,0.5,0.1c0.3,0,0.6,0,0.9-0.1
		c0.3-0.1,0.5-0.2,0.7-0.4c0.2-0.2,0.4-0.4,0.5-0.6c0.1-0.2,0.2-0.5,0.2-0.8L-101.5,415.1L-101.5,415.1z"/>
	<path class="st2" d="M-98.4,409.7v8.8h-0.8v-8.8H-98.4z"/>
	<path class="st2" d="M-96.1,409.7v8.8h-0.8v-8.8H-96.1z"/>
	<path class="st2" d="M-90,412.8v5.7h-0.8v-5.7h-1.1v-0.7h1.1v-0.6c0-0.3,0-0.5,0.1-0.8c0-0.2,0.1-0.4,0.2-0.6
		c0.1-0.2,0.3-0.3,0.5-0.4s0.5-0.1,0.8-0.1c0.1,0,0.2,0,0.3,0c0.1,0,0.2,0,0.3,0v0.7c-0.1,0-0.2,0-0.3,0c-0.1,0-0.2,0-0.3,0
		c-0.2,0-0.4,0-0.5,0.1c-0.1,0.1-0.2,0.2-0.3,0.3s-0.1,0.2-0.1,0.4c0,0.1,0,0.3,0,0.5v0.6h1.3v0.7H-90z"/>
	<path class="st2" d="M-84,412.3c0.4,0.2,0.7,0.4,0.9,0.7c0.3,0.3,0.4,0.7,0.6,1.1c0.1,0.4,0.2,0.8,0.2,1.3s-0.1,0.9-0.2,1.3
		c-0.1,0.4-0.3,0.8-0.6,1.1c-0.3,0.3-0.6,0.5-0.9,0.7c-0.4,0.2-0.8,0.3-1.3,0.3c-0.5,0-0.9-0.1-1.3-0.3c-0.4-0.2-0.7-0.4-0.9-0.7
		c-0.3-0.3-0.4-0.7-0.6-1.1s-0.2-0.8-0.2-1.3s0.1-0.9,0.2-1.3s0.3-0.8,0.6-1.1c0.3-0.3,0.6-0.5,0.9-0.7c0.4-0.2,0.8-0.3,1.3-0.3
		C-84.8,412-84.4,412.1-84,412.3z M-86.2,412.9c-0.3,0.2-0.5,0.4-0.7,0.6s-0.3,0.5-0.4,0.9s-0.1,0.7-0.1,1c0,0.3,0,0.7,0.1,1
		s0.2,0.6,0.4,0.9c0.2,0.3,0.4,0.5,0.7,0.6c0.3,0.2,0.6,0.2,1,0.2c0.4,0,0.7-0.1,1-0.2c0.3-0.2,0.5-0.4,0.7-0.6
		c0.2-0.3,0.3-0.5,0.4-0.9s0.1-0.7,0.1-1c0-0.3,0-0.7-0.1-1s-0.2-0.6-0.4-0.9c-0.2-0.3-0.4-0.5-0.7-0.6s-0.6-0.2-1-0.2
		C-85.6,412.6-86,412.7-86.2,412.9z"/>
	<path class="st2" d="M-80.4,412.2v1.5h0c0.2-0.5,0.5-0.9,0.9-1.2c0.4-0.3,0.9-0.4,1.5-0.4v0.8c-0.4,0-0.7,0-1,0.1
		c-0.3,0.1-0.5,0.3-0.7,0.5c-0.2,0.2-0.4,0.5-0.5,0.7c-0.1,0.3-0.2,0.6-0.2,0.9v3.4h-0.8v-6.4H-80.4z"/>
	<path class="st2" d="M-76.5,412.2v1.1h0c0.2-0.4,0.5-0.7,0.8-0.9c0.3-0.2,0.8-0.3,1.3-0.3c0.4,0,0.8,0.1,1.1,0.3
		c0.3,0.2,0.6,0.5,0.7,0.9c0.2-0.4,0.5-0.7,0.8-0.9c0.4-0.2,0.8-0.3,1.2-0.3c1.4,0,2.1,0.7,2.1,2.2v4.3h-0.8v-4.3
		c0-0.5-0.1-0.9-0.3-1.2s-0.6-0.4-1.2-0.4c-0.3,0-0.6,0.1-0.8,0.2c-0.2,0.1-0.4,0.3-0.5,0.5c-0.1,0.2-0.2,0.5-0.3,0.7
		c-0.1,0.3-0.1,0.6-0.1,0.9v3.6h-0.8v-4.3c0-0.2,0-0.4-0.1-0.6c0-0.2-0.1-0.4-0.2-0.5c-0.1-0.1-0.2-0.3-0.4-0.3s-0.4-0.1-0.6-0.1
		c-0.3,0-0.6,0.1-0.9,0.2s-0.4,0.3-0.6,0.5c-0.2,0.2-0.3,0.5-0.3,0.7c-0.1,0.3-0.1,0.6-0.1,0.9v3.6h-0.8v-6.4H-76.5z"/>
	<path class="st2" d="M-62.3,412.8v5.7h-0.8v-5.7h-1.1v-0.7h1.1v-0.6c0-0.3,0-0.5,0.1-0.8c0-0.2,0.1-0.4,0.2-0.6
		c0.1-0.2,0.3-0.3,0.5-0.4s0.5-0.1,0.8-0.1c0.1,0,0.2,0,0.3,0c0.1,0,0.2,0,0.3,0v0.7c-0.1,0-0.2,0-0.3,0c-0.1,0-0.2,0-0.3,0
		c-0.2,0-0.4,0-0.5,0.1c-0.1,0.1-0.2,0.2-0.3,0.3s-0.1,0.2-0.1,0.4c0,0.1,0,0.3,0,0.5v0.6h1.3v0.7H-62.3z"/>
	<path class="st2" d="M-59.5,409.7v1.2h-0.8v-1.2H-59.5z M-59.5,412.2v6.4h-0.8v-6.4H-59.5z"/>
	<path class="st2" d="M-57.4,416.4c0.1,0.3,0.2,0.6,0.4,0.8c0.2,0.2,0.4,0.4,0.7,0.6c0.3,0.2,0.6,0.2,1,0.2c0.6,0,1-0.1,1.3-0.4
		c0.3-0.3,0.5-0.7,0.7-1.2h0.8c-0.2,0.7-0.5,1.3-0.9,1.7c-0.4,0.4-1.1,0.6-1.9,0.6c-0.5,0-0.9-0.1-1.3-0.3c-0.4-0.2-0.7-0.4-0.9-0.7
		s-0.4-0.7-0.5-1.1c-0.1-0.4-0.2-0.8-0.2-1.3c0-0.4,0.1-0.8,0.2-1.2c0.1-0.4,0.3-0.8,0.5-1.1c0.2-0.3,0.5-0.6,0.9-0.8
		c0.4-0.2,0.8-0.3,1.3-0.3c0.5,0,0.9,0.1,1.3,0.3c0.4,0.2,0.7,0.5,0.9,0.8c0.2,0.3,0.4,0.7,0.5,1.1c0.1,0.4,0.1,0.9,0.1,1.3h-4.9
		C-57.6,415.8-57.5,416.1-57.4,416.4z M-53.6,414.1c-0.1-0.3-0.2-0.5-0.4-0.7s-0.4-0.4-0.6-0.5c-0.2-0.1-0.5-0.2-0.8-0.2
		c-0.3,0-0.6,0.1-0.9,0.2c-0.2,0.1-0.5,0.3-0.6,0.5c-0.2,0.2-0.3,0.5-0.4,0.7c-0.1,0.3-0.2,0.6-0.2,0.8h4.1
		C-53.4,414.6-53.5,414.3-53.6,414.1z"/>
	<path class="st2" d="M-50.8,409.7v8.8h-0.8v-8.8H-50.8z"/>
	<path class="st2" d="M-44.4,418.5v-1.2h0c-0.1,0.2-0.2,0.4-0.4,0.6c-0.2,0.2-0.3,0.3-0.5,0.4c-0.2,0.1-0.4,0.2-0.7,0.3
		c-0.2,0.1-0.5,0.1-0.7,0.1c-0.5,0-0.9-0.1-1.3-0.3c-0.4-0.2-0.7-0.4-0.9-0.7c-0.2-0.3-0.4-0.7-0.5-1.1c-0.1-0.4-0.2-0.8-0.2-1.3
		c0-0.5,0.1-0.9,0.2-1.3c0.1-0.4,0.3-0.8,0.5-1.1c0.2-0.3,0.5-0.6,0.9-0.7c0.4-0.2,0.8-0.3,1.3-0.3c0.2,0,0.5,0,0.7,0.1
		c0.2,0.1,0.4,0.1,0.6,0.3c0.2,0.1,0.4,0.3,0.5,0.4c0.2,0.2,0.3,0.4,0.4,0.6h0v-3.7h0.8v8.8H-44.4z M-48.7,416.3
		c0.1,0.3,0.2,0.6,0.4,0.9s0.4,0.5,0.6,0.6c0.3,0.2,0.6,0.2,1,0.2c0.4,0,0.8-0.1,1-0.2c0.3-0.2,0.5-0.4,0.7-0.6s0.3-0.5,0.4-0.9
		s0.1-0.7,0.1-1s0-0.7-0.1-1s-0.2-0.6-0.4-0.9c-0.2-0.3-0.4-0.5-0.7-0.6c-0.3-0.2-0.6-0.2-1-0.2c-0.4,0-0.7,0.1-1,0.2
		c-0.3,0.2-0.5,0.4-0.6,0.6c-0.2,0.3-0.3,0.5-0.4,0.9s-0.1,0.7-0.1,1S-48.8,416-48.7,416.3z"/>
	<path class="st2" d="M-38.6,413.4c-0.1-0.2-0.2-0.3-0.4-0.4s-0.3-0.2-0.5-0.3s-0.4-0.1-0.6-0.1c-0.2,0-0.3,0-0.5,0.1
		c-0.2,0-0.3,0.1-0.5,0.2c-0.1,0.1-0.3,0.2-0.4,0.3c-0.1,0.1-0.1,0.3-0.1,0.5c0,0.2,0,0.3,0.1,0.4c0.1,0.1,0.2,0.2,0.3,0.3
		c0.1,0.1,0.3,0.2,0.4,0.2c0.2,0.1,0.3,0.1,0.4,0.1l1,0.2c0.2,0,0.4,0.1,0.7,0.2c0.2,0.1,0.4,0.2,0.6,0.3c0.2,0.1,0.3,0.3,0.4,0.5
		c0.1,0.2,0.2,0.4,0.2,0.7c0,0.3-0.1,0.6-0.2,0.9c-0.2,0.2-0.4,0.4-0.6,0.6c-0.2,0.2-0.5,0.3-0.8,0.3c-0.3,0.1-0.6,0.1-0.9,0.1
		c-0.7,0-1.4-0.2-1.8-0.5c-0.5-0.4-0.7-0.9-0.8-1.7h0.8c0,0.5,0.2,0.9,0.6,1.2s0.8,0.4,1.3,0.4c0.2,0,0.4,0,0.6-0.1
		c0.2,0,0.4-0.1,0.6-0.2c0.2-0.1,0.3-0.2,0.4-0.4c0.1-0.2,0.2-0.3,0.2-0.6c0-0.2,0-0.3-0.1-0.5c-0.1-0.1-0.2-0.2-0.3-0.3
		c-0.1-0.1-0.3-0.2-0.5-0.2c-0.2-0.1-0.3-0.1-0.5-0.1l-1-0.2c-0.3-0.1-0.5-0.1-0.7-0.2c-0.2-0.1-0.4-0.2-0.6-0.3
		c-0.2-0.1-0.3-0.3-0.4-0.5c-0.1-0.2-0.1-0.4-0.1-0.7c0-0.3,0.1-0.6,0.2-0.8c0.1-0.2,0.3-0.4,0.6-0.6c0.2-0.1,0.5-0.2,0.8-0.3
		c0.3-0.1,0.6-0.1,0.8-0.1c0.3,0,0.6,0,0.9,0.1c0.3,0.1,0.5,0.2,0.7,0.4s0.4,0.4,0.5,0.6c0.1,0.3,0.2,0.6,0.2,0.9h-0.8
		C-38.4,413.8-38.5,413.6-38.6,413.4z"/>
</g>
<path class="st1" d="M-107.5,347.7c-9.8,0-17.8,8-17.8,17.7c0,9.7,8,17.7,17.8,17.7s17.7-8,17.7-17.7
	C-89.8,355.6-97.7,347.7-107.5,347.7z M-107.5,379.6c-7.8,0-14.2-6.4-14.2-14.2c0-3.2,1.1-6.3,3-8.7l19.9,19.9
	C-101.2,378.5-104.2,379.6-107.5,379.6z M-96.3,374.1l-19.9-19.9c2.4-1.9,5.4-3,8.7-3c7.8,0,14.2,6.4,14.2,14.2
	C-93.2,368.7-94.4,371.7-96.3,374.1z"/>
</svg>
