<?xml version="1.0" encoding="utf-8"?>
<!-- Generator: Adobe Illustrator 19.1.0, SVG Export Plug-In . SVG Version: 6.00 Build 0)  -->
<svg version="1.1" id="Layer_1" xmlns="http://www.w3.org/2000/svg" xmlns:xlink="http://www.w3.org/1999/xlink" x="0px" y="0px"
	 viewBox="-467.7 1098.2 84.6 41.7" style="enable-background:new -467.7 1098.2 84.6 41.7;" xml:space="preserve">
<style type="text/css">
	.st0{enable-background:new    ;}
	.st1{fill:#377282;}
	.st2{fill:#74B3C1;}
	.st3{fill:#D8A31F;}
</style>
<g class="st0">
	<path class="st1" d="M-452.8,1129.6c0-0.4-0.1-0.7-0.4-1c-0.2-0.2-0.6-0.5-0.9-0.7c-0.4-0.2-0.8-0.4-1.2-0.6
		c-0.5-0.2-0.8-0.4-1.2-0.7c-0.4-0.2-0.7-0.6-0.9-0.9s-0.4-0.9-0.4-1.4c0-0.8,0.3-1.4,0.9-1.9c0.6-0.5,1.4-0.7,2.4-0.7
		c0.6,0,1.2,0,1.7,0.1c0.5,0.1,0.9,0.2,1.2,0.3l-0.4,1.1c-0.2-0.1-0.6-0.2-1-0.3c-0.5-0.1-0.9-0.2-1.5-0.2c-0.7,0-1.2,0.2-1.5,0.5
		c-0.3,0.3-0.5,0.7-0.5,1s0.1,0.7,0.4,1c0.2,0.2,0.6,0.5,0.9,0.7c0.4,0.2,0.8,0.4,1.2,0.6c0.5,0.2,0.8,0.4,1.2,0.7
		c0.4,0.2,0.7,0.6,0.9,0.9s0.4,0.8,0.4,1.4c0,0.5-0.1,0.9-0.2,1.2c-0.2,0.4-0.4,0.7-0.7,0.9c-0.3,0.2-0.7,0.5-1.1,0.6
		c-0.5,0.1-0.9,0.2-1.5,0.2c-0.7,0-1.4,0-1.9-0.2c-0.5-0.1-0.9-0.2-1.2-0.4l0.4-1.1c0.2,0.1,0.6,0.2,1,0.4s0.9,0.2,1.5,0.2
		c0.3,0,0.6,0,0.9-0.1c0.3-0.1,0.5-0.2,0.7-0.3c0.2-0.1,0.4-0.3,0.5-0.5C-452.9,1130.2-452.8,1129.9-452.8,1129.6z"/>
	<path class="st1" d="M-443.6,1121.8h1.2v7c0,0.6-0.1,1.2-0.2,1.6c-0.2,0.5-0.4,0.8-0.7,1.1c-0.3,0.3-0.7,0.5-1.1,0.7
		c-0.4,0.1-0.9,0.2-1.4,0.2c-1.2,0-2.1-0.3-2.8-0.8c-0.7-0.5-0.9-1.4-0.9-2.6v-7.2h1.2v6.6c0,0.5,0,1,0.2,1.3
		c0.1,0.4,0.2,0.7,0.5,0.9c0.2,0.2,0.5,0.4,0.8,0.5c0.3,0.1,0.7,0.2,1.1,0.2c0.8,0,1.4-0.2,1.7-0.7c0.3-0.5,0.5-1.2,0.5-2.2V1121.8z
		"/>
	<path class="st1" d="M-433.2,1131.9c-0.3,0.2-0.7,0.4-1.2,0.5c-0.5,0.1-0.9,0.1-1.4,0.1c-0.6,0-1.2-0.1-1.8-0.3
		c-0.5-0.2-1-0.5-1.4-1c-0.4-0.5-0.7-1-1-1.7c-0.2-0.7-0.4-1.5-0.4-2.4c0-1,0.1-1.8,0.4-2.5c0.2-0.7,0.6-1.2,1-1.7
		c0.4-0.5,0.9-0.7,1.4-0.9s1.1-0.3,1.7-0.3c0.6,0,1.1,0,1.4,0.1c0.4,0.1,0.7,0.2,1,0.2l-0.3,1.1c-0.5-0.2-1.2-0.4-2.1-0.4
		c-0.4,0-0.8,0.1-1.2,0.2c-0.4,0.2-0.7,0.4-1.1,0.7c-0.3,0.3-0.6,0.8-0.7,1.3c-0.2,0.5-0.3,1.2-0.3,2c0,0.7,0.1,1.4,0.3,1.9
		c0.2,0.5,0.4,1,0.7,1.4s0.7,0.6,1.1,0.8c0.4,0.2,0.9,0.3,1.4,0.3c0.5,0,0.8,0,1.2-0.1c0.3-0.1,0.6-0.2,0.8-0.3L-433.2,1131.9z"/>
	<path class="st1" d="M-425,1131.9c-0.3,0.2-0.7,0.4-1.2,0.5c-0.5,0.1-0.9,0.1-1.4,0.1c-0.6,0-1.2-0.1-1.8-0.3c-0.5-0.2-1-0.5-1.4-1
		c-0.4-0.5-0.7-1-1-1.7c-0.2-0.7-0.4-1.5-0.4-2.4c0-1,0.1-1.8,0.4-2.5c0.2-0.7,0.6-1.2,1-1.7c0.4-0.4,0.9-0.7,1.4-0.9
		c0.5-0.2,1.1-0.3,1.7-0.3c0.6,0,1.1,0,1.4,0.1c0.4,0,0.7,0.2,1,0.2l-0.3,1.1c-0.5-0.2-1.2-0.4-2.1-0.4c-0.4,0-0.8,0.1-1.2,0.2
		c-0.4,0.2-0.7,0.4-1.1,0.7c-0.3,0.3-0.6,0.8-0.7,1.3s-0.3,1.2-0.3,2c0,0.7,0.1,1.4,0.3,1.9c0.2,0.5,0.4,1,0.7,1.4
		c0.3,0.4,0.7,0.6,1.1,0.8c0.4,0.2,0.9,0.3,1.4,0.3c0.5,0,0.8,0,1.2-0.1c0.3-0.1,0.6-0.2,0.8-0.3L-425,1131.9z"/>
	<path class="st1" d="M-423.2,1121.8h5.7v1.1h-4.5v3.4h4.1v1.1h-4.1v3.7h4.5v1.1h-5.8V1121.8z"/>
	<path class="st1" d="M-410.5,1129.6c0-0.4-0.1-0.7-0.4-1c-0.2-0.2-0.6-0.5-0.9-0.7c-0.4-0.2-0.8-0.4-1.2-0.6
		c-0.5-0.2-0.8-0.4-1.2-0.7c-0.4-0.2-0.7-0.6-0.9-0.9c-0.2-0.4-0.4-0.9-0.4-1.4c0-0.8,0.3-1.4,0.9-1.9s1.4-0.7,2.4-0.7
		c0.6,0,1.2,0,1.7,0.1c0.5,0.1,0.9,0.2,1.2,0.3l-0.3,1.2c-0.2-0.1-0.6-0.2-1-0.3c-0.5-0.1-0.9-0.2-1.5-0.2c-0.7,0-1.2,0.2-1.5,0.5
		c-0.3,0.3-0.5,0.7-0.5,1s0.1,0.7,0.4,1c0.2,0.2,0.6,0.5,0.9,0.7c0.4,0.2,0.8,0.4,1.2,0.6c0.5,0.2,0.8,0.4,1.2,0.7
		c0.4,0.2,0.7,0.6,0.9,0.9c0.2,0.4,0.4,0.8,0.4,1.4c0,0.5-0.1,0.9-0.2,1.2c-0.2,0.4-0.4,0.7-0.7,0.9c-0.3,0.2-0.7,0.5-1.1,0.6
		c-0.5,0.1-0.9,0.2-1.5,0.2c-0.7,0-1.4,0-1.9-0.2c-0.5-0.1-0.9-0.2-1.2-0.4l0.4-1.1c0.2,0.1,0.6,0.2,1,0.4s0.9,0.2,1.5,0.2
		c0.3,0,0.6,0,0.9-0.1c0.3-0.1,0.5-0.2,0.7-0.3c0.2-0.1,0.4-0.3,0.5-0.5C-410.5,1130.2-410.5,1129.9-410.5,1129.6z"/>
	<path class="st1" d="M-402.5,1129.6c0-0.4-0.1-0.7-0.4-1c-0.2-0.3-0.6-0.5-0.9-0.7c-0.4-0.2-0.8-0.4-1.2-0.6
		c-0.5-0.2-0.8-0.4-1.2-0.7c-0.4-0.2-0.7-0.6-0.9-0.9c-0.2-0.4-0.4-0.9-0.4-1.4c0-0.8,0.3-1.4,0.9-1.9c0.6-0.5,1.4-0.7,2.4-0.7
		c0.6,0,1.2,0,1.7,0.1c0.5,0.1,0.9,0.2,1.2,0.3l-0.3,1.2c-0.2-0.1-0.6-0.2-1-0.3c-0.5-0.1-0.9-0.2-1.5-0.2c-0.7,0-1.2,0.2-1.5,0.5
		c-0.3,0.3-0.5,0.7-0.5,1s0.1,0.7,0.4,1c0.2,0.2,0.6,0.5,0.9,0.7c0.4,0.2,0.8,0.4,1.2,0.6c0.5,0.2,0.8,0.4,1.2,0.7
		c0.4,0.2,0.7,0.6,0.9,0.9c0.2,0.4,0.4,0.8,0.4,1.4c0,0.5-0.1,0.9-0.2,1.2c-0.2,0.3-0.4,0.7-0.7,0.9s-0.7,0.5-1.1,0.6
		c-0.5,0.1-0.9,0.2-1.5,0.2c-0.7,0-1.4,0-1.9-0.2c-0.5-0.1-0.9-0.2-1.2-0.4l0.4-1.1c0.2,0.1,0.6,0.2,1,0.4c0.5,0.1,0.9,0.2,1.5,0.2
		c0.3,0,0.6,0,0.9-0.1c0.3,0,0.5-0.2,0.7-0.3c0.2-0.1,0.4-0.3,0.5-0.5C-402.6,1130.2-402.5,1129.9-402.5,1129.6z"/>
	<path class="st1" d="M-398.9,1131.6c0-0.3,0.1-0.5,0.2-0.6c0.2-0.1,0.4-0.2,0.6-0.2c0.3,0,0.5,0.1,0.7,0.2c0.2,0.2,0.2,0.4,0.2,0.6
		s-0.1,0.5-0.2,0.6s-0.4,0.2-0.7,0.2c-0.2,0-0.5-0.1-0.6-0.2C-398.9,1132.1-398.9,1131.9-398.9,1131.6z M-398.7,1121.8h1.2v5.2
		l-0.2,2.6h-0.7l-0.2-2.6C-398.7,1127-398.7,1121.8-398.7,1121.8z"/>
	<path class="st1" d="M-394.4,1131.6c0-0.3,0.1-0.5,0.2-0.6c0.2-0.2,0.4-0.2,0.6-0.2c0.3,0,0.5,0.1,0.7,0.2c0.2,0.2,0.2,0.4,0.2,0.6
		s-0.1,0.5-0.2,0.6c-0.2,0.2-0.4,0.2-0.7,0.2c-0.2,0-0.5-0.1-0.6-0.2C-394.3,1132.1-394.4,1131.9-394.4,1131.6z M-394.1,1121.8h1.2
		v5.2l-0.2,2.6h-0.7l-0.2-2.6V1121.8L-394.1,1121.8z"/>
</g>
<g>
	<g>
		<g>
			<polygon class="st2" points="-429.2,1109.5 -430.1,1110.5 -426.8,1113.8 -420.7,1107.7 -421.6,1106.7 -426.8,1111.9 			"/>
		</g>
		<g>
			<path class="st2" d="M-418.8,1100.6h-3.6l0-0.3c0-0.5-0.4-0.9-0.9-0.9h-0.3c-0.3-0.7-1-1.2-1.7-1.2s-1.5,0.5-1.7,1.2h-0.3
				c-0.5,0-0.9,0.4-0.9,0.9v0.2h-3.6c-0.5,0-0.9,0.4-0.9,0.9v16.6c0,0.5,0.4,0.9,0.9,0.9h13.2c0.5,0,0.9-0.4,0.9-0.9v-16.6
				C-417.9,1101-418.3,1100.6-418.8,1100.6z M-427.2,1100.6h1.2v-0.7c0-0.3,0.3-0.6,0.6-0.6c0.3,0,0.6,0.3,0.6,0.6v0.7h1.3v1.2h-3.7
				L-427.2,1100.6L-427.2,1100.6z M-419.1,1117.7h-12.7v-15.9h3.3v0.3c0,0.5,0.4,0.9,0.9,0.9h4.1c0.4,0,0.9-0.3,0.9-0.9v-0.3h3.3
				L-419.1,1117.7L-419.1,1117.7z"/>
		</g>
	</g>
</g>
<g>
	<path class="st3" d="M-466.4,1138.3l-1.3-2.3h0.5l0.9,1.7l0.1,0.3l0,0l0.1-0.3l0.9-1.6h0.5l-1.3,2.3v1.5h-0.4L-466.4,1138.3
		L-466.4,1138.3z"/>
	<path class="st3" d="M-464.6,1137.9c0-0.7,0.1-1.2,0.4-1.5c0.3-0.3,0.7-0.5,1.2-0.5c0.3,0,0.5,0.1,0.7,0.2c0.2,0.1,0.4,0.2,0.5,0.4
		s0.2,0.4,0.3,0.6c0.1,0.2,0.1,0.5,0.1,0.8c0,0.7-0.1,1.2-0.4,1.5s-0.7,0.5-1.2,0.5c-0.3,0-0.5-0.1-0.7-0.2
		c-0.2-0.1-0.4-0.2-0.5-0.4c-0.1-0.2-0.2-0.4-0.3-0.6C-464.6,1138.4-464.6,1138.1-464.6,1137.9z M-464.1,1137.9c0,0.2,0,0.4,0.1,0.6
		s0.1,0.4,0.2,0.5c0.1,0.2,0.2,0.3,0.3,0.3c0.1,0.1,0.3,0.1,0.5,0.1c0.3,0,0.6-0.1,0.8-0.4c0.2-0.3,0.3-0.7,0.3-1.2
		c0-0.2,0-0.4-0.1-0.6c-0.1-0.2-0.1-0.4-0.2-0.5c-0.1-0.2-0.2-0.3-0.3-0.3c-0.1-0.1-0.3-0.1-0.5-0.1c-0.3,0-0.6,0.1-0.8,0.4
		C-464,1136.9-464.1,1137.3-464.1,1137.9z"/>
	<path class="st3" d="M-458.5,1135.9h0.4v2.6c0,0.2-0.1,0.4-0.1,0.6s-0.2,0.3-0.3,0.4s-0.2,0.2-0.4,0.2c-0.2,0.1-0.3,0.1-0.5,0.1
		c-0.4,0-0.8-0.1-1-0.3c-0.2-0.2-0.3-0.5-0.3-0.9v-2.6h0.4v2.4c0,0.2,0,0.4,0.1,0.5s0.1,0.2,0.2,0.3c0.1,0.1,0.2,0.2,0.3,0.2
		s0.3,0.1,0.4,0.1c0.3,0,0.5-0.1,0.7-0.2s0.2-0.4,0.2-0.8L-458.5,1135.9L-458.5,1135.9z"/>
	<path class="st3" d="M-453.3,1138h-1.9v1.8h-0.4v-3.8h0.4v1.6h1.9v-1.6h0.4v3.8h-0.4V1138z"/>
	<path class="st3" d="M-450.1,1138.7h-1.4l-0.4,1h-0.4l1.5-3.9h0.2l1.5,3.9h-0.5L-450.1,1138.7z M-451.3,1138.3h1.1l-0.4-1.2
		l-0.1-0.6l0,0l-0.1,0.6L-451.3,1138.3z"/>
	<path class="st3" d="M-447.9,1138.6l0.1,0.6l0,0l0.2-0.6l0.9-2.6h0.4l-1.5,3.9h-0.2l-1.5-3.9h0.5L-447.9,1138.6z"/>
	<path class="st3" d="M-445.8,1135.9h2.1v0.4h-1.6v1.3h1.5v0.4h-1.5v1.4h1.6v0.4h-2.1L-445.8,1135.9L-445.8,1135.9z"/>
	<path class="st3" d="M-438.5,1137.2l0.1-0.5l0,0l-0.2,0.5l-1,1.8h-0.1l-1-1.8l-0.2-0.5l0,0l0.1,0.5v2.6h-0.4v-3.8h0.3l1.2,2
		l0.2,0.4l0,0l0.2-0.4l1.2-2h0.3v3.8h-0.4L-438.5,1137.2L-438.5,1137.2z"/>
	<path class="st3" d="M-435.2,1138.7h-1.4l-0.4,1h-0.4l1.5-3.9h0.2l1.5,3.9h-0.5L-435.2,1138.7z M-436.5,1138.3h1.1l-0.4-1.2
		l-0.1-0.6l0,0l-0.1,0.6L-436.5,1138.3z"/>
	<path class="st3" d="M-433.9,1135.9c0.1,0,0.2,0,0.2,0c0.1,0,0.2,0,0.3,0c0.1,0,0.2,0,0.3,0s0.2,0,0.3,0c0.3,0,0.5,0.1,0.8,0.2
		c0.2,0.1,0.4,0.2,0.5,0.4c0.2,0.2,0.3,0.4,0.3,0.6c0.1,0.2,0.1,0.5,0.1,0.8s-0.1,0.5-0.1,0.8c-0.1,0.2-0.2,0.4-0.3,0.7
		c-0.2,0.2-0.3,0.3-0.5,0.4c-0.2,0.1-0.5,0.2-0.8,0.2c-0.1,0-0.1,0-0.2,0s-0.2,0-0.3,0c-0.1,0-0.2,0-0.3,0c-0.1,0-0.2,0-0.2,0v-4
		H-433.9z M-432.8,1136.3c-0.1,0-0.1,0-0.2,0s-0.1,0-0.2,0s-0.1,0-0.2,0s-0.1,0-0.1,0v3.1c0,0,0.1,0,0.1,0s0.1,0,0.2,0s0.1,0,0.2,0
		s0.1,0,0.1,0c0.3,0,0.5-0.1,0.7-0.1c0.2-0.1,0.3-0.2,0.4-0.3c0.1-0.2,0.2-0.3,0.2-0.5c0.1-0.2,0.1-0.4,0.1-0.6c0-0.2,0-0.4-0.1-0.5
		c-0.1-0.2-0.1-0.3-0.2-0.5c-0.1-0.2-0.2-0.3-0.4-0.4C-432.4,1136.3-432.6,1136.3-432.8,1136.3z"/>
	<path class="st3" d="M-430.3,1135.9h2.1v0.4h-1.6v1.3h1.5v0.4h-1.5v1.4h1.6v0.4h-2.1L-430.3,1135.9L-430.3,1135.9z"/>
	<path class="st3" d="M-424.2,1138.7h-1.4l-0.4,1h-0.4l1.5-3.9h0.2l1.5,3.9h-0.5L-424.2,1138.7z M-425.5,1138.3h1.1l-0.4-1.2
		l-0.1-0.6l0,0l-0.1,0.6L-425.5,1138.3z"/>
	<path class="st3" d="M-422.1,1137.3l-0.3-0.5l0,0l0.1,0.5v2.5h-0.4v-3.9h0.2l1.8,2.6l0.3,0.5l0,0l-0.1-0.5v-2.5h0.4v3.9h-0.2
		L-422.1,1137.3z"/>
	<path class="st3" d="M-416,1138.7h-1.4l-0.4,1h-0.4l1.5-3.9h0.2l1.5,3.9h-0.5L-416,1138.7z M-417.3,1138.3h1.1l-0.4-1.2l-0.1-0.6
		l0,0l-0.1,0.6L-417.3,1138.3z"/>
	<path class="st3" d="M-414.6,1136c0.2-0.1,0.3-0.1,0.4-0.1c0.2,0,0.3,0,0.5,0c0.2,0,0.3,0,0.5,0.1c0.2,0.1,0.3,0.1,0.5,0.2
		c0.2,0.1,0.3,0.2,0.3,0.4c0.1,0.2,0.1,0.3,0.1,0.6c0,0.2-0.1,0.4-0.1,0.6c-0.1,0.2-0.2,0.3-0.3,0.4c-0.2,0.1-0.3,0.2-0.5,0.2
		c-0.2,0.1-0.4,0.1-0.5,0.1c0,0-0.1,0-0.1,0s-0.1,0-0.1,0c-0.1,0-0.1,0-0.1,0c-0.1,0-0.1,0-0.1,0v1.5h-0.4V1136z M-413.7,1136.3
		c-0.1,0-0.2,0-0.3,0c-0.1,0-0.2,0-0.2,0.1v1.6c0,0,0.1,0,0.1,0s0.1,0,0.1,0c0.1,0,0.1,0,0.1,0s0.1,0,0.1,0c0.1,0,0.3,0,0.4-0.1
		c0.1,0,0.2-0.1,0.3-0.1s0.2-0.2,0.2-0.3s0.1-0.3,0.1-0.4s-0.1-0.3-0.1-0.4s-0.1-0.2-0.2-0.2c-0.1-0.1-0.2-0.1-0.3-0.1
		C-413.4,1136.3-413.5,1136.3-413.7,1136.3z"/>
	<path class="st3" d="M-411.6,1136c0.2-0.1,0.3-0.1,0.4-0.1c0.2,0,0.3,0,0.5,0c0.2,0,0.3,0,0.5,0.1c0.2,0.1,0.3,0.1,0.5,0.2
		c0.2,0.1,0.3,0.2,0.3,0.4c0.1,0.2,0.1,0.3,0.1,0.6c0,0.2-0.1,0.4-0.1,0.6c-0.1,0.2-0.2,0.3-0.3,0.4c-0.2,0.1-0.3,0.2-0.5,0.2
		c-0.2,0.1-0.4,0.1-0.5,0.1c0,0-0.1,0-0.1,0s-0.1,0-0.1,0c-0.1,0-0.1,0-0.1,0c-0.1,0-0.1,0-0.1,0v1.5h-0.4V1136z M-410.6,1136.3
		c-0.1,0-0.2,0-0.3,0c-0.1,0-0.2,0-0.2,0.1v1.6c0,0,0.1,0,0.1,0s0.1,0,0.1,0c0.1,0,0.1,0,0.1,0s0.1,0,0.1,0c0.1,0,0.3,0,0.4-0.1
		c0.1,0,0.2-0.1,0.3-0.1c0.1-0.1,0.2-0.2,0.2-0.3s0.1-0.3,0.1-0.4s-0.1-0.3-0.1-0.4s-0.1-0.2-0.2-0.2c-0.1-0.1-0.2-0.1-0.3-0.1
		C-410.4,1136.3-410.5,1136.3-410.6,1136.3z"/>
	<path class="st3" d="M-408.7,1137.9c0-0.7,0.1-1.2,0.4-1.5c0.3-0.3,0.7-0.5,1.2-0.5c0.3,0,0.5,0.1,0.7,0.2c0.2,0.1,0.4,0.2,0.5,0.4
		s0.2,0.4,0.3,0.6c0.1,0.2,0.1,0.5,0.1,0.8c0,0.7-0.1,1.2-0.4,1.5c-0.3,0.3-0.7,0.5-1.2,0.5c-0.3,0-0.5-0.1-0.7-0.2
		c-0.2-0.1-0.4-0.2-0.5-0.4s-0.2-0.4-0.3-0.6C-408.7,1138.4-408.7,1138.1-408.7,1137.9z M-408.3,1137.9c0,0.2,0,0.4,0.1,0.6
		s0.1,0.4,0.2,0.5c0.1,0.2,0.2,0.3,0.3,0.3c0.1,0.1,0.3,0.1,0.5,0.1c0.3,0,0.6-0.1,0.8-0.4s0.3-0.7,0.3-1.2c0-0.2,0-0.4-0.1-0.6
		c-0.1-0.2-0.1-0.4-0.2-0.5c-0.1-0.2-0.2-0.3-0.3-0.3c-0.1-0.1-0.3-0.1-0.5-0.1c-0.3,0-0.6,0.1-0.8,0.4
		C-408.2,1136.9-408.3,1137.3-408.3,1137.9z"/>
	<path class="st3" d="M-404.7,1135.9h0.4v3.8h-0.4V1135.9z"/>
	<path class="st3" d="M-402.5,1137.3l-0.3-0.5l0,0l0.1,0.5v2.5h-0.4v-3.9h0.2l1.8,2.6l0.3,0.5l0,0l-0.1-0.5v-2.5h0.4v3.9h-0.2
		L-402.5,1137.3z"/>
	<path class="st3" d="M-397.1,1136.3h-1.2v3.5h-0.4v-3.5h-1.2v-0.4h2.9V1136.3z"/>
	<path class="st3" d="M-393.5,1137.2l0.1-0.5l0,0l-0.2,0.5l-1,1.8h-0.1l-1-1.8l-0.2-0.5l0,0l0.1,0.5v2.6h-0.4v-3.8h0.3l1.2,2
		l0.2,0.4l0,0l0.2-0.4l1.2-2h0.3v3.8h-0.4L-393.5,1137.2L-393.5,1137.2z"/>
	<path class="st3" d="M-392.1,1135.9h2.1v0.4h-1.6v1.3h1.5v0.4h-1.5v1.4h1.6v0.4h-2.1L-392.1,1135.9L-392.1,1135.9z"/>
	<path class="st3" d="M-388.5,1137.3l-0.3-0.5l0,0l0.1,0.5v2.5h-0.4v-3.9h0.2l1.8,2.6l0.3,0.5l0,0l-0.1-0.5v-2.5h0.4v3.9h-0.2
		L-388.5,1137.3z"/>
	<path class="st3" d="M-383,1136.3h-1.2v3.5h-0.4v-3.5h-1.2v-0.4h2.9V1136.3z"/>
</g>
</svg>
