<?xml version="1.0" encoding="utf-8"?>
<!-- Generator: Adobe Illustrator 19.1.0, SVG Export Plug-In . SVG Version: 6.00 Build 0)  -->
<svg version="1.1" id="Layer_1" xmlns="http://www.w3.org/2000/svg" xmlns:xlink="http://www.w3.org/1999/xlink" x="0px" y="0px"
	 viewBox="-314.4 689.8 158.6 110.4" style="enable-background:new -314.4 689.8 158.6 110.4;" xml:space="preserve">
<style type="text/css">
	.st0{enable-background:new    ;}
	.st1{fill:#377282;}
	.st2{fill:#74B3C1;}
	.st3{fill:#D8A31F;}
</style>
<g class="st0">
	<path class="st1" d="M-301.6,778.1c0-1-0.3-1.8-0.9-2.5c-0.6-0.6-1.4-1.2-2.3-1.7s-1.9-1-3-1.4c-1.1-0.4-2-1-3-1.6
		c-0.9-0.6-1.7-1.4-2.3-2.3c-0.6-0.9-0.9-2.1-0.9-3.5c0-2,0.7-3.5,2.1-4.7c1.4-1.2,3.3-1.7,5.9-1.7c1.5,0,2.8,0.1,4,0.3
		c1.2,0.2,2.1,0.5,2.8,0.8l-0.9,2.7c-0.6-0.3-1.4-0.5-2.4-0.8c-1.1-0.2-2.3-0.4-3.6-0.4c-1.6,0-2.8,0.4-3.6,1.1s-1.2,1.6-1.2,2.5
		s0.3,1.7,0.9,2.4c0.6,0.6,1.4,1.2,2.3,1.7c0.9,0.5,1.9,1,3,1.5c1.1,0.5,2,1,3,1.7c0.9,0.6,1.7,1.4,2.3,2.3c0.6,0.9,0.9,2,0.9,3.3
		c0,1.1-0.2,2.1-0.6,2.9c-0.4,0.9-1,1.6-1.7,2.2c-0.7,0.6-1.7,1.1-2.7,1.4c-1.1,0.3-2.3,0.5-3.6,0.5c-1.8,0-3.3-0.1-4.5-0.4
		c-1.2-0.3-2.1-0.6-2.8-0.9l1-2.7c0.6,0.3,1.4,0.6,2.5,0.9s2.3,0.4,3.7,0.4c0.8,0,1.5-0.1,2.2-0.2c0.7-0.2,1.3-0.4,1.8-0.8
		c0.5-0.3,0.9-0.8,1.2-1.3C-301.8,779.4-301.6,778.8-301.6,778.1z"/>
	<path class="st1" d="M-279.3,759.2h2.9v16.9c0,1.5-0.2,2.8-0.6,3.9c-0.4,1.1-1,2-1.7,2.7c-0.7,0.7-1.6,1.2-2.7,1.6
		c-1,0.3-2.2,0.5-3.4,0.5c-3,0-5.2-0.7-6.8-2c-1.6-1.3-2.3-3.4-2.3-6.2v-17.5h3v16.1c0,1.3,0.1,2.4,0.4,3.2c0.3,0.9,0.6,1.6,1.1,2.1
		s1.1,0.9,1.9,1.2c0.8,0.2,1.6,0.4,2.7,0.4c2,0,3.4-0.5,4.2-1.6c0.8-1.1,1.3-2.8,1.3-5.3V759.2z"/>
	<path class="st1" d="M-254,783.5c-0.7,0.6-1.6,0.9-2.8,1.2c-1.1,0.2-2.3,0.3-3.5,0.3c-1.5,0-2.9-0.3-4.3-0.8
		c-1.3-0.5-2.5-1.3-3.5-2.4s-1.8-2.4-2.4-4.1c-0.6-1.7-0.9-3.6-0.9-5.9c0-2.4,0.3-4.4,1-6c0.6-1.7,1.5-3,2.5-4.1
		c1-1.1,2.2-1.8,3.5-2.3c1.3-0.5,2.6-0.7,4-0.7c1.4,0,2.6,0.1,3.5,0.2c0.9,0.2,1.7,0.4,2.4,0.6l-0.7,2.7c-1.2-0.6-2.8-0.9-5-0.9
		c-1,0-2,0.2-2.9,0.5c-1,0.4-1.8,1-2.6,1.8c-0.8,0.8-1.4,1.9-1.8,3.2c-0.5,1.3-0.7,3-0.7,4.9c0,1.7,0.2,3.3,0.7,4.6
		c0.4,1.3,1,2.4,1.8,3.3c0.8,0.9,1.7,1.5,2.7,2c1,0.4,2.1,0.7,3.3,0.7c1.1,0,2-0.1,2.8-0.3c0.8-0.2,1.5-0.5,2-0.8L-254,783.5z"/>
	<path class="st1" d="M-234.3,783.5c-0.7,0.6-1.6,0.9-2.8,1.2c-1.1,0.2-2.3,0.3-3.5,0.3c-1.5,0-2.9-0.3-4.3-0.8
		c-1.3-0.5-2.5-1.3-3.5-2.4s-1.8-2.4-2.4-4.1c-0.6-1.7-0.9-3.6-0.9-5.9c0-2.4,0.3-4.4,1-6c0.6-1.7,1.5-3,2.5-4.1
		c1-1,2.2-1.8,3.5-2.3s2.6-0.7,4-0.7s2.6,0.1,3.5,0.2c0.9,0.1,1.7,0.4,2.4,0.6l-0.7,2.7c-1.2-0.6-2.8-0.9-5-0.9c-1,0-2,0.2-2.9,0.5
		c-1,0.4-1.8,1-2.6,1.8c-0.8,0.8-1.4,1.9-1.8,3.2c-0.4,1.3-0.7,3-0.7,4.9c0,1.7,0.2,3.3,0.7,4.6c0.4,1.3,1,2.4,1.8,3.3
		c0.8,0.9,1.7,1.5,2.7,2c1,0.4,2.1,0.7,3.3,0.7c1.1,0,2-0.1,2.8-0.3c0.8-0.2,1.5-0.5,2-0.8L-234.3,783.5z"/>
	<path class="st1" d="M-229.8,759.2h13.8v2.7h-10.8v8.3h9.9v2.7h-9.9v9h11v2.7h-14V759.2z"/>
	<path class="st1" d="M-199,778.1c0-1-0.3-1.8-0.9-2.5c-0.6-0.6-1.4-1.2-2.3-1.7c-0.9-0.5-1.9-1-3-1.4c-1.1-0.4-2-1-3-1.6
		s-1.7-1.4-2.3-2.3c-0.6-0.9-0.9-2.1-0.9-3.5c0-2,0.7-3.5,2.1-4.7c1.4-1.2,3.3-1.7,5.9-1.7c1.5,0,2.8,0.1,4,0.3s2.1,0.5,2.8,0.8
		l-0.8,2.8c-0.6-0.3-1.4-0.5-2.4-0.8c-1.1-0.2-2.3-0.4-3.6-0.4c-1.6,0-2.8,0.4-3.6,1.1c-0.8,0.7-1.2,1.6-1.2,2.5s0.3,1.7,0.9,2.4
		c0.6,0.6,1.4,1.2,2.3,1.7c0.9,0.5,1.9,1,3,1.5c1.1,0.5,2,1,3,1.7c0.9,0.6,1.7,1.4,2.3,2.3c0.6,0.9,0.9,2,0.9,3.3
		c0,1.1-0.2,2.1-0.6,2.9c-0.4,0.9-1,1.6-1.7,2.2c-0.7,0.6-1.7,1.1-2.7,1.4c-1.1,0.3-2.3,0.5-3.6,0.5c-1.8,0-3.3-0.1-4.5-0.4
		c-1.2-0.3-2.1-0.6-2.8-0.9l1-2.7c0.6,0.3,1.4,0.6,2.5,0.9s2.3,0.4,3.7,0.4c0.8,0,1.5-0.1,2.2-0.2c0.7-0.2,1.3-0.4,1.8-0.8
		c0.5-0.3,0.9-0.8,1.2-1.3C-199.2,779.4-199,778.8-199,778.1z"/>
	<path class="st1" d="M-179.8,778.1c0-1-0.3-1.8-0.9-2.5c-0.6-0.7-1.4-1.2-2.3-1.7c-0.9-0.5-1.9-1-3-1.4c-1.1-0.4-2-1-3-1.6
		c-0.9-0.6-1.7-1.4-2.3-2.3c-0.6-0.9-0.9-2.1-0.9-3.5c0-2,0.7-3.5,2.1-4.7c1.4-1.2,3.3-1.7,5.9-1.7c1.5,0,2.8,0.1,4,0.3
		s2.1,0.5,2.8,0.8l-0.8,2.8c-0.6-0.3-1.4-0.5-2.4-0.8c-1.1-0.2-2.3-0.4-3.6-0.4c-1.6,0-2.8,0.4-3.6,1.1c-0.8,0.7-1.2,1.6-1.2,2.5
		s0.3,1.7,0.9,2.4c0.6,0.6,1.4,1.2,2.3,1.7c0.9,0.5,1.9,1,3,1.5c1.1,0.5,2,1,3,1.7c0.9,0.6,1.7,1.4,2.3,2.3c0.6,0.9,0.9,2,0.9,3.3
		c0,1.1-0.2,2.1-0.6,2.9c-0.4,0.8-1,1.6-1.7,2.2s-1.7,1.1-2.7,1.4c-1.1,0.3-2.3,0.5-3.6,0.5c-1.8,0-3.3-0.1-4.5-0.4
		s-2.1-0.6-2.8-0.9l1-2.7c0.6,0.3,1.4,0.6,2.5,0.9c1.1,0.3,2.3,0.4,3.7,0.4c0.8,0,1.5-0.1,2.2-0.2c0.7-0.1,1.3-0.4,1.8-0.8
		c0.5-0.3,0.9-0.8,1.2-1.3C-179.9,779.4-179.8,778.8-179.8,778.1z"/>
	<path class="st1" d="M-171.1,782.9c0-0.7,0.2-1.2,0.6-1.5c0.4-0.3,0.9-0.6,1.5-0.6c0.7,0,1.2,0.2,1.6,0.6s0.6,0.9,0.6,1.5
		s-0.2,1.1-0.6,1.5s-0.9,0.6-1.6,0.6c-0.6,0-1.1-0.2-1.5-0.6C-170.9,784-171.1,783.5-171.1,782.9z M-170.5,759.2h3v12.6l-0.6,6.4
		h-1.8l-0.6-6.4C-170.5,771.8-170.5,759.2-170.5,759.2z"/>
	<path class="st1" d="M-160.1,782.9c0-0.7,0.2-1.2,0.6-1.5c0.4-0.4,0.9-0.6,1.5-0.6c0.7,0,1.2,0.2,1.6,0.6s0.6,0.9,0.6,1.5
		s-0.2,1.1-0.6,1.5s-0.9,0.6-1.6,0.6c-0.6,0-1.1-0.2-1.5-0.6C-159.9,784-160.1,783.5-160.1,782.9z M-159.4,759.2h3v12.6l-0.6,6.4
		h-1.8l-0.6-6.4V759.2z"/>
</g>
<g>
	<g>
		<g>
			<polygon class="st2" points="-246,722.4 -248.8,725.1 -239.2,734.7 -221.6,717.2 -224.4,714.4 -239.2,729.2 			"/>
		</g>
		<g>
			<path class="st2" d="M-216.2,696.7h-10.3l-0.1-0.8c0-1.5-1.2-2.6-2.6-2.6h-1c-0.8-2-2.8-3.5-5-3.5c-2.2,0-4.2,1.5-4.9,3.5h-1
				c-1.5,0-2.6,1.2-2.6,2.6v0.7h-10.4c-1.5,0-2.6,1.1-2.6,2.6v47.6c0,1.4,1.2,2.5,2.6,2.5h38c1.5,0,2.6-1.1,2.6-2.5v-47.6
				C-213.6,698-214.7,696.7-216.2,696.7z M-240.5,696.7h3.5v-2c0-0.9,0.8-1.8,1.8-1.8c0.9,0,1.8,0.8,1.8,1.8v2h3.7v3.4h-10.7
				L-240.5,696.7L-240.5,696.7z M-217,746h-36.4v-45.7h9.6v0.8c0,1.5,1.2,2.6,2.6,2.6h11.9c1.2,0,2.6-0.9,2.6-2.6v-0.9h9.5L-217,746
				L-217,746z"/>
		</g>
	</g>
</g>
<g>
	<path class="st3" d="M-309.8,797.3l-2.3-4.2h1l1.6,3.1l0.2,0.6h0l0.2-0.6l1.6-3h0.9l-2.3,4.2v2.8h-0.8V797.3z"/>
	<path class="st3" d="M-306.5,796.6c0-1.2,0.2-2.1,0.7-2.7c0.5-0.6,1.2-0.9,2.1-0.9c0.5,0,0.9,0.1,1.3,0.3c0.4,0.2,0.7,0.4,0.9,0.7
		s0.4,0.7,0.5,1.1c0.1,0.4,0.2,0.9,0.2,1.5c0,1.2-0.2,2.1-0.7,2.7c-0.5,0.6-1.2,0.9-2.1,0.9c-0.5,0-0.9-0.1-1.3-0.3
		c-0.4-0.2-0.7-0.4-0.9-0.7s-0.4-0.7-0.5-1.1C-306.5,797.6-306.5,797.1-306.5,796.6z M-305.6,796.6c0,0.4,0,0.8,0.1,1.1
		c0.1,0.3,0.2,0.7,0.4,0.9c0.2,0.3,0.4,0.5,0.6,0.6c0.2,0.2,0.5,0.2,0.9,0.2c0.6,0,1.1-0.2,1.5-0.7s0.5-1.2,0.5-2.2
		c0-0.4,0-0.7-0.1-1.1c-0.1-0.3-0.2-0.7-0.4-0.9c-0.2-0.3-0.4-0.5-0.6-0.6c-0.2-0.2-0.5-0.2-0.9-0.2c-0.6,0-1.1,0.2-1.4,0.7
		C-305.5,794.9-305.6,795.6-305.6,796.6z"/>
	<path class="st3" d="M-295.4,793.1h0.8v4.7c0,0.4-0.1,0.8-0.2,1.1s-0.3,0.6-0.5,0.8c-0.2,0.2-0.4,0.3-0.7,0.4
		c-0.3,0.1-0.6,0.1-1,0.1c-0.8,0-1.4-0.2-1.9-0.6c-0.4-0.4-0.6-0.9-0.6-1.7v-4.8h0.8v4.4c0,0.4,0,0.7,0.1,0.9s0.2,0.4,0.3,0.6
		c0.1,0.2,0.3,0.3,0.5,0.3s0.5,0.1,0.7,0.1c0.5,0,0.9-0.1,1.2-0.4s0.4-0.8,0.4-1.5V793.1z"/>
	<path class="st3" d="M-286,796.9h-3.4v3.2h-0.8v-7h0.8v3h3.4v-3h0.8v7h-0.8V796.9z"/>
	<path class="st3" d="M-280.1,798.2h-2.6l-0.7,1.9h-0.8l2.7-7.1h0.4l2.7,7.1h-0.9L-280.1,798.2z M-282.4,797.4h2l-0.8-2.1l-0.2-1.1
		h0l-0.2,1.1L-282.4,797.4z"/>
	<path class="st3" d="M-276.2,797.9l0.2,1.1h0l0.3-1.1l1.7-4.8h0.8l-2.7,7.1h-0.4l-2.7-7.1h0.9L-276.2,797.9z"/>
	<path class="st3" d="M-272.4,793.1h3.8v0.7h-3v2.3h2.7v0.7h-2.7v2.5h3v0.7h-3.9V793.1z"/>
	<path class="st3" d="M-259,795.4l0.1-1h0l-0.4,1l-1.8,3.2h-0.2l-1.9-3.2l-0.4-1h0l0.1,1v4.7h-0.8v-7h0.6l2.2,3.6l0.3,0.8h0l0.3-0.8
		l2.1-3.6h0.6v7h-0.8V795.4z"/>
	<path class="st3" d="M-253.1,798.2h-2.6l-0.7,1.9h-0.8l2.7-7.1h0.4l2.7,7.1h-0.9L-253.1,798.2z M-255.4,797.4h2l-0.8-2.1l-0.2-1.1
		h0l-0.2,1.1L-255.4,797.4z"/>
	<path class="st3" d="M-250.6,793.1c0.1,0,0.3,0,0.4,0c0.2,0,0.3,0,0.5,0c0.2,0,0.3,0,0.5,0c0.2,0,0.3,0,0.5,0c0.6,0,1,0.1,1.5,0.3
		c0.4,0.2,0.7,0.4,1,0.7c0.3,0.3,0.5,0.7,0.6,1.1c0.1,0.4,0.2,0.9,0.2,1.4c0,0.5-0.1,0.9-0.2,1.4c-0.1,0.4-0.3,0.8-0.6,1.2
		c-0.3,0.3-0.6,0.6-1,0.8s-0.9,0.3-1.5,0.3c-0.1,0-0.2,0-0.4,0s-0.3,0-0.5,0c-0.2,0-0.3,0-0.5,0s-0.3,0-0.3,0V793.1z M-248.7,793.8
		c-0.1,0-0.2,0-0.3,0s-0.2,0-0.3,0c-0.1,0-0.2,0-0.3,0c-0.1,0-0.1,0-0.2,0v5.6c0,0,0.1,0,0.2,0c0.1,0,0.2,0,0.3,0c0.1,0,0.2,0,0.3,0
		c0.1,0,0.2,0,0.2,0c0.5,0,0.9-0.1,1.2-0.2c0.3-0.2,0.6-0.4,0.8-0.6c0.2-0.3,0.3-0.6,0.4-0.9c0.1-0.4,0.1-0.7,0.1-1.1
		c0-0.3,0-0.7-0.1-1s-0.2-0.6-0.4-0.9c-0.2-0.3-0.4-0.5-0.7-0.7C-247.9,793.8-248.2,793.8-248.7,793.8z"/>
	<path class="st3" d="M-244.1,793.1h3.8v0.7h-3v2.3h2.7v0.7h-2.7v2.5h3v0.7h-3.9V793.1z"/>
	<path class="st3" d="M-233,798.2h-2.6l-0.7,1.9h-0.8l2.7-7.1h0.4l2.7,7.1h-0.9L-233,798.2z M-235.3,797.4h2l-0.8-2.1l-0.2-1.1h0
		l-0.2,1.1L-235.3,797.4z"/>
	<path class="st3" d="M-229.2,795.5l-0.5-1h0l0.1,1v4.6h-0.8V793h0.4l3.3,4.7l0.5,1h0l-0.1-1v-4.6h0.8v7.1h-0.4L-229.2,795.5z"/>
	<path class="st3" d="M-218.1,798.2h-2.6l-0.7,1.9h-0.8l2.7-7.1h0.4l2.7,7.1h-0.9L-218.1,798.2z M-220.4,797.4h2l-0.8-2.1l-0.2-1.1
		h0l-0.2,1.1L-220.4,797.4z"/>
	<path class="st3" d="M-215.6,793.2c0.3-0.1,0.5-0.1,0.8-0.1c0.3,0,0.6,0,0.9,0c0.3,0,0.6,0,0.9,0.1c0.3,0.1,0.6,0.2,0.9,0.3
		s0.5,0.4,0.6,0.7c0.2,0.3,0.2,0.6,0.2,1.1c0,0.4-0.1,0.8-0.2,1.1c-0.2,0.3-0.4,0.5-0.6,0.7c-0.3,0.2-0.5,0.3-0.9,0.4
		c-0.3,0.1-0.7,0.1-1,0.1c0,0-0.1,0-0.2,0c-0.1,0-0.2,0-0.2,0c-0.1,0-0.2,0-0.2,0c-0.1,0-0.1,0-0.2,0v2.7h-0.8V793.2z M-213.9,793.7
		c-0.2,0-0.3,0-0.5,0c-0.2,0-0.3,0-0.4,0.1v2.9c0,0,0.1,0,0.2,0c0.1,0,0.2,0,0.2,0c0.1,0,0.2,0,0.2,0s0.1,0,0.2,0
		c0.2,0,0.5,0,0.7-0.1c0.2,0,0.4-0.1,0.6-0.2c0.2-0.1,0.3-0.3,0.4-0.5c0.1-0.2,0.2-0.5,0.2-0.8c0-0.3-0.1-0.5-0.2-0.7
		c-0.1-0.2-0.2-0.3-0.4-0.4c-0.2-0.1-0.4-0.2-0.6-0.2C-213.4,793.8-213.6,793.7-213.9,793.7z"/>
	<path class="st3" d="M-210,793.2c0.3-0.1,0.5-0.1,0.8-0.1c0.3,0,0.6,0,0.9,0c0.3,0,0.6,0,0.9,0.1c0.3,0.1,0.6,0.2,0.9,0.3
		s0.5,0.4,0.6,0.7c0.2,0.3,0.2,0.6,0.2,1.1c0,0.4-0.1,0.8-0.2,1.1c-0.2,0.3-0.4,0.5-0.6,0.7c-0.3,0.2-0.5,0.3-0.9,0.4
		c-0.3,0.1-0.7,0.1-1,0.1c0,0-0.1,0-0.2,0c-0.1,0-0.2,0-0.2,0c-0.1,0-0.2,0-0.2,0c-0.1,0-0.1,0-0.2,0v2.7h-0.8V793.2z M-208.3,793.7
		c-0.2,0-0.3,0-0.5,0c-0.2,0-0.3,0-0.4,0.1v2.9c0,0,0.1,0,0.2,0c0.1,0,0.2,0,0.2,0c0.1,0,0.2,0,0.2,0s0.1,0,0.2,0
		c0.2,0,0.5,0,0.7-0.1c0.2,0,0.4-0.1,0.6-0.2c0.2-0.1,0.3-0.3,0.4-0.5c0.1-0.2,0.2-0.5,0.2-0.8c0-0.3-0.1-0.5-0.2-0.7
		c-0.1-0.2-0.2-0.3-0.4-0.4c-0.2-0.1-0.4-0.2-0.6-0.2C-207.8,793.8-208.1,793.7-208.3,793.7z"/>
	<path class="st3" d="M-204.8,796.6c0-1.2,0.2-2.1,0.7-2.7c0.5-0.6,1.2-0.9,2.1-0.9c0.5,0,0.9,0.1,1.3,0.3c0.4,0.2,0.7,0.4,0.9,0.7
		s0.4,0.7,0.5,1.1c0.1,0.4,0.2,0.9,0.2,1.5c0,1.2-0.2,2.1-0.7,2.7c-0.5,0.6-1.2,0.9-2.1,0.9c-0.5,0-0.9-0.1-1.3-0.3
		c-0.4-0.2-0.7-0.4-0.9-0.7s-0.4-0.7-0.5-1.1C-204.8,797.6-204.8,797.1-204.8,796.6z M-204,796.6c0,0.4,0,0.8,0.1,1.1
		c0.1,0.3,0.2,0.7,0.4,0.9c0.2,0.3,0.4,0.5,0.6,0.6c0.2,0.2,0.5,0.2,0.9,0.2c0.6,0,1.1-0.2,1.5-0.7s0.5-1.2,0.5-2.2
		c0-0.4,0-0.7-0.1-1.1c-0.1-0.3-0.2-0.7-0.4-0.9c-0.2-0.3-0.4-0.5-0.6-0.6c-0.2-0.2-0.5-0.2-0.9-0.2c-0.6,0-1.1,0.2-1.4,0.7
		C-203.8,794.9-204,795.6-204,796.6z"/>
	<path class="st3" d="M-197.5,793.1h0.8v7h-0.8V793.1z"/>
	<path class="st3" d="M-193.5,795.5l-0.5-1h0l0.1,1v4.6h-0.8V793h0.4l3.3,4.7l0.5,1h0l-0.1-1v-4.6h0.8v7.1h-0.4L-193.5,795.5z"/>
	<path class="st3" d="M-183.6,793.8h-2.2v6.3h-0.8v-6.3h-2.2v-0.7h5.2V793.8z"/>
	<path class="st3" d="M-177.1,795.4l0.1-1h0l-0.4,1l-1.8,3.2h-0.2l-1.9-3.2l-0.4-1h0l0.1,1v4.7h-0.8v-7h0.6l2.2,3.6l0.3,0.8h0
		l0.3-0.8l2.1-3.6h0.6v7h-0.8V795.4z"/>
	<path class="st3" d="M-174.6,793.1h3.8v0.7h-3v2.3h2.7v0.7h-2.7v2.5h3v0.7h-3.9V793.1z"/>
	<path class="st3" d="M-168,795.5l-0.5-1h0l0.1,1v4.6h-0.8V793h0.4l3.3,4.7l0.5,1h0l-0.1-1v-4.6h0.8v7.1h-0.4L-168,795.5z"/>
	<path class="st3" d="M-158,793.8h-2.2v6.3h-0.8v-6.3h-2.2v-0.7h5.2V793.8z"/>
</g>
</svg>
