<?xml version="1.0" encoding="utf-8"?>
<!-- Generator: Adobe Illustrator 19.1.0, SVG Export Plug-In . SVG Version: 6.00 Build 0)  -->
<svg version="1.1" id="Layer_1" xmlns="http://www.w3.org/2000/svg" xmlns:xlink="http://www.w3.org/1999/xlink" x="0px" y="0px"
	 viewBox="-129.2 304.4 292.4 141.1" style="enable-background:new -129.2 304.4 292.4 141.1;" xml:space="preserve">
<style type="text/css">
	.st0{fill:#74B3C1;}
	.st1{enable-background:new    ;}
	.st2{fill:#377282;}
	.st3{fill:#010002;}
</style>
<path class="st0" d="M17,324.5l34.1,54.7h-68.3L17,324.5 M17,304.4l-53.4,85.5H70.5L17,304.4z"/>
<g class="st1">
	<path class="st2" d="M-62.8,402.6h2.2v12.9c0,1.2-0.2,2.2-0.5,3s-0.7,1.5-1.3,2.1c-0.6,0.5-1.2,0.9-2,1.2c-0.8,0.3-1.7,0.4-2.6,0.4
		c-2.3,0-4-0.5-5.1-1.5s-1.7-2.6-1.7-4.7v-13.3h2.3v12.2c0,1,0.1,1.8,0.3,2.5c0.2,0.7,0.5,1.2,0.9,1.6c0.4,0.4,0.9,0.7,1.4,0.9
		c0.6,0.2,1.3,0.3,2,0.3c1.5,0,2.5-0.4,3.2-1.2c0.6-0.8,1-2.2,1-4V402.6z"/>
	<path class="st2" d="M-56,402.8c0.7-0.2,1.4-0.3,2.3-0.3c0.8-0.1,1.6-0.1,2.4-0.1c0.8,0,1.7,0.1,2.6,0.2c0.9,0.2,1.7,0.5,2.4,0.9
		c0.7,0.4,1.3,1,1.7,1.8c0.4,0.8,0.7,1.8,0.7,2.9c0,1.2-0.2,2.2-0.6,3c-0.4,0.8-1,1.5-1.7,2c-0.7,0.5-1.5,0.9-2.4,1.1
		c-0.9,0.2-1.8,0.3-2.8,0.3c-0.1,0-0.2,0-0.5,0c-0.2,0-0.4,0-0.7,0c-0.2,0-0.5,0-0.7,0s-0.4,0-0.5-0.1v7.3H-56V402.8z M-51.3,404.3
		c-0.5,0-0.9,0-1.4,0c-0.4,0-0.8,0.1-1,0.1v8c0.1,0,0.2,0.1,0.4,0.1c0.2,0,0.4,0,0.6,0s0.4,0,0.6,0c0.2,0,0.3,0,0.4,0
		c0.6,0,1.2-0.1,1.9-0.2s1.2-0.3,1.7-0.6c0.5-0.3,0.9-0.8,1.2-1.3s0.5-1.3,0.5-2.2c0-0.8-0.1-1.4-0.4-1.9c-0.3-0.5-0.7-0.9-1.1-1.2
		s-1-0.5-1.6-0.6C-50.1,404.4-50.7,404.3-51.3,404.3z"/>
	<path class="st2" d="M-40.6,402.6c0.3-0.1,0.7-0.1,1.2-0.1c0.4,0,0.9,0,1.3-0.1c0.5,0,0.9,0,1.4,0c0.4,0,0.9,0,1.3,0
		c1.5,0,2.9,0.2,4,0.7c1.1,0.5,2.1,1.1,2.8,2c0.7,0.9,1.3,1.9,1.6,3.1s0.5,2.5,0.5,3.9c0,1.3-0.2,2.6-0.5,3.8
		c-0.3,1.2-0.9,2.3-1.6,3.2s-1.7,1.7-2.9,2.2c-1.2,0.6-2.6,0.8-4.3,0.8c-0.3,0-0.7,0-1.1,0c-0.5,0-0.9,0-1.4-0.1
		c-0.5,0-1-0.1-1.4-0.1c-0.4,0-0.7,0-0.9-0.1V402.6z M-35.4,404.4c-0.2,0-0.5,0-0.8,0c-0.3,0-0.6,0-0.8,0c-0.3,0-0.5,0-0.8,0.1
		c-0.2,0-0.4,0-0.5,0.1v15.4c0.1,0,0.3,0,0.5,0c0.3,0,0.5,0,0.8,0c0.3,0,0.5,0,0.8,0c0.3,0,0.4,0,0.5,0c1.3,0,2.4-0.2,3.2-0.7
		c0.9-0.4,1.6-1,2.1-1.8c0.5-0.7,0.9-1.6,1.1-2.6s0.3-2,0.3-3c0-0.9-0.1-1.8-0.3-2.7c-0.2-0.9-0.6-1.7-1-2.5c-0.5-0.7-1.2-1.3-2-1.8
		C-33.1,404.6-34.1,404.4-35.4,404.4z"/>
	<path class="st2" d="M-14.1,416.5h-7.1l-1.9,5.3h-2.3l7.3-19.6h1l7.3,19.6h-2.4L-14.1,416.5z M-20.4,414.5h5.6l-2.1-5.9l-0.7-2.9h0
		l-0.7,3L-20.4,414.5z"/>
	<path class="st2" d="M3.4,404.6h-6v17.2h-2.3v-17.2h-6v-2H3.4V404.6z"/>
	<path class="st2" d="M6.3,402.6h10.5v2H8.5v6.3h7.5v2H8.5v6.9h8.3v2H6.3V402.6z"/>
	<path class="st2" d="M27.6,412.2c0-3.2,0.7-5.7,2-7.4c1.4-1.7,3.3-2.6,5.8-2.6c1.4,0,2.5,0.2,3.5,0.7c1,0.5,1.8,1.2,2.5,2
		c0.7,0.9,1.1,1.9,1.4,3.1c0.3,1.2,0.5,2.6,0.5,4.1c0,3.2-0.7,5.7-2.1,7.4c-1.4,1.7-3.3,2.6-5.8,2.6c-1.3,0-2.5-0.2-3.5-0.7
		c-1-0.5-1.8-1.2-2.4-2c-0.7-0.9-1.1-1.9-1.4-3.1C27.7,415.1,27.6,413.7,27.6,412.2z M30,412.2c0,1.1,0.1,2.1,0.3,3
		c0.2,1,0.5,1.8,1,2.5c0.4,0.7,1,1.3,1.7,1.7s1.5,0.6,2.4,0.6c1.7,0,3-0.6,4-1.9c1-1.3,1.5-3.3,1.5-6c0-1-0.1-2-0.3-3
		s-0.5-1.8-1-2.5c-0.4-0.7-1-1.3-1.7-1.7c-0.7-0.4-1.5-0.6-2.5-0.6c-1.7,0-3,0.6-4,1.9C30.5,407.5,30,409.5,30,412.2z"/>
	<path class="st2" d="M47.2,402.8c0.7-0.1,1.5-0.2,2.4-0.3s1.7-0.1,2.5-0.1c0.8,0,1.6,0.1,2.4,0.3c0.8,0.2,1.4,0.5,2,0.9
		c0.6,0.4,1,1,1.4,1.7c0.3,0.7,0.5,1.5,0.5,2.5c0,1.5-0.4,2.7-1.2,3.7c-0.8,0.9-1.9,1.6-3.1,1.9l1.3,1l4.8,7.6h-2.7l-5.3-8.3
		l-2.7-0.4v8.7h-2.3V402.8z M52.1,404.3c-0.2,0-0.5,0-0.7,0s-0.5,0-0.7,0c-0.2,0-0.5,0-0.7,0.1c-0.2,0-0.4,0-0.5,0.1v7.1h2.1
		c1.3,0,2.3-0.3,3.1-0.9c0.8-0.6,1.2-1.6,1.2-2.9c0-1-0.3-1.8-1-2.4C54.3,404.7,53.3,404.3,52.1,404.3z"/>
	<path class="st2" d="M63.6,402.6c0.3-0.1,0.7-0.1,1.2-0.1c0.4,0,0.9,0,1.3-0.1c0.5,0,0.9,0,1.4,0c0.4,0,0.9,0,1.3,0
		c1.5,0,2.9,0.2,4,0.7c1.1,0.5,2.1,1.1,2.8,2c0.7,0.9,1.3,1.9,1.6,3.1c0.4,1.2,0.5,2.5,0.5,3.9c0,1.3-0.2,2.6-0.5,3.8
		c-0.3,1.2-0.9,2.3-1.6,3.2c-0.7,0.9-1.7,1.7-2.9,2.2s-2.6,0.8-4.3,0.8c-0.3,0-0.7,0-1.1,0c-0.5,0-0.9,0-1.4-0.1
		c-0.5,0-1-0.1-1.4-0.1c-0.4,0-0.7,0-0.9-0.1V402.6z M68.8,404.4c-0.2,0-0.5,0-0.8,0c-0.3,0-0.6,0-0.8,0c-0.3,0-0.5,0-0.8,0.1
		c-0.2,0-0.4,0-0.5,0.1v15.4c0.1,0,0.3,0,0.5,0c0.3,0,0.5,0,0.8,0c0.3,0,0.5,0,0.8,0c0.3,0,0.4,0,0.5,0c1.3,0,2.4-0.2,3.2-0.7
		s1.6-1,2.1-1.8c0.5-0.7,0.9-1.6,1.1-2.6c0.2-1,0.3-2,0.3-3c0-0.9-0.1-1.8-0.3-2.7s-0.6-1.7-1-2.5s-1.2-1.3-2-1.8
		S70,404.4,68.8,404.4z"/>
	<path class="st2" d="M81.5,402.6H92v2h-8.2v6.3h7.5v2h-7.5v6.9h8.3v2H81.5V402.6z"/>
	<path class="st2" d="M96.3,402.8c0.7-0.1,1.5-0.2,2.4-0.3s1.7-0.1,2.5-0.1c0.8,0,1.6,0.1,2.4,0.3c0.8,0.2,1.4,0.5,2,0.9
		s1,1,1.4,1.7s0.5,1.5,0.5,2.5c0,1.5-0.4,2.7-1.2,3.7c-0.8,0.9-1.9,1.6-3.1,1.9l1.3,1l4.8,7.6h-2.7l-5.3-8.3l-2.7-0.4v8.7h-2.3
		V402.8z M101.3,404.3c-0.2,0-0.5,0-0.7,0s-0.5,0-0.7,0c-0.2,0-0.5,0-0.7,0.1c-0.2,0-0.4,0-0.5,0.1v7.1h2.1c1.3,0,2.3-0.3,3.1-0.9
		c0.8-0.6,1.2-1.6,1.2-2.9c0-1-0.3-1.8-1-2.4C103.4,404.7,102.5,404.3,101.3,404.3z"/>
</g>
<g class="st1">
	<path class="st3" d="M-123.6,434.2c-0.1-0.2-0.3-0.4-0.5-0.6c-0.2-0.1-0.4-0.3-0.7-0.3c-0.3-0.1-0.5-0.1-0.8-0.1
		c-0.2,0-0.4,0-0.7,0.1c-0.2,0-0.4,0.1-0.6,0.2c-0.2,0.1-0.3,0.3-0.5,0.4c-0.1,0.2-0.2,0.4-0.2,0.7c0,0.2,0.1,0.4,0.2,0.6
		s0.2,0.3,0.4,0.4c0.2,0.1,0.4,0.2,0.6,0.3c0.2,0.1,0.4,0.1,0.6,0.2l1.3,0.3c0.3,0,0.6,0.1,0.8,0.2c0.3,0.1,0.5,0.3,0.7,0.4
		c0.2,0.2,0.4,0.4,0.5,0.7c0.1,0.3,0.2,0.6,0.2,0.9c0,0.4-0.1,0.8-0.3,1.1s-0.5,0.6-0.8,0.8s-0.7,0.3-1,0.4
		c-0.4,0.1-0.8,0.1-1.1,0.1c-1,0-1.7-0.2-2.3-0.7c-0.6-0.5-0.9-1.2-1-2.2h1c0,0.7,0.3,1.2,0.7,1.5c0.4,0.3,1,0.5,1.7,0.5
		c0.2,0,0.5,0,0.7-0.1c0.3-0.1,0.5-0.1,0.7-0.3s0.4-0.3,0.5-0.5s0.2-0.4,0.2-0.7c0-0.2,0-0.4-0.1-0.6c-0.1-0.2-0.2-0.3-0.4-0.4
		c-0.2-0.1-0.4-0.2-0.6-0.3s-0.4-0.1-0.7-0.2l-1.3-0.3c-0.3-0.1-0.6-0.2-0.9-0.3c-0.3-0.1-0.5-0.2-0.7-0.4c-0.2-0.2-0.4-0.4-0.5-0.6
		c-0.1-0.2-0.2-0.5-0.2-0.9c0-0.4,0.1-0.8,0.3-1.1c0.2-0.3,0.4-0.5,0.7-0.7c0.3-0.2,0.6-0.3,1-0.4c0.4-0.1,0.7-0.1,1.1-0.1
		c0.4,0,0.8,0.1,1.1,0.2c0.4,0.1,0.7,0.3,0.9,0.5c0.3,0.2,0.5,0.5,0.6,0.8c0.2,0.3,0.2,0.7,0.3,1.1h-1
		C-123.4,434.6-123.4,434.4-123.6,434.2z"/>
	<path class="st3" d="M-119.9,438c0.1,0.4,0.3,0.7,0.5,1c0.2,0.3,0.5,0.6,0.8,0.8c0.3,0.2,0.7,0.3,1.2,0.3c0.7,0,1.3-0.2,1.7-0.6
		c0.4-0.4,0.7-0.9,0.8-1.5h1c-0.2,0.9-0.6,1.6-1.2,2.1c-0.6,0.5-1.4,0.8-2.4,0.8c-0.6,0-1.2-0.1-1.7-0.3c-0.5-0.2-0.8-0.5-1.1-0.9
		c-0.3-0.4-0.5-0.8-0.7-1.4c-0.1-0.5-0.2-1.1-0.2-1.6c0-0.5,0.1-1.1,0.2-1.6c0.1-0.5,0.4-1,0.7-1.4c0.3-0.4,0.7-0.7,1.1-1
		c0.5-0.2,1-0.4,1.7-0.4c0.6,0,1.2,0.1,1.7,0.4c0.5,0.3,0.8,0.6,1.1,1c0.3,0.4,0.5,0.9,0.6,1.5c0.1,0.6,0.2,1.1,0.2,1.7h-6.2
		C-120.1,437.3-120,437.6-119.9,438z M-115,435c-0.1-0.3-0.3-0.7-0.5-0.9s-0.5-0.5-0.8-0.6c-0.3-0.2-0.7-0.2-1.1-0.2
		c-0.4,0-0.8,0.1-1.1,0.2c-0.3,0.2-0.6,0.4-0.8,0.6s-0.4,0.6-0.5,0.9c-0.1,0.4-0.2,0.7-0.3,1.1h5.3
		C-114.8,435.7-114.9,435.3-115,435z"/>
	<path class="st3" d="M-111.5,429.5v11.2h-1v-11.2H-111.5z"/>
	<path class="st3" d="M-108.9,438c0.1,0.4,0.3,0.7,0.5,1c0.2,0.3,0.5,0.6,0.8,0.8c0.3,0.2,0.7,0.3,1.2,0.3c0.7,0,1.3-0.2,1.7-0.6
		c0.4-0.4,0.7-0.9,0.8-1.5h1c-0.2,0.9-0.6,1.6-1.2,2.1c-0.6,0.5-1.4,0.8-2.4,0.8c-0.6,0-1.2-0.1-1.7-0.3c-0.5-0.2-0.8-0.5-1.1-0.9
		c-0.3-0.4-0.5-0.8-0.7-1.4c-0.1-0.5-0.2-1.1-0.2-1.6c0-0.5,0.1-1.1,0.2-1.6c0.1-0.5,0.4-1,0.7-1.4c0.3-0.4,0.7-0.7,1.1-1
		c0.5-0.2,1-0.4,1.7-0.4c0.6,0,1.2,0.1,1.7,0.4c0.5,0.3,0.8,0.6,1.1,1c0.3,0.4,0.5,0.9,0.6,1.5c0.1,0.6,0.2,1.1,0.2,1.7h-6.2
		C-109,437.3-109,437.6-108.9,438z M-104,435c-0.1-0.3-0.3-0.7-0.5-0.9s-0.5-0.5-0.8-0.6c-0.3-0.2-0.7-0.2-1.1-0.2
		c-0.4,0-0.8,0.1-1.1,0.2c-0.3,0.2-0.6,0.4-0.8,0.6s-0.4,0.6-0.5,0.9c-0.1,0.4-0.2,0.7-0.3,1.1h5.3
		C-103.8,435.7-103.8,435.3-104,435z"/>
	<path class="st3" d="M-96.5,433.7c-0.4-0.3-0.9-0.5-1.5-0.5c-0.5,0-0.9,0.1-1.2,0.3c-0.4,0.2-0.7,0.5-0.9,0.8
		c-0.2,0.3-0.4,0.7-0.5,1.1c-0.1,0.4-0.2,0.8-0.2,1.3s0.1,0.9,0.2,1.3s0.3,0.8,0.5,1.1s0.5,0.6,0.9,0.8c0.4,0.2,0.8,0.3,1.2,0.3
		c0.3,0,0.6-0.1,0.9-0.2s0.5-0.3,0.7-0.5c0.2-0.2,0.4-0.4,0.5-0.7s0.2-0.6,0.3-0.9h1c-0.1,1-0.5,1.8-1.1,2.3s-1.3,0.8-2.3,0.8
		c-0.6,0-1.2-0.1-1.6-0.3c-0.5-0.2-0.9-0.5-1.2-0.9c-0.3-0.4-0.6-0.8-0.7-1.4c-0.2-0.5-0.3-1.1-0.3-1.7s0.1-1.1,0.3-1.7
		c0.2-0.5,0.4-1,0.7-1.4c0.3-0.4,0.7-0.7,1.2-0.9s1-0.3,1.6-0.3c0.9,0,1.6,0.2,2.2,0.7c0.6,0.5,1,1.2,1.1,2.1h-1
		C-95.8,434.5-96.1,434-96.5,433.7z"/>
	<path class="st3" d="M-90,432.6v0.8h-1.7v5.5c0,0.3,0,0.6,0.1,0.8c0.1,0.2,0.3,0.3,0.7,0.3c0.3,0,0.6,0,0.8,0v0.8
		c-0.1,0-0.3,0-0.4,0c-0.1,0-0.3,0-0.4,0c-0.7,0-1.1-0.1-1.4-0.4c-0.3-0.3-0.4-0.7-0.4-1.4v-5.6h-1.4v-0.8h1.4v-2.4h1v2.4H-90z"/>
	<path class="st3" d="M-84,433.8c0.2-0.3,0.4-0.6,0.7-0.8c0.3-0.2,0.6-0.4,1-0.5c0.4-0.1,0.8-0.2,1.3-0.2c0.4,0,0.7,0,1.1,0.1
		c0.4,0.1,0.7,0.2,1,0.4s0.5,0.5,0.7,0.8s0.3,0.8,0.3,1.3v4.3c0,0.4,0.2,0.6,0.6,0.6c0.1,0,0.2,0,0.3-0.1v0.8c-0.1,0-0.2,0-0.3,0
		s-0.2,0-0.3,0c-0.3,0-0.5,0-0.6-0.1c-0.2-0.1-0.3-0.2-0.4-0.3c-0.1-0.1-0.1-0.3-0.2-0.4c0-0.2,0-0.4,0-0.6h0
		c-0.2,0.3-0.4,0.5-0.5,0.7c-0.2,0.2-0.4,0.4-0.6,0.5c-0.2,0.1-0.5,0.2-0.8,0.3c-0.3,0.1-0.6,0.1-1,0.1c-0.4,0-0.7,0-1.1-0.1
		c-0.3-0.1-0.6-0.2-0.9-0.4c-0.2-0.2-0.4-0.4-0.6-0.7s-0.2-0.7-0.2-1.1c0-0.6,0.1-1,0.4-1.3c0.3-0.3,0.6-0.6,1-0.7s0.9-0.3,1.4-0.4
		c0.5-0.1,1-0.1,1.6-0.2c0.2,0,0.4,0,0.6-0.1c0.2,0,0.3-0.1,0.4-0.2c0.1-0.1,0.2-0.2,0.2-0.3c0.1-0.1,0.1-0.3,0.1-0.5
		c0-0.3-0.1-0.6-0.2-0.8c-0.1-0.2-0.3-0.4-0.5-0.5c-0.2-0.1-0.4-0.2-0.7-0.3c-0.3,0-0.5-0.1-0.8-0.1c-0.6,0-1.1,0.1-1.5,0.4
		s-0.6,0.8-0.6,1.4h-1C-84.3,434.6-84.2,434.2-84,433.8z M-79.1,436.3c-0.1,0.1-0.2,0.2-0.4,0.3c-0.2,0.1-0.3,0.1-0.5,0.1
		c-0.4,0.1-0.9,0.1-1.3,0.2c-0.4,0.1-0.9,0.1-1.2,0.3c-0.4,0.1-0.7,0.3-0.9,0.5s-0.4,0.5-0.4,0.9c0,0.3,0,0.5,0.1,0.7
		c0.1,0.2,0.2,0.4,0.4,0.5c0.2,0.1,0.4,0.2,0.6,0.3c0.2,0.1,0.4,0.1,0.7,0.1c0.4,0,0.7-0.1,1.1-0.2c0.3-0.1,0.6-0.3,0.9-0.5
		c0.3-0.2,0.5-0.5,0.6-0.8c0.2-0.3,0.2-0.7,0.2-1.1L-79.1,436.3L-79.1,436.3z"/>
	<path class="st3" d="M-75.1,432.6v1.4h0c0.2-0.5,0.5-0.9,1-1.2c0.5-0.3,1-0.4,1.6-0.4c0.6,0,1,0.1,1.4,0.2c0.4,0.1,0.7,0.4,0.9,0.6
		c0.2,0.3,0.4,0.6,0.5,1s0.1,0.8,0.1,1.3v5.2h-1v-5.1c0-0.3,0-0.7-0.1-1c-0.1-0.3-0.2-0.6-0.3-0.8c-0.2-0.2-0.4-0.4-0.6-0.5
		c-0.3-0.1-0.6-0.2-1-0.2s-0.8,0.1-1.1,0.2c-0.3,0.1-0.6,0.3-0.8,0.6c-0.2,0.2-0.4,0.5-0.5,0.9s-0.2,0.7-0.2,1.1v4.7h-1v-8.1H-75.1z
		"/>
	<path class="st3" d="M-58.2,432.7c0.5,0.2,0.9,0.5,1.2,0.9c0.3,0.4,0.6,0.8,0.7,1.4c0.2,0.5,0.3,1.1,0.3,1.7s-0.1,1.1-0.3,1.7
		c-0.2,0.5-0.4,1-0.7,1.4c-0.3,0.4-0.7,0.7-1.2,0.9c-0.5,0.2-1,0.3-1.6,0.3c-0.6,0-1.2-0.1-1.6-0.3c-0.5-0.2-0.9-0.5-1.2-0.9
		c-0.3-0.4-0.6-0.8-0.7-1.4c-0.2-0.5-0.3-1.1-0.3-1.7s0.1-1.1,0.3-1.7c0.2-0.5,0.4-1,0.7-1.4c0.3-0.4,0.7-0.7,1.2-0.9s1-0.3,1.6-0.3
		C-59.2,432.3-58.7,432.5-58.2,432.7z M-61.1,433.5c-0.4,0.2-0.7,0.5-0.9,0.8c-0.2,0.3-0.4,0.7-0.5,1.1c-0.1,0.4-0.2,0.8-0.2,1.3
		s0.1,0.9,0.2,1.3s0.3,0.8,0.5,1.1s0.5,0.6,0.9,0.8c0.4,0.2,0.8,0.3,1.2,0.3s0.9-0.1,1.2-0.3s0.7-0.5,0.9-0.8
		c0.2-0.3,0.4-0.7,0.5-1.1s0.2-0.8,0.2-1.3s-0.1-0.9-0.2-1.3c-0.1-0.4-0.3-0.8-0.5-1.1c-0.2-0.3-0.5-0.6-0.9-0.8s-0.8-0.3-1.2-0.3
		S-60.7,433.3-61.1,433.5z"/>
	<path class="st3" d="M-53.6,432.6v1.5h0c0.2-0.6,0.6-1,1.1-1.3s1.1-0.5,1.8-0.5c0.6,0,1.2,0.1,1.6,0.3s0.8,0.5,1.1,0.9
		c0.3,0.4,0.5,0.8,0.7,1.4c0.1,0.5,0.2,1.1,0.2,1.6c0,0.6-0.1,1.1-0.2,1.6c-0.1,0.5-0.4,1-0.7,1.4c-0.3,0.4-0.7,0.7-1.1,0.9
		c-0.5,0.2-1,0.3-1.6,0.3c-0.3,0-0.6,0-0.9-0.1c-0.3-0.1-0.6-0.2-0.8-0.3c-0.3-0.1-0.5-0.3-0.7-0.6s-0.3-0.5-0.4-0.8h0v4.5h-1v-11.1
		H-53.6z M-48.2,435.4c-0.1-0.4-0.3-0.8-0.5-1.1c-0.2-0.3-0.5-0.6-0.8-0.8c-0.3-0.2-0.7-0.3-1.2-0.3c-0.5,0-1,0.1-1.4,0.3
		c-0.4,0.2-0.7,0.4-0.9,0.8s-0.4,0.7-0.5,1.1c-0.1,0.4-0.1,0.9-0.1,1.3c0,0.4,0,0.8,0.1,1.2s0.3,0.8,0.5,1.1s0.5,0.6,0.9,0.8
		s0.8,0.3,1.3,0.3c0.5,0,0.9-0.1,1.2-0.3c0.3-0.2,0.6-0.5,0.8-0.8c0.2-0.3,0.4-0.7,0.5-1.1c0.1-0.4,0.1-0.8,0.1-1.2
		C-48,436.2-48.1,435.8-48.2,435.4z"/>
	<path class="st3" d="M-42.3,432.6v0.8h-1.7v5.5c0,0.3,0,0.6,0.1,0.8c0.1,0.2,0.3,0.3,0.7,0.3c0.3,0,0.6,0,0.8,0v0.8
		c-0.1,0-0.3,0-0.4,0c-0.1,0-0.3,0-0.4,0c-0.7,0-1.1-0.1-1.4-0.4c-0.3-0.3-0.4-0.7-0.4-1.4v-5.6h-1.4v-0.8h1.4v-2.4h1v2.4H-42.3z"/>
	<path class="st3" d="M-39.8,429.5v1.6h-1v-1.6H-39.8z M-39.8,432.6v8.1h-1v-8.1H-39.8z"/>
	<path class="st3" d="M-32.9,432.7c0.5,0.2,0.9,0.5,1.2,0.9c0.3,0.4,0.6,0.8,0.7,1.4c0.2,0.5,0.3,1.1,0.3,1.7s-0.1,1.1-0.3,1.7
		c-0.2,0.5-0.4,1-0.7,1.4c-0.3,0.4-0.7,0.7-1.2,0.9c-0.5,0.2-1,0.3-1.6,0.3c-0.6,0-1.2-0.1-1.6-0.3c-0.5-0.2-0.9-0.5-1.2-0.9
		c-0.3-0.4-0.6-0.8-0.7-1.4c-0.2-0.5-0.3-1.1-0.3-1.7s0.1-1.1,0.3-1.7c0.2-0.5,0.4-1,0.7-1.4c0.3-0.4,0.7-0.7,1.2-0.9s1-0.3,1.6-0.3
		C-33.9,432.3-33.3,432.5-32.9,432.7z M-35.7,433.5c-0.4,0.2-0.7,0.5-0.9,0.8c-0.2,0.3-0.4,0.7-0.5,1.1c-0.1,0.4-0.2,0.8-0.2,1.3
		s0.1,0.9,0.2,1.3s0.3,0.8,0.5,1.1s0.5,0.6,0.9,0.8c0.4,0.2,0.8,0.3,1.2,0.3s0.9-0.1,1.2-0.3s0.7-0.5,0.9-0.8
		c0.2-0.3,0.4-0.7,0.5-1.1s0.2-0.8,0.2-1.3s-0.1-0.9-0.2-1.3c-0.1-0.4-0.3-0.8-0.5-1.1c-0.2-0.3-0.5-0.6-0.9-0.8s-0.8-0.3-1.2-0.3
		S-35.4,433.3-35.7,433.5z"/>
	<path class="st3" d="M-28.2,432.6v1.4h0c0.2-0.5,0.5-0.9,1-1.2c0.5-0.3,1-0.4,1.6-0.4c0.6,0,1,0.1,1.4,0.2c0.4,0.1,0.7,0.4,0.9,0.6
		c0.2,0.3,0.4,0.6,0.5,1s0.1,0.8,0.1,1.3v5.2h-1v-5.1c0-0.3,0-0.7-0.1-1c-0.1-0.3-0.2-0.6-0.3-0.8c-0.2-0.2-0.4-0.4-0.6-0.5
		c-0.3-0.1-0.6-0.2-1-0.2s-0.8,0.1-1.1,0.2c-0.3,0.1-0.6,0.3-0.8,0.6c-0.2,0.2-0.4,0.5-0.5,0.9s-0.2,0.7-0.2,1.1v4.7h-1v-8.1H-28.2z
		"/>
	<path class="st3" d="M-13.2,432.6v0.8h-1.7v5.5c0,0.3,0,0.6,0.1,0.8c0.1,0.2,0.3,0.3,0.7,0.3c0.3,0,0.6,0,0.8,0v0.8
		c-0.1,0-0.3,0-0.4,0c-0.1,0-0.3,0-0.4,0c-0.7,0-1.1-0.1-1.4-0.4c-0.3-0.3-0.4-0.7-0.4-1.4v-5.6h-1.4v-0.8h1.4v-2.4h1v2.4H-13.2z"/>
	<path class="st3" d="M-6.7,432.7c0.5,0.2,0.9,0.5,1.2,0.9c0.3,0.4,0.6,0.8,0.7,1.4c0.2,0.5,0.3,1.1,0.3,1.7s-0.1,1.1-0.3,1.7
		c-0.2,0.5-0.4,1-0.7,1.4c-0.3,0.4-0.7,0.7-1.2,0.9c-0.5,0.2-1,0.3-1.6,0.3c-0.6,0-1.2-0.1-1.6-0.3c-0.5-0.2-0.9-0.5-1.2-0.9
		c-0.3-0.4-0.6-0.8-0.7-1.4c-0.2-0.5-0.3-1.1-0.3-1.7s0.1-1.1,0.3-1.7c0.2-0.5,0.4-1,0.7-1.4c0.3-0.4,0.7-0.7,1.2-0.9s1-0.3,1.6-0.3
		C-7.7,432.3-7.1,432.5-6.7,432.7z M-9.5,433.5c-0.4,0.2-0.7,0.5-0.9,0.8c-0.2,0.3-0.4,0.7-0.5,1.1c-0.1,0.4-0.2,0.8-0.2,1.3
		s0.1,0.9,0.2,1.3s0.3,0.8,0.5,1.1s0.5,0.6,0.9,0.8c0.4,0.2,0.8,0.3,1.2,0.3s0.9-0.1,1.2-0.3s0.7-0.5,0.9-0.8
		c0.2-0.3,0.4-0.7,0.5-1.1s0.2-0.8,0.2-1.3s-0.1-0.9-0.2-1.3c-0.1-0.4-0.3-0.8-0.5-1.1c-0.2-0.3-0.5-0.6-0.9-0.8s-0.8-0.3-1.2-0.3
		S-9.2,433.3-9.5,433.5z"/>
	<path class="st3" d="M7.1,440.7v-1.5h0c-0.3,0.5-0.6,1-1.1,1.3c-0.5,0.3-1.1,0.4-1.7,0.4c-0.5,0-1-0.1-1.3-0.2s-0.7-0.3-0.9-0.6
		c-0.2-0.3-0.4-0.6-0.5-1c-0.1-0.4-0.2-0.8-0.2-1.3v-5.3h1v5.3c0,0.7,0.2,1.3,0.5,1.7c0.3,0.4,0.9,0.6,1.7,0.6
		c0.4,0,0.8-0.1,1.1-0.3c0.3-0.2,0.6-0.4,0.8-0.7c0.2-0.3,0.3-0.7,0.4-1c0.1-0.4,0.1-0.8,0.1-1.2v-4.3h1v8.1H7.1z"/>
	<path class="st3" d="M10.7,432.6v1.5h0c0.2-0.6,0.6-1,1.1-1.3s1.1-0.5,1.8-0.5c0.6,0,1.2,0.1,1.6,0.3s0.8,0.5,1.1,0.9
		c0.3,0.4,0.5,0.8,0.7,1.4c0.1,0.5,0.2,1.1,0.2,1.6c0,0.6-0.1,1.1-0.2,1.6c-0.1,0.5-0.4,1-0.7,1.4c-0.3,0.4-0.7,0.7-1.1,0.9
		c-0.5,0.2-1,0.3-1.6,0.3c-0.3,0-0.6,0-0.9-0.1c-0.3-0.1-0.6-0.2-0.8-0.3c-0.3-0.1-0.5-0.3-0.7-0.6s-0.3-0.5-0.4-0.8h0v4.5h-1v-11.1
		H10.7z M16.2,435.4c-0.1-0.4-0.3-0.8-0.5-1.1c-0.2-0.3-0.5-0.6-0.8-0.8c-0.3-0.2-0.7-0.3-1.2-0.3c-0.5,0-1,0.1-1.4,0.3
		c-0.4,0.2-0.7,0.4-0.9,0.8s-0.4,0.7-0.5,1.1c-0.1,0.4-0.1,0.9-0.1,1.3c0,0.4,0,0.8,0.1,1.2s0.3,0.8,0.5,1.1s0.5,0.6,0.9,0.8
		s0.8,0.3,1.3,0.3c0.5,0,0.9-0.1,1.2-0.3c0.3-0.2,0.6-0.5,0.8-0.8c0.2-0.3,0.4-0.7,0.5-1.1c0.1-0.4,0.1-0.8,0.1-1.2
		C16.3,436.2,16.3,435.8,16.2,435.4z"/>
	<path class="st3" d="M25.1,440.7v-1.5h0c-0.1,0.3-0.3,0.5-0.5,0.7c-0.2,0.2-0.4,0.4-0.7,0.6c-0.3,0.2-0.5,0.3-0.8,0.4
		c-0.3,0.1-0.6,0.1-0.9,0.1c-0.6,0-1.2-0.1-1.6-0.3c-0.5-0.2-0.8-0.5-1.1-0.9c-0.3-0.4-0.5-0.8-0.7-1.4c-0.1-0.5-0.2-1.1-0.2-1.6
		c0-0.6,0.1-1.1,0.2-1.6c0.1-0.5,0.4-1,0.7-1.4c0.3-0.4,0.7-0.7,1.1-0.9s1-0.3,1.6-0.3c0.3,0,0.6,0,0.9,0.1c0.3,0.1,0.6,0.2,0.8,0.3
		c0.3,0.2,0.5,0.3,0.7,0.6c0.2,0.2,0.3,0.5,0.4,0.8h0v-4.7h1v11.2H25.1z M19.7,437.9c0.1,0.4,0.3,0.8,0.5,1.1
		c0.2,0.3,0.5,0.6,0.8,0.8s0.7,0.3,1.2,0.3c0.5,0,1-0.1,1.3-0.3c0.4-0.2,0.7-0.5,0.9-0.8c0.2-0.3,0.4-0.7,0.5-1.1s0.1-0.8,0.1-1.2
		c0-0.4,0-0.8-0.1-1.2s-0.3-0.8-0.5-1.1c-0.2-0.3-0.5-0.6-0.9-0.8c-0.4-0.2-0.8-0.3-1.3-0.3c-0.5,0-0.9,0.1-1.2,0.3
		s-0.6,0.5-0.8,0.8c-0.2,0.3-0.4,0.7-0.5,1.1c-0.1,0.4-0.1,0.8-0.1,1.2C19.5,437.1,19.6,437.5,19.7,437.9z"/>
	<path class="st3" d="M28.1,433.8c0.2-0.3,0.4-0.6,0.7-0.8c0.3-0.2,0.6-0.4,1-0.5c0.4-0.1,0.8-0.2,1.3-0.2c0.4,0,0.7,0,1.1,0.1
		c0.4,0.1,0.7,0.2,1,0.4s0.5,0.5,0.7,0.8s0.3,0.8,0.3,1.3v4.3c0,0.4,0.2,0.6,0.6,0.6c0.1,0,0.2,0,0.3-0.1v0.8c-0.1,0-0.2,0-0.3,0
		s-0.2,0-0.3,0c-0.3,0-0.5,0-0.6-0.1c-0.2-0.1-0.3-0.2-0.4-0.3c-0.1-0.1-0.1-0.3-0.2-0.4c0-0.2,0-0.4,0-0.6h0
		c-0.2,0.3-0.4,0.5-0.5,0.7c-0.2,0.2-0.4,0.4-0.6,0.5c-0.2,0.1-0.5,0.2-0.8,0.3c-0.3,0.1-0.6,0.1-1,0.1c-0.4,0-0.7,0-1.1-0.1
		c-0.3-0.1-0.6-0.2-0.9-0.4c-0.2-0.2-0.4-0.4-0.6-0.7s-0.2-0.7-0.2-1.1c0-0.6,0.1-1,0.4-1.3c0.3-0.3,0.6-0.6,1-0.7s0.9-0.3,1.4-0.4
		c0.5-0.1,1-0.1,1.6-0.2c0.2,0,0.4,0,0.6-0.1c0.2,0,0.3-0.1,0.4-0.2c0.1-0.1,0.2-0.2,0.2-0.3c0.1-0.1,0.1-0.3,0.1-0.5
		c0-0.3-0.1-0.6-0.2-0.8c-0.1-0.2-0.3-0.4-0.5-0.5c-0.2-0.1-0.4-0.2-0.7-0.3c-0.3,0-0.5-0.1-0.8-0.1c-0.6,0-1.1,0.1-1.5,0.4
		s-0.6,0.8-0.6,1.4h-1C27.8,434.6,27.9,434.2,28.1,433.8z M33,436.3c-0.1,0.1-0.2,0.2-0.4,0.3c-0.2,0.1-0.3,0.1-0.5,0.1
		c-0.4,0.1-0.9,0.1-1.3,0.2c-0.4,0.1-0.9,0.1-1.2,0.3c-0.4,0.1-0.7,0.3-0.9,0.5s-0.4,0.5-0.4,0.9c0,0.3,0,0.5,0.1,0.7
		c0.1,0.2,0.2,0.4,0.4,0.5c0.2,0.1,0.4,0.2,0.6,0.3c0.2,0.1,0.4,0.1,0.7,0.1c0.4,0,0.7-0.1,1.1-0.2c0.3-0.1,0.6-0.3,0.9-0.5
		c0.3-0.2,0.5-0.5,0.6-0.8c0.2-0.3,0.2-0.7,0.2-1.1L33,436.3L33,436.3z"/>
	<path class="st3" d="M39.3,432.6v0.8h-1.7v5.5c0,0.3,0,0.6,0.1,0.8c0.1,0.2,0.3,0.3,0.7,0.3c0.3,0,0.6,0,0.8,0v0.8
		c-0.1,0-0.3,0-0.4,0c-0.1,0-0.3,0-0.4,0c-0.7,0-1.1-0.1-1.4-0.4s-0.4-0.7-0.4-1.4v-5.6h-1.4v-0.8h1.4v-2.4h1v2.4H39.3z"/>
	<path class="st3" d="M41.4,438c0.1,0.4,0.3,0.7,0.5,1c0.2,0.3,0.5,0.6,0.8,0.8c0.3,0.2,0.7,0.3,1.2,0.3c0.7,0,1.3-0.2,1.7-0.6
		c0.4-0.4,0.7-0.9,0.8-1.5h1c-0.2,0.9-0.6,1.6-1.2,2.1c-0.6,0.5-1.4,0.8-2.4,0.8c-0.6,0-1.2-0.1-1.7-0.3c-0.5-0.2-0.8-0.5-1.1-0.9
		c-0.3-0.4-0.5-0.8-0.7-1.4c-0.1-0.5-0.2-1.1-0.2-1.6c0-0.5,0.1-1.1,0.2-1.6c0.1-0.5,0.4-1,0.7-1.4c0.3-0.4,0.7-0.7,1.1-1
		c0.5-0.2,1-0.4,1.7-0.4c0.7,0,1.2,0.1,1.7,0.4c0.5,0.3,0.8,0.6,1.1,1c0.3,0.4,0.5,0.9,0.6,1.5c0.1,0.6,0.2,1.1,0.2,1.7h-6.2
		C41.3,437.3,41.3,437.6,41.4,438z M46.3,435c-0.1-0.3-0.3-0.7-0.5-0.9c-0.2-0.3-0.5-0.5-0.8-0.6c-0.3-0.2-0.7-0.2-1.1-0.2
		c-0.4,0-0.8,0.1-1.1,0.2c-0.3,0.2-0.6,0.4-0.8,0.6s-0.4,0.6-0.5,0.9c-0.1,0.4-0.2,0.7-0.3,1.1h5.3C46.5,435.7,46.5,435.3,46.3,435z
		"/>
	<path class="st3" d="M56.5,432.6v0.8h-1.7v5.5c0,0.3,0,0.6,0.1,0.8c0.1,0.2,0.3,0.3,0.7,0.3c0.3,0,0.6,0,0.8,0v0.8
		c-0.1,0-0.3,0-0.4,0c-0.1,0-0.3,0-0.4,0c-0.7,0-1.1-0.1-1.4-0.4c-0.3-0.3-0.4-0.7-0.4-1.4v-5.6h-1.4v-0.8h1.4v-2.4h1v2.4H56.5z"/>
	<path class="st3" d="M58.9,429.5v4.5h0c0.2-0.5,0.5-0.9,1-1.2s1-0.4,1.6-0.4c0.6,0,1,0.1,1.4,0.2c0.4,0.1,0.7,0.4,0.9,0.6
		s0.4,0.6,0.5,1s0.1,0.8,0.1,1.3v5.2h-1v-5.1c0-0.3,0-0.7-0.1-1c-0.1-0.3-0.2-0.6-0.3-0.8c-0.2-0.2-0.4-0.4-0.6-0.5
		c-0.3-0.1-0.6-0.2-1-0.2s-0.8,0.1-1.1,0.2c-0.3,0.1-0.6,0.3-0.8,0.6c-0.2,0.2-0.4,0.5-0.5,0.9c-0.1,0.3-0.2,0.7-0.2,1.1v4.7h-1
		v-11.2H58.9z"/>
	<path class="st3" d="M67.1,438c0.1,0.4,0.3,0.7,0.5,1c0.2,0.3,0.5,0.6,0.8,0.8c0.3,0.2,0.7,0.3,1.2,0.3c0.7,0,1.3-0.2,1.7-0.6
		c0.4-0.4,0.7-0.9,0.8-1.5h1c-0.2,0.9-0.6,1.6-1.2,2.1c-0.6,0.5-1.4,0.8-2.4,0.8c-0.6,0-1.2-0.1-1.7-0.3c-0.5-0.2-0.8-0.5-1.1-0.9
		c-0.3-0.4-0.5-0.8-0.7-1.4c-0.1-0.5-0.2-1.1-0.2-1.6c0-0.5,0.1-1.1,0.2-1.6c0.1-0.5,0.4-1,0.7-1.4c0.3-0.4,0.7-0.7,1.1-1
		c0.5-0.2,1-0.4,1.7-0.4c0.7,0,1.2,0.1,1.7,0.4c0.5,0.3,0.8,0.6,1.1,1c0.3,0.4,0.5,0.9,0.6,1.5c0.1,0.6,0.2,1.1,0.2,1.7h-6.2
		C66.9,437.3,67,437.6,67.1,438z M72,435c-0.1-0.3-0.3-0.7-0.5-0.9c-0.2-0.3-0.5-0.5-0.8-0.6c-0.3-0.2-0.7-0.2-1.1-0.2
		c-0.4,0-0.8,0.1-1.1,0.2c-0.3,0.2-0.6,0.4-0.8,0.6s-0.4,0.6-0.5,0.9c-0.1,0.4-0.2,0.7-0.3,1.1h5.3C72.2,435.7,72.1,435.3,72,435z"
		/>
	<path class="st3" d="M83.9,432.7c0.5,0.2,0.9,0.5,1.2,0.9s0.6,0.8,0.7,1.4c0.2,0.5,0.3,1.1,0.3,1.7s-0.1,1.1-0.3,1.7
		c-0.2,0.5-0.4,1-0.7,1.4c-0.3,0.4-0.7,0.7-1.2,0.9c-0.5,0.2-1,0.3-1.6,0.3c-0.6,0-1.2-0.1-1.6-0.3c-0.5-0.2-0.9-0.5-1.2-0.9
		c-0.3-0.4-0.6-0.8-0.7-1.4c-0.2-0.5-0.3-1.1-0.3-1.7s0.1-1.1,0.3-1.7c0.2-0.5,0.4-1,0.7-1.4s0.7-0.7,1.2-0.9c0.5-0.2,1-0.3,1.6-0.3
		C82.9,432.3,83.5,432.5,83.9,432.7z M81.1,433.5c-0.4,0.2-0.7,0.5-0.9,0.8c-0.2,0.3-0.4,0.7-0.5,1.1c-0.1,0.4-0.2,0.8-0.2,1.3
		s0.1,0.9,0.2,1.3s0.3,0.8,0.5,1.1c0.2,0.3,0.5,0.6,0.9,0.8s0.8,0.3,1.2,0.3s0.9-0.1,1.2-0.3s0.7-0.5,0.9-0.8
		c0.2-0.3,0.4-0.7,0.5-1.1c0.1-0.4,0.2-0.8,0.2-1.3s-0.1-0.9-0.2-1.3c-0.1-0.4-0.3-0.8-0.5-1.1c-0.2-0.3-0.5-0.6-0.9-0.8
		s-0.8-0.3-1.2-0.3S81.4,433.3,81.1,433.5z"/>
	<path class="st3" d="M88.5,432.6v1.9h0c0.3-0.7,0.6-1.2,1.2-1.5s1.2-0.5,1.9-0.5v1c-0.5,0-0.9,0-1.2,0.2s-0.7,0.3-1,0.6
		c-0.3,0.3-0.5,0.6-0.6,0.9c-0.1,0.4-0.2,0.8-0.2,1.2v4.3h-1v-8.1H88.5z"/>
	<path class="st3" d="M98.5,440.7v-1.5h0c-0.1,0.3-0.3,0.5-0.5,0.7c-0.2,0.2-0.4,0.4-0.7,0.6c-0.3,0.2-0.5,0.3-0.8,0.4
		c-0.3,0.1-0.6,0.1-0.9,0.1c-0.6,0-1.2-0.1-1.6-0.3c-0.5-0.2-0.8-0.5-1.1-0.9c-0.3-0.4-0.5-0.8-0.7-1.4c-0.1-0.5-0.2-1.1-0.2-1.6
		c0-0.6,0.1-1.1,0.2-1.6c0.1-0.5,0.4-1,0.7-1.4c0.3-0.4,0.7-0.7,1.1-0.9s1-0.3,1.6-0.3c0.3,0,0.6,0,0.9,0.1c0.3,0.1,0.6,0.2,0.8,0.3
		c0.3,0.2,0.5,0.3,0.7,0.6c0.2,0.2,0.3,0.5,0.4,0.8h0v-4.7h1v11.2H98.5z M93.1,437.9c0.1,0.4,0.3,0.8,0.5,1.1s0.5,0.6,0.8,0.8
		c0.3,0.2,0.7,0.3,1.2,0.3c0.5,0,1-0.1,1.3-0.3c0.4-0.2,0.7-0.5,0.9-0.8s0.4-0.7,0.5-1.1s0.1-0.8,0.1-1.2c0-0.4,0-0.8-0.1-1.2
		s-0.3-0.8-0.5-1.1c-0.2-0.3-0.5-0.6-0.9-0.8c-0.4-0.2-0.8-0.3-1.3-0.3c-0.5,0-0.9,0.1-1.2,0.3c-0.3,0.2-0.6,0.5-0.8,0.8
		c-0.2,0.3-0.4,0.7-0.5,1.1s-0.1,0.8-0.1,1.2C92.9,437.1,93,437.5,93.1,437.9z"/>
	<path class="st3" d="M102,438c0.1,0.4,0.3,0.7,0.5,1c0.2,0.3,0.5,0.6,0.8,0.8c0.3,0.2,0.7,0.3,1.2,0.3c0.7,0,1.3-0.2,1.7-0.6
		c0.4-0.4,0.7-0.9,0.8-1.5h1c-0.2,0.9-0.6,1.6-1.2,2.1c-0.6,0.5-1.4,0.8-2.4,0.8c-0.6,0-1.2-0.1-1.7-0.3c-0.5-0.2-0.8-0.5-1.1-0.9
		c-0.3-0.4-0.5-0.8-0.7-1.4c-0.1-0.5-0.2-1.1-0.2-1.6c0-0.5,0.1-1.1,0.2-1.6c0.1-0.5,0.4-1,0.7-1.4c0.3-0.4,0.7-0.7,1.1-1
		c0.5-0.2,1-0.4,1.7-0.4c0.7,0,1.2,0.1,1.7,0.4c0.5,0.3,0.8,0.6,1.1,1c0.3,0.4,0.5,0.9,0.6,1.5c0.1,0.6,0.2,1.1,0.2,1.7h-6.2
		C101.9,437.3,101.9,437.6,102,438z M106.9,435c-0.1-0.3-0.3-0.7-0.5-0.9c-0.2-0.3-0.5-0.5-0.8-0.6c-0.3-0.2-0.7-0.2-1.1-0.2
		c-0.4,0-0.8,0.1-1.1,0.2c-0.3,0.2-0.6,0.4-0.8,0.6s-0.4,0.6-0.5,0.9c-0.1,0.4-0.2,0.7-0.3,1.1h5.3
		C107.1,435.7,107.1,435.3,106.9,435z"/>
	<path class="st3" d="M110.4,432.6v1.9h0c0.3-0.7,0.6-1.2,1.2-1.5s1.2-0.5,1.9-0.5v1c-0.5,0-0.9,0-1.2,0.2s-0.7,0.3-1,0.6
		c-0.3,0.3-0.5,0.6-0.6,0.9c-0.1,0.4-0.2,0.8-0.2,1.2v4.3h-1v-8.1H110.4z"/>
	<path class="st3" d="M123.5,434.2c-0.1-0.2-0.3-0.4-0.5-0.6c-0.2-0.1-0.4-0.3-0.7-0.3s-0.5-0.1-0.8-0.1c-0.2,0-0.4,0-0.7,0.1
		c-0.2,0-0.4,0.1-0.6,0.2c-0.2,0.1-0.3,0.3-0.5,0.4c-0.1,0.2-0.2,0.4-0.2,0.7c0,0.2,0.1,0.4,0.2,0.6c0.1,0.2,0.2,0.3,0.4,0.4
		c0.2,0.1,0.4,0.2,0.6,0.3s0.4,0.1,0.5,0.2l1.3,0.3c0.3,0,0.6,0.1,0.8,0.2c0.3,0.1,0.5,0.3,0.7,0.4c0.2,0.2,0.4,0.4,0.5,0.7
		c0.1,0.3,0.2,0.6,0.2,0.9c0,0.4-0.1,0.8-0.3,1.1s-0.5,0.6-0.8,0.8s-0.7,0.3-1,0.4c-0.4,0.1-0.8,0.1-1.1,0.1c-1,0-1.7-0.2-2.3-0.7
		c-0.6-0.5-0.9-1.2-1-2.2h1c0,0.7,0.3,1.2,0.7,1.5c0.4,0.3,1,0.5,1.7,0.5c0.2,0,0.5,0,0.7-0.1c0.3-0.1,0.5-0.1,0.7-0.3
		c0.2-0.1,0.4-0.3,0.5-0.5s0.2-0.4,0.2-0.7c0-0.2-0.1-0.4-0.1-0.6c-0.1-0.2-0.2-0.3-0.4-0.4c-0.2-0.1-0.4-0.2-0.6-0.3
		s-0.4-0.1-0.7-0.2l-1.3-0.3c-0.3-0.1-0.6-0.2-0.9-0.3c-0.3-0.1-0.5-0.2-0.7-0.4c-0.2-0.2-0.4-0.4-0.5-0.6c-0.1-0.2-0.2-0.5-0.2-0.9
		c0-0.4,0.1-0.8,0.3-1.1c0.2-0.3,0.4-0.5,0.7-0.7c0.3-0.2,0.6-0.3,1-0.4c0.4-0.1,0.7-0.1,1.1-0.1c0.4,0,0.8,0.1,1.1,0.2
		s0.7,0.3,0.9,0.5c0.3,0.2,0.5,0.5,0.6,0.8c0.2,0.3,0.2,0.7,0.3,1.1h-1C123.6,434.6,123.6,434.4,123.5,434.2z"/>
	<path class="st3" d="M129.6,432.6v0.8h-1.7v5.5c0,0.3,0,0.6,0.1,0.8c0.1,0.2,0.3,0.3,0.7,0.3c0.3,0,0.6,0,0.8,0v0.8
		c-0.1,0-0.3,0-0.4,0c-0.1,0-0.3,0-0.4,0c-0.7,0-1.1-0.1-1.4-0.4c-0.3-0.3-0.4-0.7-0.4-1.4v-5.6h-1.4v-0.8h1.4v-2.4h1v2.4H129.6z"/>
	<path class="st3" d="M131.2,433.8c0.2-0.3,0.4-0.6,0.7-0.8s0.6-0.4,1-0.5c0.4-0.1,0.8-0.2,1.3-0.2c0.4,0,0.7,0,1.1,0.1
		c0.4,0.1,0.7,0.2,1,0.4s0.5,0.5,0.7,0.8c0.2,0.3,0.3,0.8,0.3,1.3v4.3c0,0.4,0.2,0.6,0.6,0.6c0.1,0,0.2,0,0.3-0.1v0.8
		c-0.1,0-0.2,0-0.3,0s-0.2,0-0.3,0c-0.3,0-0.5,0-0.6-0.1c-0.2-0.1-0.3-0.2-0.4-0.3c-0.1-0.1-0.1-0.3-0.2-0.4c0-0.2,0-0.4,0-0.6h0
		c-0.2,0.3-0.4,0.5-0.5,0.7c-0.2,0.2-0.4,0.4-0.6,0.5c-0.2,0.1-0.5,0.2-0.8,0.3c-0.3,0.1-0.6,0.1-1,0.1c-0.4,0-0.7,0-1.1-0.1
		c-0.3-0.1-0.6-0.2-0.9-0.4c-0.2-0.2-0.4-0.4-0.6-0.7s-0.2-0.7-0.2-1.1c0-0.6,0.1-1,0.4-1.3c0.3-0.3,0.6-0.6,1-0.7s0.9-0.3,1.4-0.4
		c0.5-0.1,1-0.1,1.6-0.2c0.2,0,0.4,0,0.5-0.1c0.2,0,0.3-0.1,0.4-0.2c0.1-0.1,0.2-0.2,0.2-0.3c0.1-0.1,0.1-0.3,0.1-0.5
		c0-0.3-0.1-0.6-0.2-0.8c-0.1-0.2-0.3-0.4-0.5-0.5c-0.2-0.1-0.4-0.2-0.7-0.3c-0.3,0-0.5-0.1-0.8-0.1c-0.6,0-1.1,0.1-1.5,0.4
		s-0.6,0.8-0.6,1.4h-1C130.9,434.6,131,434.2,131.2,433.8z M136.2,436.3c-0.1,0.1-0.2,0.2-0.4,0.3c-0.2,0.1-0.3,0.1-0.5,0.1
		c-0.4,0.1-0.9,0.1-1.3,0.2c-0.4,0.1-0.9,0.1-1.2,0.3c-0.4,0.1-0.7,0.3-0.9,0.5s-0.4,0.5-0.4,0.9c0,0.3,0,0.5,0.1,0.7
		c0.1,0.2,0.2,0.4,0.4,0.5s0.4,0.2,0.6,0.3c0.2,0.1,0.4,0.1,0.7,0.1c0.4,0,0.7-0.1,1.1-0.2c0.3-0.1,0.6-0.3,0.9-0.5
		c0.3-0.2,0.5-0.5,0.6-0.8c0.2-0.3,0.2-0.7,0.2-1.1L136.2,436.3L136.2,436.3z"/>
	<path class="st3" d="M142.4,432.6v0.8h-1.7v5.5c0,0.3,0,0.6,0.1,0.8c0.1,0.2,0.3,0.3,0.7,0.3c0.3,0,0.6,0,0.8,0v0.8
		c-0.1,0-0.3,0-0.4,0c-0.1,0-0.3,0-0.4,0c-0.7,0-1.1-0.1-1.4-0.4c-0.3-0.3-0.4-0.7-0.4-1.4v-5.6h-1.4v-0.8h1.4v-2.4h1v2.4H142.4z"/>
	<path class="st3" d="M149.5,440.7v-1.5h0c-0.3,0.5-0.6,1-1.1,1.3c-0.5,0.3-1.1,0.4-1.7,0.4c-0.5,0-1-0.1-1.3-0.2s-0.7-0.3-0.9-0.6
		c-0.2-0.3-0.4-0.6-0.5-1c-0.1-0.4-0.2-0.8-0.2-1.3v-5.3h1v5.3c0,0.7,0.2,1.3,0.5,1.7c0.3,0.4,0.9,0.6,1.7,0.6
		c0.4,0,0.8-0.1,1.1-0.3c0.3-0.2,0.6-0.4,0.8-0.7c0.2-0.3,0.3-0.7,0.4-1c0.1-0.4,0.1-0.8,0.1-1.2v-4.3h1v8.1H149.5z"/>
	<path class="st3" d="M156.9,434.2c-0.1-0.2-0.3-0.4-0.5-0.6c-0.2-0.1-0.4-0.3-0.7-0.3s-0.5-0.1-0.8-0.1c-0.2,0-0.4,0-0.7,0.1
		c-0.2,0-0.4,0.1-0.6,0.2c-0.2,0.1-0.3,0.3-0.5,0.4c-0.1,0.2-0.2,0.4-0.2,0.7c0,0.2,0.1,0.4,0.2,0.6c0.1,0.2,0.2,0.3,0.4,0.4
		c0.2,0.1,0.4,0.2,0.6,0.3s0.4,0.1,0.5,0.2l1.3,0.3c0.3,0,0.6,0.1,0.8,0.2c0.3,0.1,0.5,0.3,0.7,0.4c0.2,0.2,0.4,0.4,0.5,0.7
		c0.1,0.3,0.2,0.6,0.2,0.9c0,0.4-0.1,0.8-0.3,1.1s-0.5,0.6-0.8,0.8s-0.7,0.3-1,0.4c-0.4,0.1-0.8,0.1-1.1,0.1c-1,0-1.7-0.2-2.3-0.7
		c-0.6-0.5-0.9-1.2-1-2.2h1c0,0.7,0.3,1.2,0.7,1.5c0.4,0.3,1,0.5,1.7,0.5c0.2,0,0.5,0,0.7-0.1c0.3-0.1,0.5-0.1,0.7-0.3
		c0.2-0.1,0.4-0.3,0.5-0.5s0.2-0.4,0.2-0.7c0-0.2-0.1-0.4-0.1-0.6c-0.1-0.2-0.2-0.3-0.4-0.4c-0.2-0.1-0.4-0.2-0.6-0.3
		s-0.4-0.1-0.7-0.2l-1.3-0.3c-0.3-0.1-0.6-0.2-0.9-0.3c-0.3-0.1-0.5-0.2-0.7-0.4c-0.2-0.2-0.4-0.4-0.5-0.6c-0.1-0.2-0.2-0.5-0.2-0.9
		c0-0.4,0.1-0.8,0.3-1.1c0.2-0.3,0.4-0.5,0.7-0.7c0.3-0.2,0.6-0.3,1-0.4c0.4-0.1,0.7-0.1,1.1-0.1c0.4,0,0.8,0.1,1.1,0.2
		s0.7,0.3,0.9,0.5c0.3,0.2,0.5,0.5,0.6,0.8c0.2,0.3,0.2,0.7,0.3,1.1h-1C157.1,434.6,157.1,434.4,156.9,434.2z"/>
</g>
</svg>
