<?xml version="1.0" encoding="utf-8"?>
<!-- Generator: Adobe Illustrator 19.1.0, SVG Export Plug-In . SVG Version: 6.00 Build 0)  -->
<svg version="1.1" id="Layer_1" xmlns="http://www.w3.org/2000/svg" xmlns:xlink="http://www.w3.org/1999/xlink" x="0px" y="0px"
	 viewBox="-360.9 672.5 215.3 100.3" style="enable-background:new -360.9 672.5 215.3 100.3;" xml:space="preserve">
<style type="text/css">
	.st0{fill:none;}
	.st1{fill:#EB7263;}
	.st2{enable-background:new    ;}
	.st3{fill:#D8A31F;}
</style>
<rect x="-1717.3" y="1439.2" class="st0" width="852" height="197.3"/>
<g>
	<path class="st1" d="M-283.6,724.8h60.6l-30.3-52.3L-283.6,724.8z M-250.5,716.6h-5.5v-5.5h5.5V716.6z M-250.5,705.6h-5.5v-11h5.5
		V705.6z"/>
	<g class="st2">
		<path class="st1" d="M-304.4,752.8l0.4,2.9l0,0l0.4-3l3.7-11.9h1l3.7,11.9l0.4,2.9l0,0l0.5-3l3-11.9h2l-5,18.1h-1.2l-3.6-11.9
			l-0.5-2.7h0.1l-0.5,2.7l-3.6,11.9h-1.2l-5.1-18.1h2.2L-304.4,752.8z"/>
		<path class="st1" d="M-279.1,753.7h-6.5l-1.8,4.9h-2.1l6.7-18.1h1l6.8,18.1h-2.2L-279.1,753.7z M-284.9,751.9h5.2l-2-5.4l-0.6-2.7
			l0,0l-0.6,2.7L-284.9,751.9z"/>
		<path class="st1" d="M-272.7,741.1c0.6-0.1,1.4-0.2,2.2-0.3c0.8-0.1,1.6-0.1,2.3-0.1c0.8,0,1.5,0.1,2.2,0.3
			c0.7,0.2,1.3,0.4,1.9,0.8c0.5,0.4,1,0.9,1.3,1.5c0.3,0.6,0.5,1.4,0.5,2.3c0,1.4-0.4,2.5-1.1,3.4c-0.8,0.9-1.7,1.4-2.9,1.7l1.2,0.9
			l4.4,7h-2.5l-4.9-7.7l-2.5-0.4v8.1h-2.1C-272.7,758.6-272.7,741.1-272.7,741.1z M-268.1,742.5c-0.2,0-0.4,0-0.7,0
			c-0.2,0-0.5,0-0.7,0c-0.2,0-0.4,0-0.6,0.1c-0.2,0-0.4,0-0.5,0.1v6.6h2c1.2,0,2.1-0.3,2.9-0.9c0.8-0.6,1.1-1.5,1.1-2.7
			c0-0.9-0.3-1.7-0.9-2.3C-266.1,742.8-267,742.5-268.1,742.5z"/>
		<path class="st1" d="M-254.3,747l-1.4-2.6h-0.1l0.3,2.6v11.7h-2v-18.1h1.1l8.5,11.9l1.3,2.4h0.1l-0.3-2.4v-11.6h2V759h-1.1
			L-254.3,747z"/>
		<path class="st1" d="M-239.9,740.9h2.1v17.8h-2.1V740.9z"/>
		<path class="st1" d="M-229.8,747l-1.4-2.6h-0.1l0.3,2.6v11.7h-2v-18.1h1.1l8.5,11.9l1.3,2.4h0.1l-0.3-2.4v-11.6h2V759h-1.1
			L-229.8,747z"/>
		<path class="st1" d="M-209.9,749.8h6v7.8c-0.3,0.2-0.6,0.4-1,0.6c-0.4,0.2-0.8,0.3-1.2,0.4s-0.9,0.2-1.3,0.3
			c-0.4,0.1-0.9,0.1-1.4,0.1c-1.1,0-2.2-0.2-3.1-0.5c-0.9-0.4-1.8-0.9-2.5-1.7c-0.7-0.8-1.2-1.7-1.6-2.9c-0.4-1.2-0.6-2.5-0.6-4.1
			c0-1.6,0.2-3.1,0.7-4.2c0.5-1.2,1.1-2.1,1.9-2.9c0.8-0.8,1.6-1.3,2.6-1.6c0.9-0.3,1.9-0.5,2.8-0.5c1,0,1.9,0.1,2.5,0.2
			c0.7,0.1,1.2,0.3,1.7,0.4l-0.5,1.9c-0.8-0.4-2-0.6-3.5-0.6c-0.7,0-1.4,0.1-2.1,0.4c-0.7,0.2-1.3,0.7-1.9,1.2
			c-0.6,0.6-1,1.3-1.4,2.3c-0.4,0.9-0.5,2.1-0.5,3.5c0,1.3,0.1,2.3,0.4,3.3c0.3,0.9,0.7,1.7,1.2,2.3c0.5,0.6,1.1,1.1,1.9,1.3
			c0.7,0.3,1.5,0.4,2.4,0.4c1.1,0,2-0.2,2.8-0.6v-5l-4.1-0.5v-1.3H-209.9z"/>
		<path class="st1" d="M-199.7,757.5c0-0.5,0.1-0.8,0.4-1.1s0.6-0.4,1.1-0.4s0.8,0.1,1.1,0.4s0.4,0.6,0.4,1.1c0,0.4-0.1,0.8-0.4,1.1
			c-0.3,0.3-0.6,0.4-1.1,0.4c-0.4,0-0.8-0.1-1.1-0.4S-199.7,757.9-199.7,757.5z M-199.3,740.9h2.1v8.8l-0.4,4.5h-1.3l-0.4-4.5V740.9
			z"/>
	</g>
	<g>
		<path class="st3" d="M-358.6,769.9l-2.3-4.2h1l1.6,3.1l0.2,0.6h0l0.2-0.6l1.6-3h0.9l-2.3,4.2v2.8h-0.8V769.9z"/>
		<path class="st3" d="M-355.3,769.2c0-1.2,0.2-2.1,0.7-2.7c0.5-0.6,1.2-0.9,2.1-0.9c0.5,0,0.9,0.1,1.3,0.3c0.4,0.2,0.7,0.4,0.9,0.7
			s0.4,0.7,0.5,1.1s0.2,0.9,0.2,1.5c0,1.2-0.2,2.1-0.7,2.7c-0.5,0.6-1.2,0.9-2.1,0.9c-0.5,0-0.9-0.1-1.3-0.3
			c-0.4-0.2-0.7-0.4-0.9-0.7s-0.4-0.7-0.5-1.1S-355.3,769.7-355.3,769.2z M-354.4,769.2c0,0.4,0,0.8,0.1,1.1
			c0.1,0.3,0.2,0.7,0.4,0.9c0.2,0.3,0.4,0.5,0.6,0.6c0.2,0.2,0.5,0.2,0.9,0.2c0.6,0,1.1-0.2,1.5-0.7c0.4-0.5,0.5-1.2,0.5-2.2
			c0-0.4,0-0.7-0.1-1.1c-0.1-0.4-0.2-0.7-0.4-0.9c-0.2-0.3-0.4-0.5-0.6-0.6c-0.2-0.2-0.5-0.2-0.9-0.2c-0.6,0-1.1,0.2-1.4,0.7
			C-354.2,767.5-354.4,768.2-354.4,769.2z"/>
		<path class="st3" d="M-344.1,765.7h0.8v4.7c0,0.4-0.1,0.8-0.2,1.1c-0.1,0.3-0.3,0.6-0.5,0.8c-0.2,0.2-0.4,0.3-0.7,0.4
			c-0.3,0.1-0.6,0.1-0.9,0.1c-0.8,0-1.5-0.2-1.9-0.6c-0.4-0.4-0.6-0.9-0.6-1.7v-4.8h0.8v4.4c0,0.4,0,0.7,0.1,0.9
			c0.1,0.2,0.2,0.4,0.3,0.6c0.1,0.2,0.3,0.3,0.5,0.3s0.5,0.1,0.7,0.1c0.5,0,0.9-0.1,1.2-0.4s0.4-0.8,0.4-1.5V765.7z"/>
		<path class="st3" d="M-336,770.8h-2.6l-0.7,1.9h-0.8l2.6-7.1h0.4l2.7,7.1h-0.9L-336,770.8z M-338.3,770h2l-0.8-2.1l-0.2-1.1h0
			l-0.2,1.1L-338.3,770z"/>
		<path class="st3" d="M-333.4,765.8c0.3,0,0.5-0.1,0.9-0.1s0.6,0,0.9,0c0.3,0,0.6,0,0.9,0.1c0.3,0.1,0.5,0.2,0.7,0.3
			c0.2,0.2,0.4,0.4,0.5,0.6c0.1,0.2,0.2,0.5,0.2,0.9c0,0.5-0.1,1-0.4,1.3c-0.3,0.3-0.7,0.6-1.1,0.7l0.5,0.4l1.7,2.8h-1l-1.9-3
			l-1-0.2v3.2h-0.8V765.8z M-331.6,766.3c-0.1,0-0.2,0-0.3,0s-0.2,0-0.3,0c-0.1,0-0.2,0-0.2,0c-0.1,0-0.1,0-0.2,0v2.6h0.8
			c0.5,0,0.8-0.1,1.1-0.3c0.3-0.2,0.5-0.6,0.5-1.1c0-0.4-0.1-0.7-0.4-0.9C-330.8,766.5-331.2,766.3-331.6,766.3z"/>
		<path class="st3" d="M-327.5,765.7h3.8v0.7h-3v2.3h2.7v0.7h-2.7v2.5h3v0.7h-3.9V765.7z"/>
		<path class="st3" d="M-316.4,770.8h-2.6l-0.7,1.9h-0.8l2.7-7.1h0.4l2.7,7.1h-0.9L-316.4,770.8z M-318.7,770h2l-0.8-2.1l-0.2-1.1h0
			l-0.2,1.1L-318.7,770z"/>
		<path class="st3" d="M-309.7,767.3c0,0.2,0,0.3-0.1,0.5c-0.1,0.2-0.1,0.3-0.2,0.5c-0.1,0.2-0.2,0.3-0.4,0.4s-0.4,0.2-0.6,0.3v0
			c0.2,0,0.4,0.1,0.6,0.2c0.2,0.1,0.3,0.2,0.5,0.3c0.1,0.1,0.3,0.3,0.3,0.5c0.1,0.2,0.1,0.4,0.1,0.7c0,0.4-0.1,0.7-0.2,0.9
			c-0.1,0.3-0.3,0.5-0.6,0.6c-0.2,0.2-0.5,0.3-0.8,0.4s-0.6,0.1-1,0.1c-0.1,0-0.2,0-0.4,0s-0.3,0-0.5,0c-0.2,0-0.3,0-0.5,0
			c-0.2,0-0.3,0-0.4-0.1v-6.9c0.2,0,0.5-0.1,0.9-0.1c0.3,0,0.7,0,1.1,0c0.3,0,0.5,0,0.8,0.1c0.3,0,0.5,0.1,0.7,0.2
			c0.2,0.1,0.4,0.3,0.5,0.5C-309.8,766.7-309.7,767-309.7,767.3z M-312.6,768.8c0.1,0,0.2,0,0.4,0c0.2,0,0.3,0,0.4,0
			c0.2-0.1,0.3-0.1,0.5-0.2c0.1-0.1,0.3-0.2,0.4-0.3s0.2-0.2,0.3-0.4s0.1-0.3,0.1-0.4c0-0.2,0-0.4-0.1-0.5c-0.1-0.1-0.2-0.3-0.3-0.3
			c-0.1-0.1-0.3-0.1-0.5-0.2c-0.2,0-0.4-0.1-0.5-0.1c-0.2,0-0.4,0-0.6,0c-0.2,0-0.3,0-0.4,0v2.4H-312.6z M-312,772.1
			c0.2,0,0.4,0,0.6-0.1s0.4-0.1,0.5-0.2c0.2-0.1,0.3-0.2,0.4-0.4c0.1-0.2,0.1-0.3,0.1-0.6c0-0.3-0.1-0.5-0.2-0.7
			c-0.1-0.2-0.3-0.3-0.4-0.4c-0.2-0.1-0.4-0.2-0.6-0.2s-0.4,0-0.7,0h-0.9v2.5c0,0,0.1,0,0.2,0s0.2,0,0.3,0c0.1,0,0.2,0,0.3,0
			C-312.2,772.1-312.1,772.1-312,772.1z"/>
		<path class="st3" d="M-308.4,769.2c0-1.2,0.2-2.1,0.7-2.7c0.5-0.6,1.2-0.9,2.1-0.9c0.5,0,0.9,0.1,1.3,0.3c0.4,0.2,0.7,0.4,0.9,0.7
			s0.4,0.7,0.5,1.1c0.1,0.4,0.2,0.9,0.2,1.5c0,1.2-0.2,2.1-0.7,2.7c-0.5,0.6-1.2,0.9-2.1,0.9c-0.5,0-0.9-0.1-1.3-0.3
			c-0.4-0.2-0.7-0.4-0.9-0.7s-0.4-0.7-0.5-1.1C-308.3,770.2-308.4,769.7-308.4,769.2z M-307.5,769.2c0,0.4,0,0.8,0.1,1.1
			c0.1,0.3,0.2,0.7,0.4,0.9c0.2,0.3,0.4,0.5,0.6,0.6c0.2,0.2,0.5,0.2,0.9,0.2c0.6,0,1.1-0.2,1.5-0.7s0.5-1.2,0.5-2.2
			c0-0.4,0-0.7-0.1-1.1c-0.1-0.4-0.2-0.7-0.4-0.9c-0.2-0.3-0.4-0.5-0.6-0.6c-0.2-0.2-0.5-0.2-0.9-0.2c-0.6,0-1.1,0.2-1.4,0.7
			C-307.3,767.5-307.5,768.2-307.5,769.2z"/>
		<path class="st3" d="M-297.2,765.7h0.8v4.7c0,0.4-0.1,0.8-0.2,1.1s-0.3,0.6-0.5,0.8c-0.2,0.2-0.4,0.3-0.7,0.4
			c-0.3,0.1-0.6,0.1-1,0.1c-0.8,0-1.4-0.2-1.9-0.6c-0.4-0.4-0.6-0.9-0.6-1.7v-4.8h0.8v4.4c0,0.4,0,0.7,0.1,0.9s0.2,0.4,0.3,0.6
			c0.1,0.2,0.3,0.3,0.5,0.3s0.5,0.1,0.7,0.1c0.5,0,0.9-0.1,1.2-0.4s0.4-0.8,0.4-1.5V765.7z"/>
		<path class="st3" d="M-290.2,766.4h-2.2v6.3h-0.8v-6.3h-2.2v-0.7h5.2V766.4z"/>
		<path class="st3" d="M-282.7,766.4h-2.2v6.3h-0.8v-6.3h-2.2v-0.7h5.2V766.4z"/>
		<path class="st3" d="M-282.4,769.2c0-1.2,0.2-2.1,0.7-2.7c0.5-0.6,1.2-0.9,2.1-0.9c0.5,0,0.9,0.1,1.3,0.3c0.4,0.2,0.7,0.4,0.9,0.7
			s0.4,0.7,0.5,1.1c0.1,0.4,0.2,0.9,0.2,1.5c0,1.2-0.2,2.1-0.7,2.7c-0.5,0.6-1.2,0.9-2.1,0.9c-0.5,0-0.9-0.1-1.3-0.3
			c-0.4-0.2-0.7-0.4-0.9-0.7s-0.4-0.7-0.5-1.1C-282.4,770.2-282.4,769.7-282.4,769.2z M-281.5,769.2c0,0.4,0,0.8,0.1,1.1
			c0.1,0.3,0.2,0.7,0.4,0.9c0.2,0.3,0.4,0.5,0.6,0.6c0.2,0.2,0.5,0.2,0.9,0.2c0.6,0,1.1-0.2,1.5-0.7s0.5-1.2,0.5-2.2
			c0-0.4,0-0.7-0.1-1.1c-0.1-0.4-0.2-0.7-0.4-0.9c-0.2-0.3-0.4-0.5-0.6-0.6c-0.2-0.2-0.5-0.2-0.9-0.2c-0.6,0-1.1,0.2-1.4,0.7
			C-281.4,767.5-281.5,768.2-281.5,769.2z"/>
		<path class="st3" d="M-272.6,765.7c0.1,0,0.3,0,0.4,0c0.2,0,0.3,0,0.5,0c0.2,0,0.3,0,0.5,0c0.2,0,0.3,0,0.5,0c0.6,0,1,0.1,1.5,0.3
			c0.4,0.2,0.7,0.4,1,0.7c0.3,0.3,0.5,0.7,0.6,1.1c0.1,0.4,0.2,0.9,0.2,1.4c0,0.5-0.1,0.9-0.2,1.4s-0.3,0.8-0.6,1.2
			c-0.3,0.3-0.6,0.6-1,0.8s-0.9,0.3-1.5,0.3c-0.1,0-0.2,0-0.4,0s-0.3,0-0.5,0c-0.2,0-0.3,0-0.5,0s-0.3,0-0.3,0V765.7z M-270.7,766.4
			c-0.1,0-0.2,0-0.3,0s-0.2,0-0.3,0c-0.1,0-0.2,0-0.3,0c-0.1,0-0.1,0-0.2,0v5.6c0,0,0.1,0,0.2,0c0.1,0,0.2,0,0.3,0
			c0.1,0,0.2,0,0.3,0c0.1,0,0.2,0,0.2,0c0.5,0,0.9-0.1,1.2-0.2c0.3-0.2,0.6-0.4,0.8-0.6c0.2-0.3,0.3-0.6,0.4-0.9
			c0.1-0.4,0.1-0.7,0.1-1.1c0-0.3,0-0.7-0.1-1s-0.2-0.6-0.4-0.9c-0.2-0.3-0.4-0.5-0.7-0.7C-269.9,766.4-270.3,766.4-270.7,766.4z"/>
		<path class="st3" d="M-266.1,765.7h3.8v0.7h-3v2.3h2.7v0.7h-2.7v2.5h3v0.7h-3.9V765.7z"/>
		<path class="st3" d="M-256.6,772.7h-4.1v-7h0.8v6.3h3.3V772.7z"/>
		<path class="st3" d="M-255.6,765.7h3.8v0.7h-3v2.3h2.7v0.7h-2.7v2.5h3v0.7h-3.9V765.7z"/>
		<path class="st3" d="M-245.7,766.4h-2.2v6.3h-0.8v-6.3h-2.2v-0.7h5.2V766.4z"/>
		<path class="st3" d="M-244.6,765.7h3.8v0.7h-3v2.3h2.7v0.7h-2.7v2.5h3v0.7h-3.9V765.7z"/>
		<path class="st3" d="M-232.4,766.4h-2.2v6.3h-0.8v-6.3h-2.2v-0.7h5.2V766.4z"/>
		<path class="st3" d="M-227.2,769.5h-3.4v3.2h-0.8v-7h0.8v3h3.4v-3h0.8v7h-0.8V769.5z"/>
		<path class="st3" d="M-224.5,765.7h0.8v7h-0.8V765.7z"/>
		<path class="st3" d="M-218.6,770.9c0-0.3-0.1-0.5-0.2-0.7c-0.2-0.2-0.4-0.3-0.6-0.5s-0.5-0.3-0.8-0.4c-0.3-0.1-0.6-0.3-0.8-0.4
			s-0.5-0.4-0.6-0.6s-0.2-0.6-0.2-1c0-0.5,0.2-1,0.6-1.3c0.4-0.3,0.9-0.5,1.6-0.5c0.4,0,0.8,0,1.1,0.1c0.3,0.1,0.6,0.1,0.8,0.2
			l-0.2,0.7c-0.2-0.1-0.4-0.1-0.7-0.2c-0.3-0.1-0.6-0.1-1-0.1c-0.4,0-0.8,0.1-1,0.3s-0.3,0.4-0.3,0.7c0,0.3,0.1,0.5,0.2,0.6
			c0.2,0.2,0.4,0.3,0.6,0.5c0.2,0.1,0.5,0.3,0.8,0.4c0.3,0.1,0.6,0.3,0.8,0.5s0.5,0.4,0.6,0.6c0.2,0.2,0.2,0.6,0.2,0.9
			c0,0.3-0.1,0.6-0.2,0.8s-0.3,0.4-0.5,0.6s-0.5,0.3-0.8,0.4c-0.3,0.1-0.6,0.1-1,0.1c-0.5,0-0.9,0-1.2-0.1c-0.3-0.1-0.6-0.2-0.8-0.3
			l0.3-0.7c0.2,0.1,0.4,0.2,0.7,0.2c0.3,0.1,0.6,0.1,1,0.1c0.2,0,0.4,0,0.6-0.1c0.2,0,0.4-0.1,0.5-0.2c0.1-0.1,0.3-0.2,0.3-0.4
			C-218.6,771.3-218.6,771.1-218.6,770.9z"/>
		<path class="st3" d="M-210.8,770.8h-2.6l-0.7,1.9h-0.8l2.7-7.1h0.4l2.7,7.1h-0.9L-210.8,770.8z M-213.1,770h2l-0.8-2.1l-0.2-1.1h0
			l-0.2,1.1L-213.1,770z"/>
		<path class="st3" d="M-208.2,765.8c0.3-0.1,0.5-0.1,0.8-0.1c0.3,0,0.6,0,0.9,0c0.3,0,0.6,0,0.9,0.1c0.3,0.1,0.6,0.2,0.9,0.3
			s0.5,0.4,0.6,0.7c0.2,0.3,0.2,0.6,0.2,1.1c0,0.4-0.1,0.8-0.2,1.1c-0.2,0.3-0.4,0.5-0.6,0.7s-0.5,0.3-0.9,0.4
			c-0.3,0.1-0.7,0.1-1,0.1c0,0-0.1,0-0.2,0c-0.1,0-0.2,0-0.2,0c-0.1,0-0.2,0-0.2,0s-0.1,0-0.2,0v2.7h-0.8V765.8z M-206.5,766.3
			c-0.2,0-0.3,0-0.5,0c-0.2,0-0.3,0-0.4,0v2.9c0,0,0.1,0,0.2,0c0.1,0,0.2,0,0.2,0c0.1,0,0.2,0,0.2,0s0.1,0,0.2,0
			c0.2,0,0.5,0,0.7-0.1c0.2,0,0.4-0.1,0.6-0.2c0.2-0.1,0.3-0.3,0.4-0.5c0.1-0.2,0.2-0.5,0.2-0.8c0-0.3-0.1-0.5-0.2-0.7
			c-0.1-0.2-0.2-0.3-0.4-0.4c-0.2-0.1-0.4-0.2-0.6-0.2C-206.1,766.4-206.3,766.3-206.5,766.3z"/>
		<path class="st3" d="M-202.6,765.8c0.3-0.1,0.5-0.1,0.8-0.1c0.3,0,0.6,0,0.9,0c0.3,0,0.6,0,0.9,0.1c0.3,0.1,0.6,0.2,0.9,0.3
			s0.5,0.4,0.6,0.7c0.2,0.3,0.2,0.6,0.2,1.1c0,0.4-0.1,0.8-0.2,1.1c-0.2,0.3-0.4,0.5-0.6,0.7s-0.5,0.3-0.9,0.4
			c-0.3,0.1-0.7,0.1-1,0.1c0,0-0.1,0-0.2,0c-0.1,0-0.2,0-0.2,0c-0.1,0-0.2,0-0.2,0s-0.1,0-0.2,0v2.7h-0.8V765.8z M-200.9,766.3
			c-0.2,0-0.3,0-0.5,0c-0.2,0-0.3,0-0.4,0v2.9c0,0,0.1,0,0.2,0c0.1,0,0.2,0,0.2,0c0.1,0,0.2,0,0.2,0s0.1,0,0.2,0
			c0.2,0,0.5,0,0.7-0.1c0.2,0,0.4-0.1,0.6-0.2c0.2-0.1,0.3-0.3,0.4-0.5c0.1-0.2,0.2-0.5,0.2-0.8c0-0.3-0.1-0.5-0.2-0.7
			c-0.1-0.2-0.2-0.3-0.4-0.4c-0.2-0.1-0.4-0.2-0.6-0.2C-200.5,766.4-200.7,766.3-200.9,766.3z"/>
		<path class="st3" d="M-197.5,769.2c0-1.2,0.2-2.1,0.7-2.7c0.5-0.6,1.2-0.9,2.1-0.9c0.5,0,0.9,0.1,1.3,0.3c0.4,0.2,0.7,0.4,0.9,0.7
			s0.4,0.7,0.5,1.1c0.1,0.4,0.2,0.9,0.2,1.5c0,1.2-0.2,2.1-0.7,2.7c-0.5,0.6-1.2,0.9-2.1,0.9c-0.5,0-0.9-0.1-1.3-0.3
			c-0.4-0.2-0.7-0.4-0.9-0.7s-0.4-0.7-0.5-1.1C-197.5,770.2-197.5,769.7-197.5,769.2z M-196.6,769.2c0,0.4,0,0.8,0.1,1.1
			c0.1,0.3,0.2,0.7,0.4,0.9c0.2,0.3,0.4,0.5,0.6,0.6c0.2,0.2,0.5,0.2,0.9,0.2c0.6,0,1.1-0.2,1.5-0.7s0.5-1.2,0.5-2.2
			c0-0.4,0-0.7-0.1-1.1c-0.1-0.4-0.2-0.7-0.4-0.9c-0.2-0.3-0.4-0.5-0.6-0.6c-0.2-0.2-0.5-0.2-0.9-0.2c-0.6,0-1.1,0.2-1.4,0.7
			C-196.5,767.5-196.6,768.2-196.6,769.2z"/>
		<path class="st3" d="M-186.3,766.4h-2.2v6.3h-0.8v-6.3h-2.2v-0.7h5.2V766.4z"/>
		<path class="st3" d="M-185.1,765.7h0.8v7h-0.8V765.7z"/>
		<path class="st3" d="M-181.1,768.1l-0.5-1h0l0.1,1v4.6h-0.8v-7.1h0.4l3.3,4.7l0.5,1h0l-0.1-1v-4.6h0.8v7.1h-0.4L-181.1,768.1z"/>
		<path class="st3" d="M-171.2,766.4h-2.2v6.3h-0.8v-6.3h-2.2v-0.7h5.2V766.4z"/>
		<path class="st3" d="M-164.7,768l0.1-1h0l-0.4,1l-1.8,3.2h-0.2l-1.9-3.2l-0.4-1h0l0.1,1v4.7h-0.8v-7h0.6l2.2,3.6l0.3,0.8h0
			l0.3-0.8l2.1-3.6h0.6v7h-0.8V768z"/>
		<path class="st3" d="M-162.2,765.7h3.8v0.7h-3v2.3h2.7v0.7h-2.7v2.5h3v0.7h-3.9V765.7z"/>
		<path class="st3" d="M-155.6,768.1l-0.5-1h0l0.1,1v4.6h-0.8v-7.1h0.4l3.3,4.7l0.5,1h0l-0.1-1v-4.6h0.8v7.1h-0.4L-155.6,768.1z"/>
		<path class="st3" d="M-145.6,766.4h-2.2v6.3h-0.8v-6.3h-2.2v-0.7h5.2V766.4z"/>
	</g>
</g>
</svg>
