<?xml version="1.0" encoding="utf-8"?>
<!-- Generator: Adobe Illustrator 19.1.0, SVG Export Plug-In . SVG Version: 6.00 Build 0)  -->
<svg version="1.1" id="Layer_1" xmlns="http://www.w3.org/2000/svg" xmlns:xlink="http://www.w3.org/1999/xlink" x="0px" y="0px"
	 viewBox="-153.4 328.8 207.2 106.3" style="enable-background:new -153.4 328.8 207.2 106.3;" xml:space="preserve">
<style type="text/css">
	.st0{fill:none;}
	.st1{fill:#EB7263;}
	.st2{enable-background:new    ;}
	.st3{fill:#010002;}
</style>
<rect x="-1516.3" y="1095.5" class="st0" width="852" height="197.3"/>
<g>
	<path class="st1" d="M-80.1,381.1h60.6l-30.3-52.3L-80.1,381.1z M-47,372.9h-5.5v-5.5h5.5V372.9z M-47,361.9h-5.5v-11h5.5V361.9z"
		/>
	<g class="st2">
		<path class="st1" d="M-100.9,409.1l0.4,2.9h0l0.4-3l3.7-11.9h1l3.7,11.9l0.4,2.9h0l0.5-3l3-11.9h2l-5,18.1h-1.2l-3.6-11.9
			l-0.5-2.7H-96l-0.5,2.7l-3.6,11.9h-1.2l-5.1-18.1h2.2L-100.9,409.1z"/>
		<path class="st1" d="M-75.6,410h-6.5l-1.8,4.9H-86l6.7-18.1h1l6.8,18.1h-2.2L-75.6,410z M-81.4,408.2h5.2l-2-5.4l-0.6-2.7h0
			l-0.6,2.7L-81.4,408.2z"/>
		<path class="st1" d="M-69.2,397.4c0.6-0.1,1.4-0.2,2.2-0.3c0.8-0.1,1.6-0.1,2.3-0.1c0.8,0,1.5,0.1,2.2,0.3
			c0.7,0.2,1.3,0.4,1.9,0.8c0.5,0.4,1,0.9,1.3,1.5c0.3,0.6,0.5,1.4,0.5,2.3c0,1.4-0.4,2.5-1.1,3.4c-0.8,0.9-1.7,1.4-2.9,1.7l1.2,0.9
			l4.4,7h-2.5l-4.9-7.7l-2.5-0.4v8.1h-2.1V397.4z M-64.6,398.8c-0.2,0-0.4,0-0.7,0c-0.2,0-0.5,0-0.7,0c-0.2,0-0.4,0-0.6,0.1
			c-0.2,0-0.4,0-0.5,0.1v6.6h2c1.2,0,2.1-0.3,2.9-0.9s1.1-1.5,1.1-2.7c0-0.9-0.3-1.7-0.9-2.3C-62.6,399.1-63.5,398.8-64.6,398.8z"/>
		<path class="st1" d="M-50.8,403.3l-1.4-2.6h-0.1l0.3,2.6V415h-2v-18.1h1.1l8.5,11.9l1.3,2.4h0.1l-0.3-2.4v-11.6h2v18.1h-1.1
			L-50.8,403.3z"/>
		<path class="st1" d="M-36.4,397.2h2.1V415h-2.1V397.2z"/>
		<path class="st1" d="M-26.3,403.3l-1.4-2.6h-0.1l0.3,2.6V415h-2v-18.1h1.1l8.5,11.9l1.3,2.4h0.1l-0.3-2.4v-11.6h2v18.1h-1.1
			L-26.3,403.3z"/>
		<path class="st1" d="M-6.4,406.1h6v7.8c-0.3,0.2-0.6,0.4-1,0.6c-0.4,0.2-0.8,0.3-1.2,0.4c-0.4,0.1-0.9,0.2-1.3,0.3
			s-0.9,0.1-1.4,0.1c-1.1,0-2.2-0.2-3.1-0.5c-0.9-0.4-1.8-0.9-2.5-1.7c-0.7-0.8-1.2-1.7-1.6-2.9c-0.4-1.2-0.6-2.5-0.6-4.1
			c0-1.6,0.2-3.1,0.7-4.2c0.5-1.2,1.1-2.1,1.9-2.9s1.6-1.3,2.6-1.6c0.9-0.3,1.9-0.5,2.8-0.5c1,0,1.9,0.1,2.5,0.2
			c0.7,0.1,1.2,0.3,1.7,0.4l-0.5,1.9c-0.8-0.4-2-0.6-3.5-0.6c-0.7,0-1.4,0.1-2.1,0.4c-0.7,0.2-1.3,0.7-1.9,1.2
			c-0.6,0.6-1,1.3-1.4,2.3c-0.4,0.9-0.5,2.1-0.5,3.5c0,1.3,0.1,2.3,0.4,3.3c0.3,0.9,0.7,1.7,1.2,2.3c0.5,0.6,1.1,1.1,1.9,1.3
			c0.7,0.3,1.5,0.4,2.4,0.4c1.1,0,2-0.2,2.8-0.6v-5l-4.1-0.5V406.1z"/>
		<path class="st1" d="M3.8,413.8c0-0.5,0.1-0.8,0.4-1.1s0.6-0.4,1.1-0.4c0.5,0,0.8,0.1,1.1,0.4c0.3,0.3,0.4,0.6,0.4,1.1
			c0,0.4-0.1,0.8-0.4,1.1c-0.3,0.3-0.6,0.4-1.1,0.4c-0.4,0-0.8-0.1-1.1-0.4C3.9,414.6,3.8,414.2,3.8,413.8z M4.2,397.2h2.1v8.8
			l-0.4,4.5H4.6L4.2,406V397.2z"/>
	</g>
	<g class="st2">
		<path class="st3" d="M-152.4,424.9l2.5,6.4l2.3-6.4h0.9l-3.3,8.6c-0.1,0.3-0.3,0.6-0.4,0.8s-0.2,0.4-0.4,0.5
			c-0.1,0.1-0.3,0.2-0.5,0.3c-0.2,0.1-0.4,0.1-0.7,0.1c-0.2,0-0.3,0-0.4,0c-0.1,0-0.2,0-0.3-0.1v-0.8c0.1,0,0.2,0,0.3,0.1
			c0.1,0,0.2,0,0.3,0c0.2,0,0.4,0,0.5-0.1c0.1-0.1,0.2-0.1,0.3-0.2c0.1-0.1,0.2-0.2,0.2-0.4c0.1-0.1,0.1-0.3,0.2-0.5l0.3-0.8l-3-7.5
			H-152.4z"/>
		<path class="st3" d="M-141.1,425c0.4,0.2,0.8,0.5,1.1,0.9s0.5,0.8,0.7,1.3s0.2,1,0.2,1.5c0,0.5-0.1,1.1-0.2,1.5
			c-0.2,0.5-0.4,0.9-0.7,1.3s-0.7,0.6-1.1,0.8c-0.4,0.2-0.9,0.3-1.5,0.3c-0.6,0-1.1-0.1-1.5-0.3c-0.4-0.2-0.8-0.5-1.1-0.8
			c-0.3-0.4-0.5-0.8-0.7-1.3c-0.2-0.5-0.2-1-0.2-1.5c0-0.5,0.1-1.1,0.2-1.5c0.2-0.5,0.4-0.9,0.7-1.3c0.3-0.4,0.7-0.6,1.1-0.9
			c0.4-0.2,0.9-0.3,1.5-0.3C-142.1,424.7-141.6,424.8-141.1,425z M-143.8,425.7c-0.3,0.2-0.6,0.4-0.8,0.7c-0.2,0.3-0.4,0.6-0.5,1
			c-0.1,0.4-0.2,0.8-0.2,1.2s0.1,0.8,0.2,1.2c0.1,0.4,0.3,0.7,0.5,1c0.2,0.3,0.5,0.5,0.8,0.7c0.3,0.2,0.7,0.3,1.1,0.3
			s0.8-0.1,1.1-0.3c0.3-0.2,0.6-0.4,0.8-0.7c0.2-0.3,0.4-0.6,0.5-1c0.1-0.4,0.2-0.8,0.2-1.2s-0.1-0.8-0.2-1.2
			c-0.1-0.4-0.3-0.7-0.5-1c-0.2-0.3-0.5-0.5-0.8-0.7s-0.7-0.3-1.1-0.3S-143.5,425.5-143.8,425.7z"/>
		<path class="st3" d="M-132.5,432.4V431h0c-0.2,0.5-0.6,0.9-1.1,1.2c-0.5,0.3-1,0.4-1.5,0.4c-0.5,0-0.9-0.1-1.2-0.2
			c-0.3-0.1-0.6-0.3-0.8-0.6c-0.2-0.2-0.4-0.5-0.5-0.9c-0.1-0.3-0.1-0.7-0.1-1.2v-4.9h0.9v4.9c0,0.7,0.2,1.2,0.5,1.5
			c0.3,0.3,0.8,0.5,1.5,0.5c0.4,0,0.7-0.1,1-0.3c0.3-0.2,0.5-0.4,0.7-0.7c0.2-0.3,0.3-0.6,0.4-1c0.1-0.4,0.1-0.7,0.1-1.1v-3.9h0.9
			v7.5H-132.5z"/>
		<path class="st3" d="M-125.7,426.1c0.2-0.3,0.4-0.6,0.6-0.8c0.3-0.2,0.6-0.4,0.9-0.5s0.8-0.1,1.2-0.1c0.3,0,0.7,0,1,0.1
			c0.3,0.1,0.6,0.2,0.9,0.4c0.3,0.2,0.5,0.4,0.6,0.7c0.2,0.3,0.2,0.7,0.2,1.2v4c0,0.4,0.2,0.6,0.5,0.6c0.1,0,0.2,0,0.3-0.1v0.8
			c-0.1,0-0.2,0-0.3,0s-0.2,0-0.3,0c-0.2,0-0.4,0-0.6-0.1c-0.1-0.1-0.2-0.2-0.3-0.3c-0.1-0.1-0.1-0.3-0.2-0.4c0-0.2,0-0.3,0-0.5h0
			c-0.2,0.2-0.3,0.5-0.5,0.6c-0.2,0.2-0.4,0.3-0.6,0.5c-0.2,0.1-0.4,0.2-0.7,0.3c-0.3,0.1-0.6,0.1-1,0.1c-0.3,0-0.7,0-1-0.1
			s-0.6-0.2-0.8-0.4c-0.2-0.2-0.4-0.4-0.5-0.7c-0.1-0.3-0.2-0.6-0.2-1c0-0.5,0.1-0.9,0.3-1.2s0.5-0.5,0.9-0.7
			c0.4-0.2,0.8-0.3,1.3-0.3c0.5-0.1,1-0.1,1.5-0.2c0.2,0,0.4,0,0.5-0.1c0.1,0,0.3-0.1,0.4-0.2s0.2-0.2,0.2-0.3
			c0.1-0.1,0.1-0.3,0.1-0.5c0-0.3-0.1-0.6-0.2-0.8c-0.1-0.2-0.2-0.4-0.4-0.5s-0.4-0.2-0.6-0.2c-0.2,0-0.5-0.1-0.8-0.1
			c-0.6,0-1.1,0.1-1.4,0.4c-0.4,0.3-0.6,0.7-0.6,1.3h-0.9C-126,426.8-125.9,426.4-125.7,426.1z M-121.1,428.3
			c-0.1,0.1-0.2,0.2-0.3,0.2c-0.2,0-0.3,0.1-0.4,0.1c-0.4,0.1-0.8,0.1-1.2,0.2c-0.4,0.1-0.8,0.1-1.1,0.2c-0.3,0.1-0.6,0.3-0.8,0.5
			c-0.2,0.2-0.3,0.5-0.3,0.8c0,0.2,0,0.4,0.1,0.6c0.1,0.2,0.2,0.3,0.4,0.5c0.2,0.1,0.3,0.2,0.5,0.3c0.2,0.1,0.4,0.1,0.6,0.1
			c0.3,0,0.7-0.1,1-0.2c0.3-0.1,0.6-0.3,0.8-0.5s0.4-0.5,0.6-0.7c0.1-0.3,0.2-0.6,0.2-1L-121.1,428.3L-121.1,428.3z"/>
		<path class="st3" d="M-117.5,424.9v1.8h0c0.2-0.6,0.6-1.1,1.1-1.4c0.5-0.3,1.1-0.5,1.8-0.5v0.9c-0.4,0-0.8,0-1.1,0.2
			s-0.6,0.3-0.9,0.6s-0.4,0.5-0.6,0.9s-0.2,0.7-0.2,1.1v4h-0.9v-7.5H-117.5z"/>
		<path class="st3" d="M-113.4,429.9c0.1,0.4,0.2,0.7,0.4,1c0.2,0.3,0.5,0.5,0.8,0.7c0.3,0.2,0.7,0.3,1.1,0.3c0.7,0,1.2-0.2,1.6-0.5
			c0.4-0.3,0.6-0.8,0.8-1.4h0.9c-0.2,0.9-0.5,1.5-1.1,2s-1.3,0.7-2.2,0.7c-0.6,0-1.1-0.1-1.5-0.3c-0.4-0.2-0.8-0.5-1.1-0.9
			c-0.3-0.4-0.5-0.8-0.6-1.3c-0.1-0.5-0.2-1-0.2-1.5c0-0.5,0.1-1,0.2-1.5c0.1-0.5,0.3-0.9,0.6-1.3c0.3-0.4,0.6-0.7,1.1-0.9
			c0.4-0.2,0.9-0.3,1.5-0.3c0.6,0,1.1,0.1,1.5,0.4s0.8,0.6,1,1c0.3,0.4,0.5,0.8,0.6,1.4c0.1,0.5,0.2,1,0.1,1.5h-5.8
			C-113.5,429.2-113.5,429.6-113.4,429.9z M-108.8,427.1c-0.1-0.3-0.3-0.6-0.5-0.8c-0.2-0.2-0.5-0.4-0.7-0.6s-0.6-0.2-1-0.2
			c-0.4,0-0.7,0.1-1,0.2s-0.5,0.3-0.7,0.6c-0.2,0.2-0.4,0.5-0.5,0.9c-0.1,0.3-0.2,0.7-0.2,1h4.9
			C-108.7,427.8-108.7,427.4-108.8,427.1z"/>
		<path class="st3" d="M-102.3,426.1c0.2-0.3,0.4-0.6,0.6-0.8c0.3-0.2,0.6-0.4,0.9-0.5s0.8-0.1,1.2-0.1c0.3,0,0.7,0,1,0.1
			c0.3,0.1,0.6,0.2,0.9,0.4c0.3,0.2,0.5,0.4,0.6,0.7c0.2,0.3,0.2,0.7,0.2,1.2v4c0,0.4,0.2,0.6,0.5,0.6c0.1,0,0.2,0,0.3-0.1v0.8
			c-0.1,0-0.2,0-0.3,0s-0.2,0-0.3,0c-0.2,0-0.4,0-0.6-0.1c-0.1-0.1-0.2-0.2-0.3-0.3c-0.1-0.1-0.1-0.3-0.2-0.4c0-0.2,0-0.3,0-0.5h0
			c-0.2,0.2-0.3,0.5-0.5,0.6c-0.2,0.2-0.4,0.3-0.6,0.5c-0.2,0.1-0.4,0.2-0.7,0.3c-0.3,0.1-0.6,0.1-1,0.1c-0.3,0-0.7,0-1-0.1
			s-0.6-0.2-0.8-0.4c-0.2-0.2-0.4-0.4-0.5-0.7c-0.1-0.3-0.2-0.6-0.2-1c0-0.5,0.1-0.9,0.3-1.2s0.5-0.5,0.9-0.7
			c0.4-0.2,0.8-0.3,1.3-0.3c0.5-0.1,1-0.1,1.5-0.2c0.2,0,0.4,0,0.5-0.1c0.1,0,0.3-0.1,0.4-0.2s0.2-0.2,0.2-0.3
			c0.1-0.1,0.1-0.3,0.1-0.5c0-0.3-0.1-0.6-0.2-0.8c-0.1-0.2-0.2-0.4-0.4-0.5s-0.4-0.2-0.6-0.2c-0.2,0-0.5-0.1-0.8-0.1
			c-0.6,0-1.1,0.1-1.4,0.4c-0.4,0.3-0.6,0.7-0.6,1.3h-0.9C-102.5,426.8-102.4,426.4-102.3,426.1z M-97.7,428.3
			c-0.1,0.1-0.2,0.2-0.3,0.2c-0.2,0-0.3,0.1-0.4,0.1c-0.4,0.1-0.8,0.1-1.2,0.2c-0.4,0.1-0.8,0.1-1.1,0.2c-0.3,0.1-0.6,0.3-0.8,0.5
			c-0.2,0.2-0.3,0.5-0.3,0.8c0,0.2,0,0.4,0.1,0.6c0.1,0.2,0.2,0.3,0.4,0.5c0.2,0.1,0.3,0.2,0.5,0.3c0.2,0.1,0.4,0.1,0.6,0.1
			c0.3,0,0.7-0.1,1-0.2c0.3-0.1,0.6-0.3,0.8-0.5s0.4-0.5,0.6-0.7c0.1-0.3,0.2-0.6,0.2-1L-97.7,428.3L-97.7,428.3z"/>
		<path class="st3" d="M-94,422v4.3h0c0.1-0.3,0.2-0.5,0.4-0.7s0.4-0.4,0.6-0.5s0.5-0.2,0.8-0.3c0.3-0.1,0.5-0.1,0.8-0.1
			c0.6,0,1.1,0.1,1.5,0.3s0.8,0.5,1.1,0.9s0.5,0.8,0.6,1.3c0.1,0.5,0.2,1,0.2,1.5c0,0.5-0.1,1-0.2,1.5c-0.1,0.5-0.3,0.9-0.6,1.3
			s-0.6,0.6-1.1,0.9c-0.4,0.2-0.9,0.3-1.5,0.3c-0.6,0-1.2-0.1-1.6-0.4c-0.5-0.3-0.8-0.7-1-1.2h0v1.4h-0.8V422H-94z M-89.1,427.5
			c-0.1-0.4-0.2-0.7-0.4-1c-0.2-0.3-0.5-0.5-0.8-0.7c-0.3-0.2-0.7-0.3-1.1-0.3c-0.5,0-0.9,0.1-1.2,0.3c-0.3,0.2-0.6,0.4-0.8,0.7
			c-0.2,0.3-0.4,0.6-0.5,1c-0.1,0.4-0.1,0.8-0.1,1.2s0,0.8,0.1,1.2c0.1,0.4,0.2,0.7,0.5,1c0.2,0.3,0.5,0.5,0.8,0.7
			c0.3,0.2,0.7,0.3,1.2,0.3c0.4,0,0.8-0.1,1.1-0.3c0.3-0.2,0.6-0.4,0.8-0.7c0.2-0.3,0.3-0.6,0.4-1c0.1-0.4,0.1-0.8,0.1-1.2
			S-89,427.9-89.1,427.5z"/>
		<path class="st3" d="M-81.9,425c0.4,0.2,0.8,0.5,1.1,0.9s0.5,0.8,0.7,1.3s0.2,1,0.2,1.5c0,0.5-0.1,1.1-0.2,1.5
			c-0.2,0.5-0.4,0.9-0.7,1.3s-0.7,0.6-1.1,0.8c-0.4,0.2-0.9,0.3-1.5,0.3c-0.6,0-1.1-0.1-1.5-0.3c-0.4-0.2-0.8-0.5-1.1-0.8
			c-0.3-0.4-0.5-0.8-0.7-1.3c-0.2-0.5-0.2-1-0.2-1.5c0-0.5,0.1-1.1,0.2-1.5c0.2-0.5,0.4-0.9,0.7-1.3c0.3-0.4,0.7-0.6,1.1-0.9
			c0.4-0.2,0.9-0.3,1.5-0.3C-82.9,424.7-82.4,424.8-81.9,425z M-84.6,425.7c-0.3,0.2-0.6,0.4-0.8,0.7c-0.2,0.3-0.4,0.6-0.5,1
			c-0.1,0.4-0.2,0.8-0.2,1.2s0.1,0.8,0.2,1.2c0.1,0.4,0.3,0.7,0.5,1c0.2,0.3,0.5,0.5,0.8,0.7c0.3,0.2,0.7,0.3,1.1,0.3
			s0.8-0.1,1.1-0.3c0.3-0.2,0.6-0.4,0.8-0.7c0.2-0.3,0.4-0.6,0.5-1c0.1-0.4,0.2-0.8,0.2-1.2s-0.1-0.8-0.2-1.2
			c-0.1-0.4-0.3-0.7-0.5-1c-0.2-0.3-0.5-0.5-0.8-0.7s-0.7-0.3-1.1-0.3S-84.3,425.5-84.6,425.7z"/>
		<path class="st3" d="M-73.3,432.4V431h0c-0.2,0.5-0.6,0.9-1.1,1.2c-0.5,0.3-1,0.4-1.5,0.4c-0.5,0-0.9-0.1-1.2-0.2
			c-0.3-0.1-0.6-0.3-0.8-0.6c-0.2-0.2-0.4-0.5-0.5-0.9c-0.1-0.3-0.1-0.7-0.1-1.2v-4.9h0.9v4.9c0,0.7,0.2,1.2,0.5,1.5
			c0.3,0.3,0.8,0.5,1.5,0.5c0.4,0,0.7-0.1,1-0.3c0.3-0.2,0.5-0.4,0.7-0.7c0.2-0.3,0.3-0.6,0.4-1c0.1-0.4,0.1-0.7,0.1-1.1v-3.9h0.9
			v7.5H-73.3z"/>
		<path class="st3" d="M-67.7,424.9v0.8h-1.5v5.1c0,0.3,0,0.5,0.1,0.7c0.1,0.2,0.3,0.3,0.6,0.3c0.3,0,0.5,0,0.8,0v0.8
			c-0.1,0-0.3,0-0.4,0c-0.1,0-0.3,0-0.4,0c-0.6,0-1-0.1-1.3-0.4s-0.4-0.7-0.3-1.3v-5.1h-1.3v-0.8h1.3v-2.3h0.9v2.3H-67.7z"/>
		<path class="st3" d="M-59.4,424.9v0.8h-1.5v5.1c0,0.3,0,0.5,0.1,0.7c0.1,0.2,0.3,0.3,0.6,0.3c0.3,0,0.5,0,0.8,0v0.8
			c-0.1,0-0.3,0-0.4,0c-0.1,0-0.3,0-0.4,0c-0.6,0-1-0.1-1.3-0.4s-0.4-0.7-0.3-1.3v-5.1h-1.3v-0.8h1.3v-2.3h0.9v2.3H-59.4z"/>
		<path class="st3" d="M-53.4,425c0.4,0.2,0.8,0.5,1.1,0.9s0.5,0.8,0.7,1.3s0.2,1,0.2,1.5c0,0.5-0.1,1.1-0.2,1.5
			c-0.2,0.5-0.4,0.9-0.7,1.3s-0.7,0.6-1.1,0.8c-0.4,0.2-0.9,0.3-1.5,0.3c-0.6,0-1.1-0.1-1.5-0.3c-0.4-0.2-0.8-0.5-1.1-0.8
			c-0.3-0.4-0.5-0.8-0.7-1.3c-0.2-0.5-0.2-1-0.2-1.5c0-0.5,0.1-1.1,0.2-1.5c0.2-0.5,0.4-0.9,0.7-1.3c0.3-0.4,0.7-0.6,1.1-0.9
			c0.4-0.2,0.9-0.3,1.5-0.3C-54.3,424.7-53.8,424.8-53.4,425z M-56.1,425.7c-0.3,0.2-0.6,0.4-0.8,0.7c-0.2,0.3-0.4,0.6-0.5,1
			c-0.1,0.4-0.2,0.8-0.2,1.2s0.1,0.8,0.2,1.2c0.1,0.4,0.3,0.7,0.5,1c0.2,0.3,0.5,0.5,0.8,0.7c0.3,0.2,0.7,0.3,1.1,0.3
			s0.8-0.1,1.1-0.3c0.3-0.2,0.6-0.4,0.8-0.7c0.2-0.3,0.4-0.6,0.5-1c0.1-0.4,0.2-0.8,0.2-1.2s-0.1-0.8-0.2-1.2
			c-0.1-0.4-0.3-0.7-0.5-1c-0.2-0.3-0.5-0.5-0.8-0.7s-0.7-0.3-1.1-0.3S-55.7,425.5-56.1,425.7z"/>
		<path class="st3" d="M-40.2,432.4V431h0c-0.1,0.2-0.2,0.5-0.4,0.7c-0.2,0.2-0.4,0.4-0.6,0.5c-0.2,0.1-0.5,0.2-0.8,0.3
			c-0.3,0.1-0.5,0.1-0.8,0.1c-0.6,0-1.1-0.1-1.5-0.3c-0.4-0.2-0.8-0.5-1.1-0.9s-0.5-0.8-0.6-1.3c-0.1-0.5-0.2-1-0.2-1.5
			c0-0.5,0.1-1,0.2-1.5c0.1-0.5,0.3-0.9,0.6-1.3s0.6-0.7,1.1-0.9c0.4-0.2,0.9-0.3,1.5-0.3c0.3,0,0.6,0,0.8,0.1
			c0.3,0.1,0.5,0.2,0.7,0.3s0.4,0.3,0.6,0.5c0.2,0.2,0.3,0.4,0.4,0.7h0V422h0.9v10.4H-40.2z M-45.2,429.8c0.1,0.4,0.2,0.7,0.4,1
			c0.2,0.3,0.5,0.5,0.8,0.7c0.3,0.2,0.7,0.3,1.1,0.3c0.5,0,0.9-0.1,1.2-0.3c0.3-0.2,0.6-0.4,0.8-0.7c0.2-0.3,0.4-0.6,0.5-1
			c0.1-0.4,0.1-0.8,0.1-1.2s0-0.8-0.1-1.2c-0.1-0.4-0.2-0.7-0.5-1c-0.2-0.3-0.5-0.5-0.8-0.7c-0.3-0.2-0.7-0.3-1.2-0.3
			c-0.4,0-0.8,0.1-1.1,0.3c-0.3,0.2-0.6,0.4-0.8,0.7c-0.2,0.3-0.3,0.6-0.4,1c-0.1,0.4-0.1,0.8-0.1,1.2S-45.3,429.4-45.2,429.8z"/>
		<path class="st3" d="M-37,429.9c0.1,0.4,0.2,0.7,0.4,1c0.2,0.3,0.5,0.5,0.8,0.7c0.3,0.2,0.7,0.3,1.1,0.3c0.7,0,1.2-0.2,1.6-0.5
			c0.4-0.3,0.6-0.8,0.8-1.4h0.9c-0.2,0.9-0.5,1.5-1.1,2s-1.3,0.7-2.2,0.7c-0.6,0-1.1-0.1-1.5-0.3c-0.4-0.2-0.8-0.5-1.1-0.9
			c-0.3-0.4-0.5-0.8-0.6-1.3c-0.1-0.5-0.2-1-0.2-1.5c0-0.5,0.1-1,0.2-1.5c0.1-0.5,0.3-0.9,0.6-1.3c0.3-0.4,0.6-0.7,1.1-0.9
			c0.4-0.2,0.9-0.3,1.5-0.3c0.6,0,1.1,0.1,1.5,0.4s0.8,0.6,1,1c0.3,0.4,0.5,0.8,0.6,1.4c0.1,0.5,0.2,1,0.1,1.5h-5.8
			C-37.1,429.2-37,429.6-37,429.9z M-32.4,427.1c-0.1-0.3-0.3-0.6-0.5-0.8c-0.2-0.2-0.5-0.4-0.7-0.6s-0.6-0.2-1-0.2
			c-0.4,0-0.7,0.1-1,0.2s-0.5,0.3-0.7,0.6c-0.2,0.2-0.4,0.5-0.5,0.9c-0.1,0.3-0.2,0.7-0.2,1h4.9C-32.3,427.8-32.3,427.4-32.4,427.1z
			"/>
		<path class="st3" d="M-29.2,422v10.4h-0.9V422H-29.2z"/>
		<path class="st3" d="M-26.7,429.9c0.1,0.4,0.2,0.7,0.4,1c0.2,0.3,0.5,0.5,0.8,0.7c0.3,0.2,0.7,0.3,1.1,0.3c0.7,0,1.2-0.2,1.6-0.5
			c0.4-0.3,0.6-0.8,0.8-1.4h0.9c-0.2,0.9-0.5,1.5-1.1,2s-1.3,0.7-2.2,0.7c-0.6,0-1.1-0.1-1.5-0.3c-0.4-0.2-0.8-0.5-1.1-0.9
			c-0.3-0.4-0.5-0.8-0.6-1.3c-0.1-0.5-0.2-1-0.2-1.5c0-0.5,0.1-1,0.2-1.5c0.1-0.5,0.3-0.9,0.6-1.3c0.3-0.4,0.6-0.7,1.1-0.9
			c0.4-0.2,0.9-0.3,1.5-0.3c0.6,0,1.1,0.1,1.5,0.4s0.8,0.6,1,1c0.3,0.4,0.5,0.8,0.6,1.4c0.1,0.5,0.2,1,0.1,1.5h-5.8
			C-26.9,429.2-26.8,429.6-26.7,429.9z M-22.2,427.1c-0.1-0.3-0.3-0.6-0.5-0.8c-0.2-0.2-0.5-0.4-0.7-0.6s-0.6-0.2-1-0.2
			c-0.4,0-0.7,0.1-1,0.2s-0.5,0.3-0.7,0.6c-0.2,0.2-0.4,0.5-0.5,0.9c-0.1,0.3-0.2,0.7-0.2,1h4.9C-22,427.8-22.1,427.4-22.2,427.1z"
			/>
		<path class="st3" d="M-16.9,424.9v0.8h-1.5v5.1c0,0.3,0,0.5,0.1,0.7c0.1,0.2,0.3,0.3,0.6,0.3c0.3,0,0.5,0,0.8,0v0.8
			c-0.1,0-0.3,0-0.4,0c-0.1,0-0.3,0-0.4,0c-0.6,0-1-0.1-1.3-0.4s-0.4-0.7-0.3-1.3v-5.1h-1.3v-0.8h1.3v-2.3h0.9v2.3H-16.9z"/>
		<path class="st3" d="M-14.9,429.9c0.1,0.4,0.2,0.7,0.4,1c0.2,0.3,0.5,0.5,0.8,0.7c0.3,0.2,0.7,0.3,1.1,0.3c0.7,0,1.2-0.2,1.6-0.5
			c0.4-0.3,0.6-0.8,0.8-1.4h0.9c-0.2,0.9-0.5,1.5-1.1,2s-1.3,0.7-2.2,0.7c-0.6,0-1.1-0.1-1.5-0.3c-0.4-0.2-0.8-0.5-1.1-0.9
			c-0.3-0.4-0.5-0.8-0.6-1.3c-0.1-0.5-0.2-1-0.2-1.5c0-0.5,0.1-1,0.2-1.5c0.1-0.5,0.3-0.9,0.6-1.3c0.3-0.4,0.6-0.7,1.1-0.9
			c0.4-0.2,0.9-0.3,1.5-0.3c0.6,0,1.1,0.1,1.5,0.4s0.8,0.6,1,1c0.3,0.4,0.5,0.8,0.6,1.4c0.1,0.5,0.2,1,0.1,1.5H-15
			C-15,429.2-15,429.6-14.9,429.9z M-10.4,427.1c-0.1-0.3-0.3-0.6-0.5-0.8c-0.2-0.2-0.5-0.4-0.7-0.6s-0.6-0.2-1-0.2
			c-0.4,0-0.7,0.1-1,0.2s-0.5,0.3-0.7,0.6c-0.2,0.2-0.4,0.5-0.5,0.9c-0.1,0.3-0.2,0.7-0.2,1h4.9C-10.2,427.8-10.2,427.4-10.4,427.1z
			"/>
		<path class="st3" d="M-1,424.9v0.8h-1.5v5.1c0,0.3,0,0.5,0.1,0.7c0.1,0.2,0.3,0.3,0.6,0.3c0.3,0,0.5,0,0.8,0v0.8
			c-0.1,0-0.3,0-0.4,0c-0.1,0-0.3,0-0.4,0c-0.6,0-1-0.1-1.3-0.4s-0.4-0.7-0.3-1.3v-5.1h-1.3v-0.8h1.3v-2.3h0.9v2.3H-1z"/>
		<path class="st3" d="M1.2,422v4.2h0c0.2-0.5,0.5-0.8,0.9-1.1c0.4-0.3,0.9-0.4,1.5-0.4c0.5,0,1,0.1,1.3,0.2s0.6,0.3,0.9,0.6
			c0.2,0.2,0.4,0.5,0.5,0.9s0.1,0.8,0.1,1.2v4.8H5.5v-4.7c0-0.3,0-0.6-0.1-0.9c-0.1-0.3-0.2-0.5-0.3-0.7c-0.1-0.2-0.3-0.4-0.6-0.5
			s-0.6-0.2-0.9-0.2s-0.7,0.1-1,0.2c-0.3,0.1-0.5,0.3-0.7,0.5c-0.2,0.2-0.4,0.5-0.5,0.8c-0.1,0.3-0.2,0.7-0.2,1v4.4H0.3V422H1.2z"/>
		<path class="st3" d="M9,422v1.5H8.1V422H9z M9,424.9v7.5H8.1v-7.5H9z"/>
		<path class="st3" d="M15.1,426.4c-0.1-0.2-0.2-0.4-0.4-0.5c-0.2-0.1-0.4-0.2-0.6-0.3c-0.2-0.1-0.5-0.1-0.7-0.1
			c-0.2,0-0.4,0-0.6,0.1c-0.2,0-0.4,0.1-0.6,0.2c-0.2,0.1-0.3,0.2-0.4,0.4c-0.1,0.2-0.2,0.4-0.2,0.6c0,0.2,0.1,0.4,0.2,0.5
			c0.1,0.1,0.2,0.3,0.4,0.4c0.2,0.1,0.3,0.2,0.5,0.2c0.2,0.1,0.4,0.1,0.5,0.2l1.2,0.3c0.3,0,0.5,0.1,0.8,0.2s0.5,0.2,0.7,0.4
			c0.2,0.2,0.4,0.4,0.5,0.6s0.2,0.5,0.2,0.9c0,0.4-0.1,0.8-0.3,1c-0.2,0.3-0.4,0.5-0.7,0.7c-0.3,0.2-0.6,0.3-1,0.4
			c-0.4,0.1-0.7,0.1-1.1,0.1c-0.9,0-1.6-0.2-2.1-0.6c-0.5-0.4-0.9-1.1-0.9-2h0.9c0,0.6,0.3,1.1,0.7,1.4c0.4,0.3,0.9,0.5,1.5,0.5
			c0.2,0,0.5,0,0.7-0.1c0.2,0,0.5-0.1,0.7-0.2s0.4-0.3,0.5-0.4c0.1-0.2,0.2-0.4,0.2-0.7c0-0.2,0-0.4-0.1-0.6
			c-0.1-0.1-0.2-0.3-0.4-0.4c-0.2-0.1-0.3-0.2-0.5-0.3c-0.2-0.1-0.4-0.1-0.6-0.2l-1.2-0.3c-0.3-0.1-0.6-0.2-0.8-0.3
			c-0.3-0.1-0.5-0.2-0.7-0.4c-0.2-0.2-0.3-0.3-0.4-0.6c-0.1-0.2-0.2-0.5-0.2-0.8c0-0.4,0.1-0.7,0.3-1c0.2-0.3,0.4-0.5,0.7-0.7
			s0.6-0.3,0.9-0.4s0.7-0.1,1-0.1c0.4,0,0.7,0,1.1,0.1s0.6,0.2,0.9,0.5s0.4,0.5,0.6,0.8c0.1,0.3,0.2,0.7,0.2,1.1h-0.9
			C15.3,426.8,15.2,426.6,15.1,426.4z"/>
		<path class="st3" d="M26.5,425c0.4,0.2,0.8,0.5,1.1,0.9s0.5,0.8,0.7,1.3s0.2,1,0.2,1.5c0,0.5-0.1,1.1-0.2,1.5
			c-0.2,0.5-0.4,0.9-0.7,1.3s-0.7,0.6-1.1,0.8c-0.4,0.2-0.9,0.3-1.5,0.3c-0.6,0-1.1-0.1-1.5-0.3c-0.4-0.2-0.8-0.5-1.1-0.8
			c-0.3-0.4-0.5-0.8-0.7-1.3c-0.2-0.5-0.2-1-0.2-1.5c0-0.5,0.1-1.1,0.2-1.5c0.2-0.5,0.4-0.9,0.7-1.3c0.3-0.4,0.7-0.6,1.1-0.9
			s0.9-0.3,1.5-0.3C25.6,424.7,26.1,424.8,26.5,425z M23.8,425.7c-0.3,0.2-0.6,0.4-0.8,0.7c-0.2,0.3-0.4,0.6-0.5,1
			c-0.1,0.4-0.2,0.8-0.2,1.2s0.1,0.8,0.2,1.2c0.1,0.4,0.3,0.7,0.5,1c0.2,0.3,0.5,0.5,0.8,0.7c0.3,0.2,0.7,0.3,1.1,0.3
			c0.4,0,0.8-0.1,1.1-0.3c0.3-0.2,0.6-0.4,0.8-0.7c0.2-0.3,0.4-0.6,0.5-1c0.1-0.4,0.2-0.8,0.2-1.2s-0.1-0.8-0.2-1.2
			c-0.1-0.4-0.3-0.7-0.5-1c-0.2-0.3-0.5-0.5-0.8-0.7c-0.3-0.2-0.7-0.3-1.1-0.3C24.6,425.4,24.2,425.5,23.8,425.7z"/>
		<path class="st3" d="M30.7,424.9v1.8h0c0.2-0.6,0.6-1.1,1.1-1.4s1.1-0.5,1.8-0.5v0.9c-0.4,0-0.8,0-1.1,0.2
			c-0.3,0.1-0.6,0.3-0.9,0.6c-0.2,0.2-0.4,0.5-0.6,0.9s-0.2,0.7-0.2,1.1v4h-0.9v-7.5H30.7z"/>
		<path class="st3" d="M40,432.4V431h0c-0.1,0.2-0.2,0.5-0.4,0.7c-0.2,0.2-0.4,0.4-0.6,0.5c-0.2,0.1-0.5,0.2-0.8,0.3
			c-0.3,0.1-0.5,0.1-0.8,0.1c-0.6,0-1.1-0.1-1.5-0.3c-0.4-0.2-0.8-0.5-1.1-0.9s-0.5-0.8-0.6-1.3c-0.1-0.5-0.2-1-0.2-1.5
			c0-0.5,0.1-1,0.2-1.5c0.1-0.5,0.3-0.9,0.6-1.3s0.6-0.7,1.1-0.9c0.4-0.2,0.9-0.3,1.5-0.3c0.3,0,0.6,0,0.8,0.1
			c0.3,0.1,0.5,0.2,0.7,0.3s0.4,0.3,0.6,0.5c0.2,0.2,0.3,0.4,0.4,0.7h0V422h0.9v10.4H40z M35,429.8c0.1,0.4,0.2,0.7,0.4,1
			c0.2,0.3,0.5,0.5,0.8,0.7c0.3,0.2,0.7,0.3,1.1,0.3c0.5,0,0.9-0.1,1.2-0.3c0.3-0.2,0.6-0.4,0.8-0.7c0.2-0.3,0.4-0.6,0.5-1
			c0.1-0.4,0.1-0.8,0.1-1.2s0-0.8-0.1-1.2c-0.1-0.4-0.2-0.7-0.5-1c-0.2-0.3-0.5-0.5-0.8-0.7c-0.3-0.2-0.7-0.3-1.2-0.3
			c-0.4,0-0.8,0.1-1.1,0.3c-0.3,0.2-0.6,0.4-0.8,0.7c-0.2,0.3-0.3,0.6-0.4,1c-0.1,0.4-0.1,0.8-0.1,1.2S34.9,429.4,35,429.8z"/>
		<path class="st3" d="M43.2,429.9c0.1,0.4,0.2,0.7,0.4,1c0.2,0.3,0.5,0.5,0.8,0.7c0.3,0.2,0.7,0.3,1.1,0.3c0.7,0,1.2-0.2,1.6-0.5
			c0.4-0.3,0.6-0.8,0.8-1.4h0.9c-0.2,0.9-0.5,1.5-1.1,2c-0.5,0.5-1.3,0.7-2.2,0.7c-0.6,0-1.1-0.1-1.5-0.3c-0.4-0.2-0.8-0.5-1.1-0.9
			c-0.3-0.4-0.5-0.8-0.6-1.3c-0.1-0.5-0.2-1-0.2-1.5c0-0.5,0.1-1,0.2-1.5c0.1-0.5,0.3-0.9,0.6-1.3c0.3-0.4,0.6-0.7,1.1-0.9
			c0.4-0.2,0.9-0.3,1.5-0.3c0.6,0,1.1,0.1,1.5,0.4c0.4,0.2,0.8,0.6,1,1c0.3,0.4,0.5,0.8,0.6,1.4c0.1,0.5,0.2,1,0.1,1.5h-5.8
			C43.1,429.2,43.1,429.6,43.2,429.9z M47.8,427.1c-0.1-0.3-0.3-0.6-0.5-0.8s-0.5-0.4-0.7-0.6c-0.3-0.2-0.6-0.2-1-0.2
			c-0.4,0-0.7,0.1-1,0.2c-0.3,0.2-0.5,0.3-0.7,0.6c-0.2,0.2-0.4,0.5-0.5,0.9c-0.1,0.3-0.2,0.7-0.2,1h4.9
			C47.9,427.8,47.9,427.4,47.8,427.1z"/>
		<path class="st3" d="M50.9,424.9v1.8h0c0.2-0.6,0.6-1.1,1.1-1.4s1.1-0.5,1.8-0.5v0.9c-0.4,0-0.8,0-1.1,0.2
			c-0.3,0.1-0.6,0.3-0.9,0.6c-0.2,0.2-0.4,0.5-0.6,0.9S51,428,51,428.4v4h-0.9v-7.5H50.9z"/>
	</g>
</g>
</svg>
